<?xml version="1.0" encoding="utf-8"?>
<!-- Generator: Adobe Illustrator 26.0.1, SVG Export Plug-In . SVG Version: 6.00 Build 0)  -->
<svg version="1.1" id="Layer_1" xmlns="http://www.w3.org/2000/svg" xmlns:xlink="http://www.w3.org/1999/xlink" x="0px" y="0px"
	 viewBox="0 0 612 574.4" style="enable-background:new 0 0 612 574.4;" xml:space="preserve">
<style type="text/css">
	.st0{fill:#FCFCFC;}
	.st1{fill:#FF8878;stroke:#000000;stroke-width:5.341;stroke-miterlimit:10;}
	.st2{fill:#FFDF43;}
	.st3{fill:#FFC794;stroke:#000000;stroke-width:4.3548;stroke-miterlimit:10;}
	.st4{fill:#434A56;stroke:#000000;stroke-width:4.3548;stroke-miterlimit:10;}
	.st5{fill:#D8D8D8;stroke:#000000;stroke-width:4.4363;stroke-miterlimit:10;}
	.st6{fill:#50596C;stroke:#231F20;stroke-width:5.4466;stroke-miterlimit:10;}
	.st7{fill:#E1E0E5;stroke:#231F20;stroke-width:5.4466;stroke-miterlimit:10;}
</style>
<circle class="st0" cx="310.5" cy="287.2" r="272.9"/>
<path class="st1" d="M413.7,446.6H204.4v-84.4c0-43.1,35-78.1,78.1-78.1h53c43.1,0,78.1,35,78.1,78.1V446.6z"/>
<path class="st2" d="M480.9,200.2c-4.5-14.1-10-27-24.9-33.7c13.5-6.9,21.7-17.4,23.2-32.7c5.5,13.6,11.3,26.5,26.2,32.9
	c-3.3,1.6-6.1,3.1-8.4,5.4c-5.7,5.6-9,12.7-12.3,19.8C483.5,194.6,482.3,197.2,480.9,200.2z"/>
<path class="st2" d="M128.5,195c4.1,10.6,8.2,20.8,19.5,25.9c-10.8,5.5-13.5,16.3-18.3,26.1c-0.9-2.7-1.6-5-2.5-7.2
	c-2.5-6.3-5.7-12-11.3-16.1c-0.3-0.2-0.6-0.4-0.8-0.6c-1.1-0.9-3.3-1-3.4-2.4c0-0.8,2-1.7,3.2-2.5c7.3-4.7,11.4-11.5,12.9-19.9
	C127.9,197.4,128.2,196.4,128.5,195z"/>
<ellipse class="st3" cx="306.1" cy="204.6" rx="89.4" ry="85.9"/>
<path d="M345,227.1c0,8.6-3.3,14.9-7.3,14.9c-4.1,0-7.5-7-7.3-15.2c0-8.3,3.6-14.9,7.5-14.9C341.8,211.9,345,218.9,345,227.1z"/>
<path d="M266.7,226.8c0-8.3,3.4-14.9,7.3-14.9c3.9,0.3,7.5,7.6,7.3,15.2c-0.2,8.3-3.4,14.9-7.5,14.6
	C269.7,241.7,266.7,235.4,266.7,226.8z"/>
<path class="st4" d="M306.6,190.3c38.8-8.5,47-19.9,50.2-39.1c24.5,13.3,32.9,27.3,38.7,53.4c20-37.3-9.1-109.2-89.6-105.9
	c-66.9,2.8-111.9,52.9-88.3,113.1c3.5-11.7,18.5-25.6,26.6-26.4c43.5-4.3,47.2-25.5,51.8-36.4C314.3,163.6,313.8,174.8,306.6,190.3z
	"/>
<path class="st5" d="M163.9,430.4c-3.3,0-6.5,0-9.9,0c0-13,0-25.8-0.1-38.8c-1.4-2.2-1-4.9-0.9-7.2c0.1-3-0.9-4.8-3.5-6.3
	c-8-4.8-11.9-12.2-12.4-21.4c0-0.9,0.2-1.9-0.2-2.7c-0.6-9.1,1.1-17.6,6.4-25.2c8.2-11.6,23.1-11.5,31.4,0
	c5.5,7.8,6.9,16.5,6.4,25.7c-0.2,5.5-1.3,10.9-4.5,15.7c-2.3,3.5-5.3,6.4-9,8.5c-2.2,1.2-2.9,2.8-2.8,5.1c0,2.7,0.7,5.3-0.8,7.9
	C163.9,404.5,163.9,417.5,163.9,430.4z"/>
<path class="st5" d="M458.7,424.8c-3.1,0-6.3,0-9.4,0c-0.6-0.9-0.3-1.8-0.3-2.7c0-9.4-0.2-18.9,0-28.3c0.1-6.1-1.1-12.1-0.9-18.2
	c0.1-2-1.2-3.4-2.8-4.5c-1.9-1.3-3.9-2.4-5.8-3.9c-3.1-2.4-5.3-5.3-5.3-9.5c-0.7-9.3-0.4-18.6-0.4-27.9c0-1,0-2,0.2-3
	c0.7-2.8,2.8-4.2,5.4-4c2.3,0.2,4.1,2.4,4.1,5.1c0,8.1,0,16.3,0,24.4c0,2.4,0.7,4.5,2.6,6.2c0.7,0.7,1.6,1.4,2.3,1.2
	c1.1-0.3,0.6-1.6,0.6-2.4c0-11.5,0-23.1,0-34.6c0-3.9,1.9-5.7,5.3-5.3c2.7,0.2,4.1,2,4.1,5.2c0,11.5,0,23.1,0,34.6
	c0,0.9-0.4,2.1,0.4,2.6c1.1,0.6,2-0.4,2.9-1.1c2-1.7,2.7-3.9,2.7-6.3c0-8.1,0-16.3,0-24.4c0-3,1.7-4.9,4.4-5c3-0.1,4.8,1.4,5.1,4.5
	c0.2,2.1,0.3,4.2,0.4,6.3c0,7.9,0.1,15.6-0.4,23.5c0,3.8-1.7,6.7-4.4,9.1c-1.8,1.6-3.8,2.9-5.9,4.1c-3.1,1.8-4.5,4.2-4.4,7.9
	c0.1,1.2,0.2,7.1-0.1,16.7C458.6,405.2,458.7,417.7,458.7,424.8z"/>
<g>
	<path class="st6" d="M430.3,444.3c3.9,0.1,7.9,0.3,11.8,0.3c1.9,0,2.9,0.7,3.1,2.6c0.5,3,0.8,6,0,9.1c-3.9,6.1-9.9,8.3-16.9,8.3
		c-50.1,0-100.2,0-150.3,0c-31.6,0-63.2,0-94.9,0c-6.1,0-11.4-2.2-15.5-7.1c-1.6-3.3-1.4-6.7-0.7-10.2c0.4-1.9,1.2-2.6,3.1-2.6
		c3.9,0,7.9-0.1,11.8-0.1c1.9-1.4,4.1-1,6.3-1c58.3,0,116.6,0,174.8,0c20.6,0,41,0,61.5,0C426.6,443.2,428.6,443,430.3,444.3z"/>
	<path class="st7" d="M316.8,328.7v-9.1h5.5c5.9,0,10.7-4.8,10.7-10.7c0-5.9-4.8-10.7-10.7-10.7h-32.4c-5.9,0-10.7,4.8-10.7,10.7
		c0,5.9,4.8,10.7,10.7,10.7h5.5v9.1c-58.6,4.9-104.5,49.4-104.5,103.6c0,3.7,0.2,7.4,0.7,11.1h229.1c0.4-3.6,0.7-7.3,0.7-11.1
		C421.3,378,375.4,333.5,316.8,328.7z"/>
</g>
</svg>
