<?xml version="1.0" encoding="utf-8"?>
<!-- Generator: Adobe Illustrator 26.0.1, SVG Export Plug-In . SVG Version: 6.00 Build 0)  -->
<svg version="1.1" id="Layer_1" xmlns="http://www.w3.org/2000/svg" xmlns:xlink="http://www.w3.org/1999/xlink" x="0px" y="0px"
	 viewBox="0 0 612 574.4" style="enable-background:new 0 0 612 574.4;" xml:space="preserve">
<style type="text/css">
	.st0{fill:#FEFEFE;}
	.st1{fill:#E1DDDB;}
	.st2{fill:#ECC8B7;}
	.st3{fill:#DE8979;}
	.st4{fill:#50596C;}
	.st5{fill:#BDBDC9;}
	.st6{fill:#EFCF83;}
	.st7{fill:#C05D56;}
	.st8{fill:#EFCF84;}
	.st9{fill:#DAA08D;}
	.st10{fill:#E1E0E5;}
</style>
<g>
	<path class="st0" d="M113.3,421.9c-15.1-21.1-26.6-44.1-34.3-69c-4.3-13.8-7.1-28-8.9-42.4c-1.6-13.3-1.9-26.7-1.3-40.1
		c0.9-20,4.5-39.6,10.5-58.7c9-28.7,22.9-54.7,41.7-78.1c21.1-26.1,46.5-47,76.4-62.4c20.1-10.3,41.2-17.7,63.4-22
		c10.4-2,20.8-3.3,31.4-3.9c10.4-0.6,20.8-0.5,31.2,0.2c16.8,1.2,33.3,4.2,49.4,8.9c23.6,7,45.7,17.3,66,31.2
		c31.3,21.3,56.2,48.5,74.6,81.5c10.4,18.6,18.1,38.3,23.1,59c2.9,12,5,24.2,5.9,36.6c0.6,7.5,1,14.9,0.9,22.4
		c-0.4,23.1-3.8,45.8-10.6,68c-8,25.9-20.2,49.7-36.3,71.5c-0.1,0.2-0.3,0.4-0.5,0.6c-1.2,0.7-2.2,0.1-3.3-0.3
		c-3.8-1.5-7.7-2.3-11.8-2.4c-1.2,0-2.5,0.1-3.4-1.1c-0.4-0.7-0.5-1.6-0.5-2.4c0-10.1-0.1-20.1,0-30.2c0-0.5,0.1-1,0.2-1.5
		c1.2-2.7,3.5-4.3,5.9-5.9c2.4-1.7,5-3.1,6.3-5.9c2.2-4.9,2.7-10,1.8-15.3c0.2-6.8,0.5-13.6,0.4-20.5c0-2-0.1-4-0.5-6
		c-0.4-2.1-1.7-3.2-3.5-3.1c-1.8,0.1-2.9,1.3-3,3.4c-0.2,5.7,0,11.5-0.1,17.2c0,2,0.1,4-0.1,6c-0.3,2.6-1.5,4.6-3.8,5.8
		c-1.8,1-3,0.4-3.4-1.7c-0.2-1-0.1-2-0.1-3c0-9,0-18,0-27c0-0.8,0-1.7-0.1-2.5c-0.2-2.1-1.4-3.3-3.4-3.3c-1.8,0-3,1.1-3.1,3.2
		c-0.2,4.3-0.1,8.7-0.1,13c0,5.7,0,11.5,0,17.2c0,0.8,0,1.7-0.2,2.5c-0.4,1.9-1.4,2.3-3.1,1.4c-2.3-1.4-3.5-3.5-3.6-6.2
		c-0.2-5.3,0-10.7-0.1-16c0-2.1,0.1-4.2-0.1-6.2c-0.1-2.2-1.5-3.7-3.2-3.8c-1.8-0.1-3.2,1.2-3.7,3.4c-0.1,0.7-0.1,1.3-0.1,2
		c0.1,7.2-0.4,14.5,0.4,21.7c0.1,1.1,0.1,2.2-0.1,3.2c-1.9,7,0.8,15.5,6.9,19.3c4.7,2.9,6.4,6.4,6.2,11.9
		c-0.5,8.9-0.1,17.8-0.1,26.7c0,1.3,0.1,2.7-1.1,3.6c-1.7,1-3.5,1.3-5.5,1.3c-5.4,0-10.8-0.2-16.1,0.2c-1.6,0.1-2.9-0.7-4.2-1.5
		c-8.3-4.8-16.4-9.8-24.8-14.4c-3.9-2.1-5.8-5.2-6.5-9.4c-5-27.4-11.8-54.3-17.9-81.5c-4-17.6-14.4-30.2-30.6-38.1
		c-9-4.3-18-8.6-27.6-11.4c-2.6-1-5.3-1.7-8.1-2.3c-1.1-0.2-2.3-0.4-3-1.5c-0.7-1.4-0.5-2.9-0.4-4.4c-0.2-3-0.4-6,0.2-8.9
		c0.6-1.3,2-1.7,3.2-2.3c12.4-6.1,21.5-15.4,27-28.2c0.9-2.1,2.1-3,4.4-2.9c8.2,0.4,15.4-8.4,14-16.7c-0.2-1.1-0.1-2.2-0.2-3.2
		c0.5-2.5,0.2-5.1,0.2-7.6c2.1-5.3,5.5-10,7.8-15.3c3.2-7.6,4.9-15.4,4.5-23.7c-0.3-5.6,0.3-11.1-0.5-16.7
		c-1.7-12.3-6.8-22.9-15.4-31.8c-4.5-4.7-9.1-9.3-14.7-12.7c-0.5-0.3-0.9-0.7-1.2-1.2c-0.5-1.2,0.2-2.1,0.9-2.8
		c1.5-1.5,2.3-3.4,3.3-5.2c0.9-1.8,0.9-3.2-0.8-4.4c-0.3-1.5,0.7-2.7,1.1-4c0.6-1.9,0.3-2.4-1.6-2.1c-9.4,1.7-18.6-0.1-27.8-1
		c-14.6-1.4-29.1-1.5-43.3,2.9c-9.2,2.9-17.5,7.3-23.7,15c-3.8,4.8-6.2,10.3-7.5,16.2c-0.6,2.8-2.1,4.3-4.9,4.8
		c-14.7,2.9-23.2,12.4-27.5,26.2c-1.9,6.1-1.5,12.3-1.6,18.6c-0.8,9.9,2.3,18.8,7.5,27c1.5,2.4,3.3,4.6,4.6,7.1
		c0.3,1.1-0.1,2.1-0.4,3.2c-0.7,2.4-0.7,4.7-0.2,7.1c-0.1,1.9-0.2,3.8-0.1,5.7c0.2,7.7,5.2,13.5,12.9,14.3c3.3,0.4,4.9,1.8,6.2,4.7
		c5.6,12.4,14.8,21.2,27,26.9c2.6,1.2,3.8,2.7,3.5,5.6c-0.3,3.2,0.6,6.5-0.6,9.6c-0.8,0.9-2,1.1-3.1,1.4c-3,0.7-5.9,1.6-8.8,2.7
		c-7.1,2.5-14.2,4.9-21,8.1c-7.4,3.5-14.6,7.4-20.8,12.7c-8.7,7.4-13.5,17.1-16.1,28.1c-6.4,26.7-12.7,53.5-17.8,80.5
		c-1,5.4-3.9,9.4-8.8,12c-7.7,4-15.4,8-22.6,12.8c-2.1,1.4-4.5,2.6-7.3,2c-5.3-0.7-10.6-0.1-15.9-0.3c-2.3-0.1-4.5-0.2-6-2.3
		c-0.4-0.9-0.4-1.8-0.4-2.7c0-9.7,0-19.5,0-29.2c0-0.8,0-1.7,0.3-2.5c0.3-0.9,1-1.5,1.8-1.9c9-4.5,12.2-12.7,13.4-21.9
		c0.4-3.4,0.3-6.8,0.1-10.2c0-4.2,0.1-8.4-1-12.6c-1-4.2-2.8-8-5.6-11.3c-7.6-9.1-19.8-8.3-26.4,1.5c-3.6,5.4-5.3,11.4-5.4,17.9
		c0,1.3,0.1,2.7,0,4c-0.2,6.5-0.3,12.9,2,19.1c2.1,5.8,5.5,10.5,11.2,13.4c0.9,0.5,1.7,1,2.1,2c0.2,0.7,0.3,1.5,0.3,2.2
		c0,9.7,0,19.5,0,29.2c0,1-0.1,2-0.6,2.9C121.1,423.3,115.1,423.4,113.3,421.9z"/>
	<path class="st0" d="M425.5,488.3c-10.1,6.2-20.8,11.2-31.7,15.6c-18.1,7.3-36.9,12.1-56.2,14.8c-13.2,1.8-26.5,2.5-39.8,2
		c-40.9-1.7-79-12.7-114.1-33.9c-0.1-1.2,0.7-1.6,1.6-2c4.3-2,8.8-2.3,13.4-1.7c1.1,0.1,2,0.8,2.9,1.5c3.3,2.7,7.1,3.8,11.3,3.8
		c58.9,0,117.7,0,176.6,0c4.9,0,9.4-1.3,12.9-5c1.3-1.4,3.1-1.4,4.9-1.3c4.9,0.2,9.4,2.1,14,3.6c0.9,0.3,1.9,0.6,2.8,1
		C424.7,487,425.5,487.2,425.5,488.3z"/>
	<path class="st1" d="M425.5,488.3c-6.3-2.5-12.6-5-19.5-5.5c-1.4-0.1-2.4,0.2-3.4,1.5c-3,3.7-7.3,4.9-11.8,5
		c-14.9,0.1-29.8,0-44.7,0c-44.6,0-89.2,0-133.8,0c-4.6,0-8.7-1.3-12-4.5c-0.4-0.3-0.8-0.8-1.2-0.8c-5.4-0.4-10.8-0.5-15.5,2.8
		c-3.4,0.1-6.4,1.7-9.4,2.8c-6.7,2.5-13.6,4.2-20.3,6.6c-1.9,0.6-3.9,1.1-5.9,1c-10.2-0.3-20.4,1.6-30.6,1.1
		c-11-0.5-22.2-9.8-24.8-20.6c-1.2-5-0.7-9.9-0.8-14.9c1.7,0.4,1.5,2,1.9,3.2c3.1,10.2,13,18.4,23.1,18.9c4.7,0.2,9.5,0.3,14.2,0
		c4.1-0.3,8.1-0.2,12.2-0.3c1.2,0,2.3-0.1,3.4-0.4c7.1-0.5,13.7-3.4,20.4-5.4c6.5-1.9,12.9-4.4,19.3-6.7c4.5-1.6,9.1-1.4,13.8-0.7
		c0.5,0.2,1,0.6,1.5,0.9c3,2.4,6.5,3.6,10.4,3.6c59.5,0,119,0,178.6,0c4.9,0,8.8-2.1,12.2-5.3c3.2-0.9,6.4-0.9,9.6,0
		c9.8,2.9,19.3,6.6,29,9.9c7.9,2.8,16,4.3,24.4,4.1c5.2,0.6,10.5,0.4,15.7,0.4c12.4,0,21.8-6.7,25.9-18.5c0.4-1.2,0.3-2.8,2-3.1
		c-0.1,5,0.4,9.9-0.9,14.9c-3.1,11.3-14.3,20-25.9,20.1c-9,0.1-17.9-0.3-26.9-1.1c-5.3-0.5-10.4-2.1-15.4-3.9
		C435.4,491.5,430.4,490,425.5,488.3z"/>
	<path class="st2" d="M146.7,484.9c-0.5,0.4-1.1,0.4-1.6,0.4c-9.4-0.1-18.8,1-28.1,0.5c-7.1-0.4-12.9-3.7-17.9-8.7
		c-3.9-4-5.7-9-7.3-14.2c0.1-6.1-0.7-12.2,0.4-18.1c2-11,8.7-18,19.1-21.6c0.7-0.3,1.8,0,2-1.1c3.3,0.6,6.6-0.5,10-0.1
		c3-1.5,5.9-1.5,8.9,0c2.2,0.9,4.4,1.6,6.9,1.5c4.2-0.1,8.4,0,12.6,0c0.9,0,1.8-0.2,2.6,0.4c-0.7,0.9-1.7,1-2.7,1
		c-4,0-8,0.1-11.7-0.1c3.2,2.6,5.1,6.2,5.2,10.4c0.3,12.5,0.3,25,0,37.5c-0.1,5.5-3.4,10.2-7.7,12.1c-0.3,0.1,0.3,0.4,0,0.2
		c-0.1-0.1-0.1-0.2,0.1-0.2C140.5,483.7,143.7,483.2,146.7,484.9z"/>
	<path class="st2" d="M509.4,463.3c-1.6,4.5-3.1,9-6.3,12.8c-4.9,5.7-11,9.2-18.4,9.6c-6.3,0.3-12.6,0.7-18.9-0.5
		c-4.8-1-7.3-4.3-8.7-8.6c-0.8-2.4-1-4.9-1-7.4c0-9.7,0.1-19.3,0-29c-0.1-5.6,0.6-10.9,5-15.5c-4-0.1-7.6,0-11.1-0.1
		c-1.2,0-2.5,0.2-3.5-0.9c0.8-0.7,1.7-0.5,2.6-0.5c3.6,0,7.3-0.1,10.9,0c2.9,0.1,5.7-0.3,8.5-1c0.6-0.2,0.9-0.8,1.5-1
		c2.7-0.4,5.5-1,8.1,0.6c6.3-0.3,12.3,0.9,17.9,3.6c3.5,2.8,7.1,5.5,9.4,9.5c2.5,4.3,4.2,8.8,4.1,13.9
		C509.4,453.7,509.4,458.5,509.4,463.3z"/>
	<path class="st3" d="M446.5,423.8c5.5,0,10.9,0,16.4,0c0.3,1-0.6,1-0.9,1.3c-3.3,3-4.9,6.8-4.9,11.3c0,10.6,0.2,21.3,0,31.9
		c-0.2,7.4,1.9,13.4,8.9,16.9c-8.7,0.6-17-1.3-25.1-4.1c-9.6-3.4-19.3-6.7-29-9.9c-2.6-0.9-5.5-0.2-8.2-0.4c-1-1.3-0.3-2.9-0.5-4.3
		c-0.4-2.8-0.7-3.1-3.5-3.3c-2.3-0.1-4.6,0.4-6.8-0.5c-1-0.8-0.9-1.9-0.9-3c-0.9-20.3-7.6-38.5-20.4-54.3c-0.9-1.1-2.1-2.2-2.2-3.8
		c-0.6-9.8-1.1-19.6-1.7-29.4c-0.5-6.6-1.3-13.2-1.3-19.9c0-3.2,0.4-6.3,1.3-9.3c0.3-0.8,0.5-1.6,0.5-2.4c0-1-0.3-1.8-1.2-2.2
		c-0.9-0.4-1.6-0.2-2.3,0.4c-1,0.8-1.7,1.8-2.4,2.8c-3.6,5.3-4.4,11.4-4.5,17.6c-0.1,8.7,0,17.5,0,26.2c0,1.3,0.1,2.7-0.4,3.9
		c-1,1.5-1.9,0.4-2.7-0.1c-3-1.9-5.9-4-9-5.7c-3.5-1.9-7-3.7-10.8-5c-7.8-2.8-15.7-5.1-24-5.8c-0.9-0.1-1.8-0.2-2.4-1.1
		c-0.8-2.9-0.4-5.8-0.3-8.7c0-1.3,0.9-2.1,2.2-2.3c0.6-0.1,1.2-0.2,1.7-0.3c4.9-1,7.7-5,7.4-10.3c-0.3-4.5-4-8.1-8.8-8.2
		c-6-0.2-12-0.2-18,0c-5,0.1-8.6,3.8-8.9,8.7c-0.3,5.1,2.9,9.1,7.9,9.9c1,0.2,2,0.1,2.9,0.8c1.2,3.2,0.6,6.5,0.4,9.8
		c-0.1,1.5-1.7,1.6-2.9,1.7c-9.1,0.9-17.8,3.2-26.2,6.8c-4.9,2.1-9.6,4.6-14.1,7.4c-1.1,0.7-2.1,1.8-3.6,0.8
		c-0.6-0.9-0.6-1.9-0.7-2.9c-0.7-9.7-0.5-19.5-0.5-29.2c0-5.7-1.8-10.8-5.1-15.4c-0.5-0.7-1-1.3-1.7-1.8c-0.8-0.5-1.5-0.6-2.3-0.1
		c-0.7,0.5-0.9,1.1-0.8,1.9c0.1,0.6,0.1,1.2,0.3,1.7c2.4,5.5,1.6,11.2,1.1,17c-0.5,5.9-0.8,11.8-1.1,17.7
		c-0.3,7.4-1.4,14.7-1.6,22.1c0.1,1.5-1,2.4-1.9,3.4c-10.4,11.8-17.5,25.3-21,40.8c-0.3,1.1-0.5,2.3-0.3,3.5
		c-0.5,4.7-1.1,9.5-1.4,14.2c0,0.6-0.2,1.1-0.5,1.6c-1.8,1.4-4,0.8-6,0.9c-4.3,0.1-5.3,1.2-4.7,5.6c0.1,1,0.6,1.9-0.1,2.9
		c-8.6-0.9-16.3,2.4-24.1,5.2c-8.1,2.9-16.3,5.5-24.7,7.6c-1.3,0.3-2.8,0.3-4.2,0.4c-3.3,0-6.6,0-10.5,0c4.1-2.8,7-5.8,7.7-10.4
		c0.1-1,0.3-2,0.3-3c0-11.2,0.1-22.5,0.1-33.7c0-6.4-1.3-9.3-6.4-14c5.8,0,11.1,0,16.5,0c2.5,0.4,4.6-0.9,6.5-2.2
		c6.7-4.7,14-8.4,21.2-12.1c5.6-2.9,8.7-7.1,9.9-13.4c4.3-23,9.3-45.9,15-68.6c1.8-7.2,2.9-14.5,5.9-21.4c4-9.5,10.5-16.9,19.1-22.4
		c11.1-7.1,23.2-12.2,35.8-16.1c1.6,1.7,1.3,3.9,1.7,5.9c1,5.2,2.8,10.1,6.1,14.3c6.8,8.5,15.6,12.8,26.6,12.9
		c12.2,0.1,21.1-5.7,27.7-15.4c3-4.5,4.5-9.6,5-15c0.1-1-0.1-2,0.8-2.8c14.1,4.5,27.8,9.8,39.6,18.8c10.9,8.3,16.8,19.8,19.7,32.9
		c5.3,24.7,11.5,49.2,16.3,73.9c0.5,2.4,0.9,4.9,1.3,7.4c0.5,2.5,1.4,4.7,3.7,6C426.3,412.2,436.4,418,446.5,423.8z"/>
	<path class="st4" d="M353.1,88.4c8.4,5,15.2,11.7,21.1,19.4c8.3,10.8,11.5,23.2,11.4,36.6c0,2.2-0.1,4.3-0.2,6.5
		c0.1,11.1-5.6,20-10.7,29.2c-1.1,2-1.7,4.3-3.7,5.8c-1.5,0.7-2.9,0.2-4.4-0.2c-2.9-0.9-5.7-2.2-8.7-3c-3.6-0.6-7.3-0.6-10.9-0.8
		c-20.1-1.4-38.7-6.9-54.5-19.8c-10.4-8.5-17.4-19.4-21.2-32.3c-0.4-1.5-0.9-3-1.3-4.6c-0.4-1.7-1.2-1.6-2.2-0.4
		c-3.2,3.8-6.1,8-8.5,12.3c-6.6,11.9-10.1,24.8-11.6,38.2c-0.2,1.5-0.2,3-1.1,4.3c-0.5,0.4-1.1,0.5-1.6,0.4
		c-3.4-0.7-6.4,0.4-9.1,2.5c-0.5,0.4-1.1,0.7-1.8,0.7c-0.9-0.2-1.4-0.8-1.9-1.5c-4.3-5.7-8.4-11.4-11.3-18c-1.5-3.5-2-7.1-2.4-10.8
		c-0.7-8.5,0.1-16.7,3.7-24.6c5.4-11.7,14.1-19.1,26.9-21.2c1.7-0.3,2.7-1.1,3-2.7c3.6-18.1,15.6-28,32.4-33.2
		c12-3.7,24.4-4.2,36.8-3.3c7,0.5,14.1,1.4,21.1,2c4.6,0.4,9.1,0.1,13.7-0.6c0.8-0.1,1.7-0.4,2.4,0.3c0.7,0.8,0.1,1.6-0.2,2.3
		c-0.7,1.6-1.4,3.2-2.1,4.8c0,2.1-1.8,3.1-2.9,4.4c-0.7,0.8-1.4,1.4-2.2,2.1c-2.2,1.9-2.2,1.9,0.2,3.6
		C352.1,87.1,352.6,87.8,353.1,88.4z"/>
	<path class="st2" d="M246.6,179.4c1.5-15.8,5.1-31,13.3-44.8c2.3-3.9,5-7.6,8-11.1c0.5-0.6,1-1.6,1.9-1.3c0.8,0.2,0.7,1.2,0.9,1.9
		c2.3,9.7,6.2,18.7,12.3,26.7c9.6,12.5,22.4,20.2,37.2,25.1c10.9,3.6,22.1,5.1,33.6,5.4c1.4,0,2.8-0.2,4.1,0.6
		c2.1,3,1.7,6.6,1.8,9.8c0.1,5.9-0.8,11.7-3,17.2c-5.9,15.9-16.9,26.8-32.5,33.1c-12.9,4.8-25.9,5.4-39.2,1.9
		c-4.2-1.1-4.4-0.9-4.1,3.4c0.1,1.7,0.9,2.3,2.4,2.6c8.4,1.5,16.7,3.6,25.1,5.5c4.5,1,8.9,2.1,13.4,3.1c1,0.2,2,0.4,2.7,1.2
		c0,1.5,0,3,0,4.6c1.6,3.5,1,7.2,0.5,10.7c-0.8,4.8-3.4,8.6-7.3,11.5c-8.7,6.6-21.6,6.7-30.4,0.4c-5.6-4-8.3-9.5-8.5-16.2
		c-0.1-2.3-0.8-4.8,0.8-7c0-3.7,0-7.3,0.1-11c0-1.4-0.4-2.2-1.8-2.8c-13.9-6.2-24-16.1-29.7-30.2c-0.5-1.2-1.2-1.5-2.5-1.6
		c-9.3-0.2-15.3-6.5-15.8-15.5c-0.1-1.8,0.3-3.6,0.3-5.4c1.4,0.2,1.4,1.5,1.8,2.4c2.4,4.8,6.1,7.7,11.6,8.3c1.7,0.2,2.4-0.4,1.8-2.1
		c-2-6.3-1.8-12.8-1.6-19.3C243.9,184.1,244.1,181.3,246.6,179.4z"/>
	<path class="st5" d="M132.2,421.8c-3,0-5.9,0-8.9,0c0-11.7,0-23.3-0.1-35c-1.3-2-0.9-4.4-0.8-6.5c0.1-2.7-0.8-4.3-3.2-5.7
		c-7.2-4.3-10.7-11-11.2-19.3c0-0.8,0.2-1.7-0.2-2.4c-0.5-8.2,1-15.9,5.8-22.7c7.4-10.5,20.8-10.4,28.3,0c5,7,6.2,14.9,5.8,23.2
		c-0.2,5-1.2,9.8-4.1,14.2c-2.1,3.2-4.8,5.8-8.1,7.7c-2,1.1-2.6,2.5-2.5,4.6c0,2.4,0.6,4.8-0.7,7.1
		C132.2,398.5,132.2,410.2,132.2,421.8z"/>
	<path class="st5" d="M478,421.8c-2.8,0-5.7,0-8.5,0c-0.5-0.8-0.3-1.6-0.3-2.4c0-8.5-0.2-17,0-25.5c0.1-5.5-1-10.9-0.8-16.4
		c0.1-1.8-1.1-3.1-2.5-4.1c-1.7-1.2-3.5-2.2-5.2-3.5c-2.8-2.2-4.8-4.8-4.8-8.6c-0.6-8.4-0.4-16.8-0.4-25.2c0-0.9,0-1.8,0.2-2.7
		c0.6-2.5,2.5-3.8,4.9-3.6c2.1,0.2,3.7,2.2,3.7,4.6c0,7.3,0,14.7,0,22c0,2.2,0.6,4.1,2.3,5.6c0.6,0.6,1.4,1.3,2.1,1.1
		c1-0.3,0.5-1.4,0.5-2.2c0-10.4,0-20.8,0-31.2c0-3.5,1.7-5.1,4.8-4.8c2.4,0.2,3.7,1.8,3.7,4.7c0,10.4,0,20.8,0,31.2
		c0,0.8-0.4,1.9,0.4,2.3c1,0.5,1.8-0.4,2.6-1c1.8-1.5,2.4-3.5,2.4-5.7c0-7.3,0-14.7,0-22c0-2.7,1.5-4.4,4-4.5
		c2.7-0.1,4.3,1.3,4.6,4.1c0.2,1.9,0.3,3.8,0.4,5.7c0,7.1,0.1,14.1-0.4,21.2c0,3.4-1.5,6-4,8.2c-1.6,1.4-3.4,2.6-5.3,3.7
		c-2.8,1.6-4.1,3.8-4,7.1c0.1,2.4,0.5,4.8-0.7,7.1C478,398.6,478,410.2,478,421.8z"/>
	<path class="st6" d="M443.7,304c-4.5-14.1-10-27-24.9-33.7c13.5-6.9,21.7-17.4,23.2-32.7c5.5,13.6,11.3,26.5,26.2,32.9
		c-3.3,1.6-6.1,3.1-8.4,5.4c-5.7,5.6-9,12.7-12.3,19.8C446.3,298.4,445.1,301,443.7,304z"/>
	<path class="st7" d="M279.6,264c0,2.9-0.1,5.8,0.2,8.7c0.6,7.3,4.6,12.3,10.9,15.6c9.1,4.7,20.3,3.3,27.9-3.4c3.9-3.4,6-7.7,6-12.9
		c0-2.5,0-5,0-7.5c3.7,0.7,7.5,1.1,11,3c0.4,15-9.6,28.4-23.7,32.7c-11.4,3.4-22.1,1.1-31.6-6.3c-7.4-5.8-10.7-13.6-12.1-22.6
		c-0.2-1.2-0.3-2.5-0.5-3.7C271.5,265.8,275.5,264.9,279.6,264z"/>
	<path class="st8" d="M172.9,203.5c4.1,10.6,8.2,20.8,19.5,25.9c-10.8,5.5-13.5,16.3-18.3,26.1c-0.9-2.7-1.6-5-2.5-7.2
		c-2.5-6.3-5.7-12-11.3-16.1c-0.3-0.2-0.6-0.4-0.8-0.6c-1.1-0.9-3.3-1-3.4-2.4c0-0.8,2-1.7,3.2-2.5c7.3-4.7,11.4-11.5,12.9-19.9
		C172.3,205.9,172.6,204.9,172.9,203.5z"/>
	<path class="st9" d="M324.5,259.9c-4.7-0.4-9.2-2-13.8-3c-9.5-2-18.8-4.6-28.4-6.1c-1.5-0.2-2.4-0.9-2.2-2.6c0.2-2-0.8-4.6,0.5-5.8
		c1.3-1.2,3.5,0.5,5.3,1c12.2,3,24.3,2.6,36.3-1.4c0.8-0.3,1.6-0.4,2.4-0.6c1.6,3,1.5,6,0.1,9C324.6,253.6,324.6,256.8,324.5,259.9z
		"/>
	<path class="st1" d="M324.7,250.5c0-3-0.1-6-0.1-9c6.3-3,12.3-6.5,17.5-11.2c6-5.5,10.5-12.1,13.5-19.7c0.1-0.4,0.4-0.7,0.6-1.1
		c0.8-0.8,1.8-0.7,2.8-0.8c6-0.4,10-3.6,12.5-8.8c0.4-0.7,0.3-1.9,1.6-1.9c0.7,4.4,0.8,8.8-1.6,12.8c-2.9,4.6-6.7,7.9-12.5,7.7
		c-2.6-0.1-3.5,1.1-4.4,3.2c-6,13.5-15.9,23-29.4,28.8C325,250.5,324.8,250.5,324.7,250.5z"/>
	<path class="st9" d="M246.6,179.4c-1.4,2.9-2,5.9-2,9.1c0,6.4,0,12.8,2.1,18.9c0.7,1.9-0.8,1.8-1.7,1.8
		c-6.9-0.3-12.6-4.4-14.4-10.9c-0.1-0.3-0.3-0.6-0.4-0.9c-1.1-3.6-0.1-7,0.9-10.5c0.1-2,1.1-3.4,3-4c2.8-2,5.4-4.5,9.3-4
		C244.5,179.1,245.5,179.3,246.6,179.4z"/>
	<path class="st9" d="M373,198c-2,5.9-5.7,9.9-12,11.3c-1.6,0.4-3.3,0.2-4.9,0.2c0.6-2.7,1.4-5.3,1.9-8c1.1-5.9,1.3-11.8,0.1-17.8
		c-0.1-0.6,0-1.2-0.1-1.7c2.9,0.3,5.4,1.8,8.1,2.7c1.6,0.5,3.1,1,4.8,0.9c1.7,1,2.2,2.6,2.1,4.5C373.5,192.6,373.6,195.3,373,198z"
		/>
	<path class="st1" d="M107.8,352.9c0.8,2.7,0.9,5.5,1.9,8.2c2.3,6.1,5.6,11.3,11.8,14c1.4,0.6,1.8,1.5,1.7,2.9c-0.1,3,0,6,0,9
		c-9.3-3.6-13.1-11.3-15-20.4C107.3,362,107.9,357.4,107.8,352.9z"/>
	<path class="st1" d="M132.3,386.9c0-3.1,0-6.2,0-9.2c0-1,0.2-1.8,1.3-2.4c8.4-4,12.2-11.3,13.6-20.1c0.1-0.6,0-1.3,0.5-1.9
		c0.1,6.5,0.4,12.9-2,19.1C143.1,379.1,139.1,384.3,132.3,386.9z"/>
	<path class="st1" d="M456,361.4c1.7,5.5,5.8,8.7,10.5,11.3c2,1.1,3,2.8,3,5.3c-0.1,14.6,0,29.2,0,43.9c-0.3,0.4-0.6,0.5-1,0.5
		c0.7-1,0.5-2.1,0.5-3.1c0-10-0.1-20,0.1-30c0-2.8-1-4.5-3.2-5.9c-2.9-2-6.2-3.4-7.9-6.7C455.5,371.8,455.1,366.7,456,361.4z"/>
	<path class="st1" d="M478,386.9c0-2.8,0-5.6-0.1-8.4c-0.1-2.5,1.1-4.2,3-5.6c1.5-1,3-2,4.6-2.9c3.5-2.1,5-5.5,6.4-9.1
		c1,6.9,0.3,16.4-6.7,20.3C482.5,382.7,480.2,384.7,478,386.9z"/>
	<path class="st1" d="M234.2,183c-1,1.3-2,2.7-3,4c-3.6-3.8-6.3-8.3-8.4-13.1c-3-6.6-4.7-13.6-4-21
		C220.8,164.5,227.2,173.9,234.2,183z"/>
	<path class="st1" d="M373.1,190c-0.7-1.5-1.4-3-2.1-4.5c2.6-4.7,5.1-9.5,7.7-14.2c3.6-6.4,5.6-13.3,6.7-20.4
		c0.7,10.7-1.9,20.5-7.2,29.8C376.5,183.7,374.8,186.9,373.1,190z"/>
	<path class="st1" d="M353.1,88.4c-1.8-1.1-3.5-2.1-5.6-3.4c3.3-2.7,6.6-5.1,8.9-8.5c2.9,0.2,2.8,0.4,2,3.1
		C357.3,83,355,85.6,353.1,88.4z"/>
	<path class="st4" d="M392.5,462.1c2.9,0.1,5.8,0.2,8.7,0.2c1.4,0,2.1,0.5,2.3,1.9c0.4,2.2,0.6,4.4,0,6.7c-2.9,4.5-7.3,6.1-12.4,6.1
		c-36.8,0-73.6,0-110.4,0c-23.2,0-46.4,0-69.7,0c-4.5,0-8.4-1.6-11.4-5.2c-1.2-2.4-1-4.9-0.5-7.5c0.3-1.4,0.9-1.9,2.3-1.9
		c2.9,0,5.8-0.1,8.7-0.1c1.4-1,3-0.7,4.6-0.7c42.8,0,85.6,0,128.4,0c15.1,0,30.1,0,45.2,0C389.8,461.3,391.3,461.2,392.5,462.1z"/>
	<path class="st10" d="M308.5,371.4c3.9,0.7,7.8,1.3,11.6,2c5.1,1,10.1,2.6,14.9,4.5c1.4,0.9,2.5,1.9,3.2,3.4
		c6.8,14.1,7.5,28.3-0.4,42.1c-7.4,13-19,20.4-33.8,22.7c-2.6,0.4-5.3,0.6-8,0.6c-26.6,0-53.3,0-79.9,0c-1.6,0-3.2,0.3-4.5-0.9
		c-0.3-3.2,1-6.1,1.8-9.1c4.1-13.9,11.1-26.1,21.1-36.6c0.2-0.2,0.4-0.5,0.6-0.8c0.7-2.2,2.6-3.5,4.2-4.8c2.8-2.4,5.2-5.3,8.9-6.6
		c6.2-3.8,12.4-7.6,19.3-10.2c8-3.1,16.2-5.2,24.8-5.9c1.4-0.1,1.9-0.6,1.8-2c-0.1-2.8-0.1-5.6-0.2-8.5c1.5,0,1.3,1.2,1.5,2.1
		c0.2,1.5,0.2,3,0.1,4.5c-0.1,1.9,0.8,2.5,2.5,2.4c2.4-0.1,4.8,0,7.2,0C306.4,370.5,307.6,370.4,308.5,371.4z"/>
	<path class="st5" d="M211.7,445.9c28.6,0,57.3,0.2,85.9-0.1c14.6-0.1,26.6-6,35.9-17.5c6.8-8.4,9.7-18.1,9-28.8
		c-0.5-7.8-2.8-15.2-7.4-21.6c7.9,2.7,14.7,7.2,21.5,11.9c1.1-0.4,1.7,0.5,2.4,1c3.4,2.9,6.8,5.9,9.7,9.3c0.4,0.5,0.9,1,0.9,1.7
		c8.1,9.4,14.3,19.9,18.3,31.6c3.1,9.2,4.8,18.7,4.7,28.5c-4.2,0.1-8.5,0.2-12.7,0.2c-55.7,0-111.4,0-167.1,0
		c-0.8,0-1.7-0.1-2.5-0.2C210.1,456.6,210.9,451.2,211.7,445.9z"/>
	<path class="st0" d="M308.5,371.4c-4,0-7.9,0-11.9,0.1c-1.5,0-2.1-0.5-2-2c0.1-1.9,0-3.8,0-5.7c0-0.8,0.3-1.7-0.6-2.3
		c-9,0.8-14.2-8.4-10.1-15.5c1.9-3.2,4.7-5,8.3-5c6.1-0.1,12.1-0.1,18.2,0c5.4,0.1,9.6,4.5,9.8,10c0.1,5.7-3.8,10.2-9.4,10.5
		c-1.9,0.1-2.4,0.8-2.3,2.5C308.7,366.4,308.5,368.9,308.5,371.4z"/>
	<path class="st7" d="M369.5,401.9c-4.1-4.2-8.3-8.4-13-12c0-10.6-0.1-21.1,0.1-31.7c0.1-6.1,1.1-12,4.7-17.3c0.7-1.1,1.5-2,2.4-2.9
		c1-1.1,2.2-1.4,3.6-0.7c1.6,0.7,2.1,1.9,1.7,3.4c-0.4,1.8-1.1,3.5-1.4,5.3c-1.1,5.1-0.7,10.3,0.1,15.4c0.7,4.5,0.3,9.1,0.8,13.7
		c0.9,7.6,1.1,15.4,1.5,23.1C370,399.3,370.5,400.7,369.5,401.9z"/>
	<path class="st7" d="M248.2,388c-4.5,3.6-9,7.3-13.1,11.4c-1-1.4-0.6-3.1-0.4-4.6c1-9.2,1.6-18.3,2-27.5c0.2-5.5,1-11.1,1.4-16.6
		c0.2-2.5-0.9-4.9-1.5-7.3c-0.5-2.1-2.4-4.5,0.7-6.1c1.9-1,3.3-0.1,5.5,3.1c3.2,4.8,5,10.1,4.8,15.9c-0.1,5.9-0.1,11.8,0,17.7
		C247.8,378.7,248,383.3,248.2,388z"/>
	<path class="st4" d="M327.1,197.8c0,2.7-2.1,4.7-4.7,4.7c-2.6,0-4.8-2.2-4.7-4.8c0-2.6,2.3-4.7,4.8-4.7
		C325.1,193,327.1,195.2,327.1,197.8z"/>
	<path class="st4" d="M277,197.7c0-2.6,2.2-4.7,4.7-4.7c2.5,0.1,4.8,2.4,4.7,4.8c-0.1,2.6-2.2,4.7-4.8,4.6
		C278.9,202.4,277,200.4,277,197.7z"/>
	<path class="st0" d="M288.1,406.8c0.4,9.1-7,14.4-14.2,14.5c-7.8,0.1-14.3-5.9-14.5-14.8c-0.1-6.5,6.7-14.4,14.6-14.3
		C280.6,392.3,289.1,398.9,288.1,406.8z"/>
</g>
</svg>
