<?xml version="1.0" encoding="utf-8"?>
<!-- Generator: Adobe Illustrator 26.0.1, SVG Export Plug-In . SVG Version: 6.00 Build 0)  -->
<svg version="1.1" id="Layer_1" xmlns="http://www.w3.org/2000/svg" xmlns:xlink="http://www.w3.org/1999/xlink" x="0px" y="0px"
	 viewBox="0 0 74.7 65.7" style="enable-background:new 0 0 74.7 65.7;" xml:space="preserve">
<style type="text/css">
	.st0{fill:#95E078;}
	.st1{fill:#CA4D40;}
</style>
<path class="st0" d="M74,9.8c0,2.4-0.9,4.1-2.2,5.6C68,20,64.1,24.5,60.2,29.1c-3,3.6-6,7.1-9,10.7c-3.5,4.1-6.9,8.2-10.4,12.3
	c-2.8,3.3-5.6,6.7-8.4,10c-1.3,1.5-3,2.3-5,2.6c-2.5,0.3-4.6-0.6-6.5-2.2c-5-4.2-10-8.4-15.1-12.6c-1.1-0.9-2.3-1.8-3.1-3
	c-1.9-2.7-2-6.3-0.1-9c1.2-1.8,2.5-3.5,4.3-4.7c3-2,6.7-1.8,9.5,0.5c2.8,2.3,5.5,4.6,8.3,6.9c0.7,0.6,0.9,0.5,1.5-0.1
	c4.9-5.8,9.8-11.7,14.7-17.5c4.4-5.2,8.7-10.4,13.1-15.6c1.4-1.7,2.8-3.4,4.3-5c2.9-3,7.2-3.3,10.6-0.8c1.2,0.9,2.4,1.8,3.4,3
	C73.5,6.3,74,8.1,74,9.8z"/>
<path class="st1" d="M200,51.4c0-2.8,1.3-5.1,3.2-7.1c3.9-3.9,7.8-7.8,11.7-11.6c1.1-1.1,1.1-1.2,0-2.3c-4-4-8-7.9-12-11.9
	c-2.8-2.8-3.8-6.1-2.4-9.9c2.3-6,9.7-8.3,15-3.2c3.9,3.8,7.7,7.7,11.6,11.6c1.7,1.7,1.7,1.8,3.4,0c3.7-3.7,7.4-7.4,11.1-11.1
	c2.1-2.1,4.5-3.3,7.5-3.2c3.9,0.2,6.6,2.2,8.1,5.7c1.4,3.2,0.6,7.2-1.9,9.6c-4.2,4.2-8.4,8.4-12.6,12.6c-0.9,0.9-0.9,1.1,0,1.9
	c4.1,4.1,8.2,8.2,12.3,12.2c3,2.9,3.6,6.4,2.1,10.1c-1.5,3.8-4.5,5.4-8.3,5.7c-2.4,0.1-4.4-0.8-6.1-2.4c-4.1-3.9-8-7.9-12-11.9
	c-1.7-1.8-1.7-1.8-3.4-0.1c-3.9,3.9-7.8,7.8-11.7,11.7c-5.1,5-13.5,2.7-15.3-4.2C200,52.9,199.9,52.1,200,51.4z"/>
</svg>
