<?xml version="1.0" encoding="utf-8"?>
<!-- Generator: Adobe Illustrator 26.0.1, SVG Export Plug-In . SVG Version: 6.00 Build 0)  -->
<svg version="1.1" id="Layer_1" xmlns="http://www.w3.org/2000/svg" xmlns:xlink="http://www.w3.org/1999/xlink" x="0px" y="0px"
	 viewBox="0 0 615.7 593" style="enable-background:new 0 0 615.7 593;" xml:space="preserve">
<style type="text/css">
	.st0{fill:#FDFDFD;}
	.st1{fill:#FEFEFE;}
	.st2{fill:#E4E4E4;}
	.st3{fill:#95E078;}
	.st4{fill:#CA4D40;}
</style>
<path class="st0" d="M739.7,36c0-8.7,0-17.3,0-26c0-1.2,0.3-1.7,1.5-1.5c0.3,0.1,0.7,0,1,0c184.4,0,368.7,0,553.1-0.1
	c2.1,0,2.4,0.5,2.4,2.5c-0.1,190.3-0.1,380.7,0,571c0,1.9-0.3,2.5-2.4,2.5c-182.2-0.1-364.4-0.1-546.6-0.1c-0.7-0.7-0.7-1.7-0.7-2.6
	c0-1.2,0-2.3,0-3.5c0-119.2,0-238.4,0-357.5c0-60.4,0-120.8,0.1-181.3c0-8.7,0.1-17.5,0.2-24.6c0,5.1,0,11.8,0,18.5
	c0,2.8-0.3,3.2-3.2,3.2C743.3,36.7,741.4,37.2,739.7,36z"/>
<path class="st1" d="M747.7,584.4c-2.3,0-4.7,0-7,0c-0.9,0-1.2-0.1-1-1c0.1-0.4,0-0.8,0-1.2c0-122.1,0-244.2,0-366.4
	c2.3-1.3,4.7-0.7,7.1-0.5c1,0.1,1.4,0.8,1.4,1.8c0,0.8,0,1.7,0,2.5c0,120.4,0,240.8,0,361.2C748.2,582,748.5,583.3,747.7,584.4z"/>
<path class="st1" d="M739.7,214.8c0-59.3,0-118.5,0-177.8c2.3-1,4.7-0.4,7.1-0.4c0.9,0,1.3,0.7,1.3,1.5c0.1,0.8,0,1.7,0,2.5
	c0,56.9,0,113.7,0,170.6c0,0.7,0,1.3,0,2c0,1.5-0.6,2.2-2.1,2.1C744,215.1,741.8,215.8,739.7,214.8z"/>
<path class="st2" d="M739.7,214.8c2.1,0,4.2,0,6.2,0c1.3,0,1.9-0.4,1.8-1.7c0-0.5,0-1,0-1.5c0-57.1,0-114.3,0-171.4
	c0-3.2,0-3.2-3.3-3.2c-1.6,0-3.2,0-4.7,0c0-0.3,0-0.7,0-1c1.9,0,3.8-0.1,5.7,0c1.7,0.1,2.3-0.5,2.3-2.3c-0.1-7.4,0-14.8,0-22.2
	c0-0.7-0.2-1.5,1-2.2c0,191.7,0,383.3,0,575c-0.3,0-0.7,0-1,0c0-121.6,0-243.3,0-364.9c0-4.2,0.5-3.7-3.7-3.7c-1.4,0-2.8,0-4.2,0
	C739.7,215.5,739.7,215.2,739.7,214.8z"/>
<path class="st3" d="M451.8,206.9c0.2,9.4-3.7,16.2-8.8,22.3c-15.2,18.2-30.5,36.3-45.8,54.4c-11.9,14.1-23.7,28.3-35.6,42.4
	c-13.7,16.3-27.4,32.5-41.1,48.8c-11.1,13.2-22,26.5-33.1,39.6c-5.2,6.1-12,9.2-19.9,10.1c-9.9,1.1-18.2-2.3-25.6-8.6
	c-19.8-16.8-39.7-33.4-59.6-50c-4.4-3.7-9.1-7-12.4-11.8c-7.6-10.7-7.9-24.8-0.5-35.5c4.8-6.9,9.8-13.7,17-18.4
	c11.9-7.9,26.5-7.2,37.5,1.9c11,9.1,21.8,18.3,32.7,27.4c2.7,2.3,3.7,2.2,6-0.5c19.3-23.1,38.6-46.2,58-69.2
	c17.3-20.6,34.6-41.1,51.9-61.6c5.6-6.7,11-13.6,17-19.9c11.5-12.1,28.5-13.2,41.8-3.1c4.8,3.6,9.5,7.2,13.4,11.9
	C449.7,193,451.8,200.1,451.8,206.9z"/>
<path class="st4" d="M883.5,205.8c0.1-8.4,3.7-15.2,9.6-21c11.5-11.4,23-22.9,34.5-34.4c3.2-3.2,3.2-3.7,0.1-6.8
	c-11.8-11.8-23.7-23.4-35.3-35.3c-8.1-8.3-11.3-18.1-7-29.3c6.8-17.7,28.8-24.4,44.4-9.4c11.6,11.2,22.9,22.8,34.3,34.2
	c5.1,5.1,5,5.2,10.1,0c10.9-11,21.9-21.9,32.8-32.9c6.1-6.1,13.3-9.8,22-9.4c11.4,0.5,19.4,6.5,23.8,16.9c4.1,9.6,1.7,21.2-5.5,28.4
	c-12.4,12.4-24.8,24.8-37.2,37.3c-2.5,2.5-2.6,3.2,0,5.7c12.1,12.1,24.1,24.2,36.2,36.1c8.8,8.7,10.5,18.8,6.2,30
	c-4.3,11.1-13.2,16.1-24.7,16.7c-7,0.4-13-2.4-18.1-7.2c-12-11.5-23.7-23.3-35.3-35.3c-5.1-5.3-5-5.4-10.2-0.2
	c-11.5,11.5-23,23.1-34.6,34.6c-15,14.8-39.8,8-45.2-12.4C883.8,210.1,883.5,208,883.5,205.8z"/>
</svg>
