<svg id="Layer_1" data-name="Layer 1" xmlns="http://www.w3.org/2000/svg" viewBox="0 0 114.01 106.22"><defs><style>.cls-1{fill:#fdfdfd;}</style></defs><path class="cls-1" d="M135.48,112.88c2.9,2,7.79,3.94,10.77,7.47,14.77,17.45,29,21.3,45.07,1.19,8.17-10.21,17.86-11.73,28.42-1.34,11.21,11,6.62,19.68-3,27.59-14,11.48-17.85,22.39-1.63,35.44,10.47,8.41,17,18.08,3.27,30.17-11.8,10.36-20.95,5.15-28.49-4.07-15.15-18.54-28.28-15-42.15,1.34-8.45,10-17.86,11.76-28.54,1.48-11.65-11.2-6.12-20.14,3.31-27.52,17.75-13.91,13.87-25.61-1.43-38.19-6.68-5.48-12.81-12.64-5.32-22C120.36,118.7,125.28,113.07,135.48,112.88Z" transform="translate(-112.29 -112.88)"/></svg>