<?xml version="1.0" encoding="utf-8"?>
<!-- Generator: Adobe Illustrator 26.0.1, SVG Export Plug-In . SVG Version: 6.00 Build 0)  -->
<svg version="1.1" id="Layer_1" xmlns="http://www.w3.org/2000/svg" xmlns:xlink="http://www.w3.org/1999/xlink" x="0px" y="0px"
	 viewBox="0 0 615.7 593" style="enable-background:new 0 0 615.7 593;" xml:space="preserve">
<style type="text/css">
	.st0{fill:#FCFCFC;}
	.st1{fill:#F7E8B4;}
	.st2{fill:#E4F3F9;}
	.st3{fill:#E4D0B8;}
	.st4{fill:#52E26D;}
	.st5{fill:#E5D0B8;}
	.st6{fill:#040403;}
	.st7{fill:#010101;}
	.st8{fill:#FAFFFD;}
	.st9{fill:#DAA08D;}
</style>
<circle class="st0" cx="307.9" cy="296.5" r="294.5"/>
<path d="M301.2,467.9c-21.1,0-42.3,0-63.4,0c-19.6,0-34.7-13.5-37.2-33c-0.9-7.5-0.8-15.1-0.6-22.7c0-1.1,0.1-2.2,0.1-3.2
	c0-3.9-1.3-5.2-5.3-5.2c-3.4,0-6.8,0.2-10.2,0.2c-8.9,0-17.8,0.2-26.7-0.3c-13.3-0.8-20.9-8.4-21.7-21.6c-0.2-4.2-0.3-8.3-0.3-12.5
	c0-27.6,0-55.3,0-82.9c0-4.9-0.1-9.8,0.7-14.7c1.6-9.5,7.4-15.8,17-17c9.2-1.2,18.6-1.6,27.9-1.2c6.6,0.3,9.2,3.3,9.1,10
	c-0.1,4.1-0.6,8.3-1.1,12.4c-0.2,2.1-0.1,4.2,0.1,6.2c0.4,3.1,2.1,4.2,6.2,4c3.1-0.2,4.3-1.3,4.3-4.5c0-13.7-0.1-27.5,0-41.2
	c0.1-12.1,3.1-23.3,11-32.9c2.1-2.6,4.5-4.9,7.1-7c3-2.5,3.2-3.3,1.5-6.8c-2.9-5.9-5.1-11.9-4.7-18.6c0.3-4.5,2.1-8.3,5.8-11.1
	c5.1-4,10.4-7.8,15-12.4c3.7-3.8,6.8-8,8.6-13c0.8-2,2-2.7,4-2.6c26.1,0.6,52.1,0.1,78.2,0.3c8.3,0,16.6-0.1,25-0.2
	c5-0.1,8.4,2,10.5,6.5c1.7,3.6,3.2,7.3,5.7,10.5c2.4,3.1,5.5,5.4,9.3,6.3c5.4,1.3,8.4,4.8,10.1,9.7c2.7,8.2,1.9,16-2.4,23.5
	c-2.3,4-2.2,5.2,1.3,8.1c12.4,10.4,17.7,23.9,17.7,39.8c0,12.6,0.4,25.1-0.2,37.7c-0.1,1.1,0.1,2.3,0.3,3.5c0.4,2.7,2,4.2,4.7,4.3
	c4.3,0.1,8.6-0.1,13-0.1c9.3,0,18.7-0.5,27.9,0.6c10.4,1.2,17.5,8.6,18.1,19c0.6,10.7,0.4,21.5,0.4,32.2c0,25.5,0.3,50.9-0.4,76.4
	c-0.4,12.9-8,20.5-21,21.2c-4.4,0.2-8.8,0.2-13.2,0c-5.2-0.2-7.3-2-7.9-7.1c-0.7-5.5-0.8-11.1-0.2-16.7c0-0.4,0.1-0.8,0.2-1.2
	c0.4-4.6-0.4-5.8-4.9-6.6c-5-0.9-10-0.2-14.9,0.3c-1.9,0.2-2,1.9-2,3.5c0,8.8,0.3,17.6-0.5,26.4c-1.9,19.8-17,33.7-36.9,33.7
	C344.5,468,322.8,467.9,301.2,467.9z"/>
<path class="st1" d="M291,393.3c-17.2,0-34.5,0-51.7,0c-1.1,0-2.2,0-3.2-0.1c-2.7-0.3-3.8-1.5-3.7-4.3c0-0.9,0.2-1.8,0.1-2.7
	c-0.2-2-1.3-3.2-3.3-3.5c-1.1-0.2-2.2-0.2-3.2-0.1c-3.1,0.2-4.4,1.7-4.2,4.9c0.3,4.4-0.8,5.8-5.2,5.8c-18.9,0-37.8,0-56.7-0.1
	c-3.2,0-6.2-0.8-9-2.5c-1.5-1-2.7-2.2-3-4.1c-0.5-2.7,1-4.7,3.7-4.3c5.7,0.7,11.5,0.2,17.2,0.3c11.7,0.1,23.5,0.1,35.2,0.1
	c6,0,7.6-1.9,7.5-7.9c-0.4-18.9-0.6-37.8,0.1-56.7c0-0.4,0-0.8,0-1.2c0.1-7.2-2.7-10.3-9.9-9.8c-15.9,1-31.8-0.1-47.7,0.4
	c-7.2,0.3-7.8-4.5-6.5-10.7c0.3-1.3,1.6-1.9,2.8-1.4c4.2,1.8,8.5,1.1,12.8,1.2c17.4,0.1,34.8,0.1,52.2,0.1c5.8,0,6.9,1.2,6.6,6.9
	c-0.1,2.5,0.7,3.4,3.3,3.6c0.7,0.1,1.5,0.1,2.2,0.1c4.5,0,5.2-0.8,4.8-5.3c-0.3-3.5,1.3-5.2,5-5.2c6.8-0.1,13.7,0,20.5,0
	c28.7,0,57.4,0,86.2,0c0.9,0,1.8,0,2.7,0.1c2.3,0.3,3.6,1.6,3.6,4c0,0.7-0.1,1.5-0.1,2.2s0,1.4,0.2,2c0.6,2.2,3.2,2.9,7.4,2.1
	c2.1-0.4,3.2-1.6,3.1-3.8c0-0.4-0.1-0.8-0.2-1.2c-0.4-3.6,1.1-5.3,4.8-5.4c5.1-0.1,10.2,0,15.2,0c20.5,0,41,0,61.4,0
	c2.8,0,5.5,0.1,8.1,1c4.3,1.5,6.3,4.8,6.3,10.2c-0.1,4.8-2.1,7.9-6.4,9.3c-4.2,1.4-8.6,1.1-12.9,1.4c-2.3,0.2-4.6,0.4-6.9,1
	c-2.8,0.8-4.3,2.6-4.8,5.4c-0.6,3.3-0.5,6.6-0.5,10c0,16.7,0,33.5,0.1,50.2c0,1.1,0,2.2-0.1,3.2c-0.3,2.9-1.7,4.3-4.6,4.8
	c-2.5,0.5-5,0-7.5,0c-14.8,0-29.6,0-44.4,0c-1.1,0-2.2,0-3.2-0.1c-3.6-0.3-4.9-1.8-4.6-5.3c0.2-2,0.4-3.9-1.8-4.9
	c-1.9-0.9-6.5-0.6-7.7,0.6c-1,1-1.1,2.2-1,3.5c0.3,5-0.8,6.2-5.9,6.2C326.4,393.3,308.7,393.3,291,393.3z"/>
<path class="st2" d="M302.3,286.3c-26.2,0.1-52.4-0.3-78.7,0.1c-1.8,0-3.7,0.1-5.5,0c-5.4-0.3-7.1-2.2-7.1-7.5
	c0-12.4,0.1-24.8,0.1-37.2c0-2.2,0.1-4.3,0.3-6.5c1.5-20.2,15.9-34.1,36.1-34.3c28.4-0.3,56.8-0.1,85.2-0.2c8,0,16-0.2,24,0.2
	c13.3,0.6,23.8,6.1,30.7,17.8c3.2,5.6,4.8,11.7,5,18.1c0.4,14.3-0.2,28.6,0.2,42.9c0.1,4.8-1.5,6.5-6.4,6.5
	c-6.7,0.1-13.3-0.1-20-0.1C344.9,286.2,323.6,286.3,302.3,286.3z"/>
<path class="st2" d="M304.5,404c18.1,0,36.1,0,54.2,0c8,0,16-0.2,24-0.2c1.7,0,3.3,0,5,0.2c3.8,0.5,5.4,2.3,5.1,6
	c-0.6,6.8,0,13.6-0.3,20.5c-0.3,6-1.7,11.7-5.2,16.6c-4.7,6.6-11.5,9.8-19.4,10c-15.2,0.4-30.5,0.5-45.7,0.5
	c-28,0.1-55.9,0.1-83.9-0.4c-15.5-0.2-25.3-9.1-26.7-24.5c-0.6-6.7-0.8-13.5,0-20.2c0.6-4.8,2.9-7,7.6-7.9c4.6-0.8,9.3-0.7,13.9-0.7
	C256.9,403.9,280.7,403.9,304.5,404C304.5,403.9,304.5,404,304.5,404z"/>
<path class="st3" d="M435.3,377.9c0.2-13.7,0.3-27.5,0-41.2c0-0.7,0-1.5,0-2.2c0.2-3.9,2.2-5.9,6.1-5.6c3.6,0.3,6.9-0.2,10.3-1
	c3.2-0.8,4.5,0.2,4.8,3.5c0.1,1.3,0,2.7,0,4c-0.1,25.9-0.3,51.8-0.1,77.6c0.1,9.3-9.7,15.1-17.4,12.6c-2.3-0.7-3.9-1.9-3.9-4.7
	C435.4,406.5,435.3,392.2,435.3,377.9z"/>
<path class="st4" d="M301.7,157.3c-17.2,0-34.4,0-51.7,0.1c-2.2,0-2.6-0.5-2.1-2.6c1.5-5.4,5.3-7.9,12.3-7.8
	c21,0.5,41.9,0.2,62.9,0.3c7.7,0,15.5-0.6,23.2-0.1c5.4,0.4,7.9,2.8,9.3,7.8c0.5,1.9,0,2.2-1.8,2.2
	C336.5,157.3,319.1,157.3,301.7,157.3z"/>
<path class="st5" d="M163.9,264.8c3.2-0.2,6.5,0,9.7,1.1c4.1,1.4,6.3,4.4,6.5,8.8c0.1,3.3-0.7,6.4-1.6,9.5c-0.7,2.2-2.6,2.3-4.4,2.5
	c-4.1,0.3-8.2,0-12.2-0.7c-2.7-0.4-5.4-1-8-1.7c-4.9-1.4-6.8-3.9-6.8-8.8c0-4.6,2.8-8.6,7.1-9.8
	C157.2,264.9,160.5,264.9,163.9,264.8z"/>
<path class="st4" d="M301.5,168.2c1.8,0,3-0.1,4.1,0c5.8,0.4,8.2,3.3,7.2,9.1c-0.2,1.5-0.2,2.9,0,4.4c0.9,4.9-0.9,7.3-5.8,8.3
	c-3,0.6-6.1,0.6-9.2,0.4c-3.6-0.3-5.6-2-6.5-5.5c-0.9-3.4-1.1-6.9-0.6-10.4c0.5-3.3,2.4-5.2,5.7-5.7
	C298.3,168.4,300.2,168.3,301.5,168.2z"/>
<path class="st4" d="M365.3,168c9.9,0.5,13.7,5.7,11.4,15.6c-0.7,3.1-2.5,5.1-5.7,5.9c-3.3,0.8-6.7,1.1-10.1,0.8
	c-3.8-0.3-5.8-2.5-5.9-6.4c-0.1-3,0.2-6.1,0-9.2c-0.3-3.8,1.6-5.8,5.4-6.4C362,168.2,363.7,168.1,365.3,168z"/>
<path class="st4" d="M280.6,179.4c-0.1,8.9-2.2,11-11.1,11.1c-0.6,0-1.2,0-1.7,0c-7.4-0.3-9.8-3.2-8.6-10.5c0.3-1.5-0.3-2.8-0.4-4.2
	c-0.3-4.3,0.9-6.2,5.1-7.1c3.2-0.7,6.4-1.1,9.6-0.6c4.2,0.6,5.8,2.1,6.5,6.3C280.5,176,280.5,177.7,280.6,179.4z"/>
<path class="st4" d="M238.4,168.1c0.9,0,1.5,0,2.2,0c6.7,0.2,8.9,2.8,7.9,9.5c-0.3,1.8,0.1,3.6,0.1,5.5c0,4.9-2,7-6.8,7.3
	c-2.4,0.1-4.8,0-7.2-0.4c-5.6-1-7.9-3.6-8.1-9.3c0-0.9,0-1.8,0-2.7c0.3-6.4,2.9-9.1,9.3-9.6C236.8,168.2,237.7,168.2,238.4,168.1z"
	/>
<path class="st4" d="M344.7,179.2c0.4,8.6-1.6,10.8-10.2,11.2c-1.3,0.1-2.7,0.1-4,0c-5.4-0.4-7.9-3.3-7.2-8.8
	c0.2-1.9,0.2-3.7-0.1-5.7c-0.7-4.1,0.8-6.2,5-7.1c2.8-0.6,5.6-0.8,8.4-0.8c5.3,0,7.6,2.3,8,7.5C344.5,176.7,344.6,177.9,344.7,179.2
	z"/>
<path class="st6" d="M390.3,350.7c4.8,0,9.7-0.2,14.5,0c5.8,0.2,8.3,2.5,9,8c0.7,5.7,0.9,11.5,0.5,17.2c-0.3,4.8-2.7,7.3-7.3,6.9
	c-7.9-0.7-15.8,0.3-23.7-0.6c-2.4-0.3-4.8-0.6-7.1-1.5c-3.8-1.4-5.9-4.2-6.4-8.2c-0.7-6.4,0.3-12.8,1.5-19.1
	c0.4-2.5,2.3-3.1,4.4-3.1c4.8,0,9.7,0,14.5,0C390.3,350.5,390.3,350.6,390.3,350.7z"/>
<path class="st6" d="M414.5,326.4c0,2.8,0.3,5.6-0.5,8.4s-2.6,4.5-5.5,5c-3.8,0.7-7.5-0.1-11.2-0.3c-5.8-0.3-11.6,0-17.4,0.4
	c-1.3,0.1-2.6,0.1-4-0.1c-3-0.6-4.9-2.1-4.8-5.1c0.3-6.5-0.3-13,0.7-19.4c0.8-5,2.9-7.1,7.8-7.5c9-0.8,17.9-0.9,26.9,0
	c4.3,0.4,6.1,2.2,7,6.5C414.3,318.3,414.4,322.4,414.5,326.4z"/>
<path class="st7" d="M247.6,348.4c0-5.3,0-10.6,0-16c0-1.4,0.4-1.8,1.8-1.8c7,0.1,14,0.1,21,0c1.8,0,1.7,0.8,1.8,2.1
	c0,1.4-0.1,2.1-1.8,2c-5.3-0.1-10.6,0-16-0.1c-1.5,0-2,0.4-1.9,1.9c0.1,2.5,0.1,5,0,7.5c-0.1,1.6,0.6,1.9,2,1.9
	c4.7-0.1,9.5,0,14.2-0.1c1.4,0,2.3,0.1,2.3,2s-0.7,2.2-2.4,2.1c-4.7-0.1-9.3,0.1-14-0.1c-1.8-0.1-2.3,0.5-2.2,2.2
	c0.1,2.7,0.2,5.3,0,8c-0.1,1.9,0.6,2.1,2.3,2.1c5.2-0.1,10.5,0.1,15.7-0.1c1.8,0,1.9,0.7,2,2.2c0.1,1.7-0.6,1.9-2,1.9
	c-7-0.1-14-0.1-21,0c-1.4,0-1.8-0.4-1.8-1.8C247.6,359.1,247.6,353.8,247.6,348.4z"/>
<path d="M308.4,348.3c0-5.2,0.1-10.5,0-15.7c0-1.5,0.4-2,1.9-1.9c4.7,0.1,9.5,0,14.2,0.1c3.9,0.1,7.3,1.2,9.1,4.9
	c1.9,4.1,1.8,8.3-0.6,12.1c-1.9,2.9-4.9,3.8-8.2,3.9c-3.3,0.1-6.6,0.1-10,0c-1.4,0-1.8,0.4-1.8,1.8c0.1,3.7-0.1,7.3,0.1,11
	c0.1,2.1-1.1,1.8-2.3,1.7c-1.1,0-2.5,0.5-2.4-1.7C308.5,359.1,308.4,353.7,308.4,348.3z"/>
<path d="M289.3,344.5c2.5-3.7,5-7,7-10.6c1.7-3.1,3.9-3.8,7.3-2.9c-3.3,4.8-6.4,9.6-9.7,14.2c-1.5,2-1.6,3.4,0,5.5
	c3.7,4.9,7,10.1,10.7,15.5c-1.6,0-2.8-0.1-4,0c-1.3,0.1-2.1-0.4-2.8-1.5c-2.7-4.4-5.6-8.6-8.6-13.1c-2.6,3.9-5.4,7.5-7.6,11.5
	c-1.7,3.2-4,3.6-7.3,2.9c3.6-5.4,7.1-10.7,10.8-15.9c1-1.5,1.2-2.5,0.1-4c-3.5-4.9-6.7-9.9-10.1-14.8c4-1.2,5.2-0.7,7.3,2.5
	C284.6,337.2,286.8,340.8,289.3,344.5z"/>
<path class="st8" d="M381.9,243.8c0,2.2,0.1,4.5,0,6.7c-0.1,2.6-1.1,3.5-3.7,3.7c-0.5,0-1,0-1.5,0c-4.7-0.1-5.2-0.6-5.3-5.4
	c-0.1-4.5-0.3-9-0.9-13.4c-1.1-8.2-4.9-11.8-13.1-12.7c-3.9-0.4-7.8-0.4-11.7-0.5c-5.3-0.1-7-2.3-6.2-7.5c0.3-1.9,1.2-3.1,3.2-3.3
	c8-0.9,16-0.8,23.5,2.4c10.8,4.6,15.1,13.4,15.7,24.5C382,240.2,381.9,242,381.9,243.8L381.9,243.8z"/>
<path class="st8" d="M381.9,270.2c0,4.5-1.1,5.6-5.3,5.5c-4-0.1-5.6-1.7-5.5-5.7s1.6-5.3,5.8-5.3C381.1,264.8,382,265.8,381.9,270.2
	z"/>
<path class="st9" d="M377.6,366.7c0-6.7,2.4-8.9,9.1-7.7c4.3,0.8,8.5,0.7,12.7-0.1c5.9-1.1,8.2,1,8.5,6.8c0.4,7-1.8,9.1-8.7,8.5
	c-4.5-0.4-8.9-0.4-13.4,0C379.5,374.8,377.6,373.1,377.6,366.7z"/>
<path class="st9" d="M399.5,330.3c-4.8,0.8-9.6,0.1-14.5,0.3c-5.7,0.3-7.7-2-7.7-8.1c0-6.4,2.1-8.8,8-8.1c5.2,0.6,10.2,0.4,15.2-0.1
	c3.1-0.3,5.6,0.6,6.8,3.6c1.5,3.6,1,9.2-1.1,11.2C404.3,330.8,401.9,330.1,399.5,330.3z"/>
<path class="st1" d="M313,340.7c0.2-1.7-0.9-4.3,0.4-5.6c1.3-1.3,3.9-0.4,6-0.4c2.2,0,4.5-0.3,6.7,0.5c2.7,0.9,4,2.8,4,5.9
	c0,3.3-1.2,5.4-4,6.1c-4,1.1-8.1,0.3-12.1,0.5c-1.1,0.1-0.9-0.8-0.9-1.4C313,344.6,313,342.8,313,340.7z"/>
<path class="st9" d="M193.2,375.2h-37.7c-4.6,0-8.4-3.8-8.4-8.4v-42.9c0-4.6,3.8-8.4,8.4-8.4h37.7c4.6,0,8.4,3.8,8.4,8.4v42.9
	C201.7,371.4,197.9,375.2,193.2,375.2z"/>
</svg>
