<?xml version="1.0" encoding="utf-8"?>
<!-- Generator: Adobe Illustrator 26.0.1, SVG Export Plug-In . SVG Version: 6.00 Build 0)  -->
<svg version="1.1" id="Layer_1" xmlns="http://www.w3.org/2000/svg" xmlns:xlink="http://www.w3.org/1999/xlink" x="0px" y="0px"
	 viewBox="0 0 615.7 593" style="enable-background:new 0 0 615.7 593;" xml:space="preserve">
<style type="text/css">
	.st0{fill:#FCFCFC;}
	.st1{fill:#CFD59D;}
	.st2{fill:#D0D59D;}
	.st3{fill:#D0D69E;}
	.st4{fill:#D0D69F;}
	.st5{fill:#D1D69F;}
	.st6{fill:#D3D8A4;}
	.st7{fill:#D2D7A2;}
	.st8{fill:#D2D8A3;}
	.st9{fill:#D4D9A7;}
	.st10{fill:#D4D9A5;}
	.st11{fill:#E1E0E5;}
	.st12{fill:#50596C;}
	.st13{fill:#9CA686;}
	.st14{fill:#50596B;}
	.st15{fill:#4F576A;}
	.st16{fill:#495162;}
	.st17{fill:#4C5466;}
	.st18{fill:#DCE2CE;}
	.st19{fill:#D7DEEA;}
	.st20{fill:#BDBDC9;}
</style>
<g id="aGyFo6.tif">
	<g>
		<path class="st0" d="M313.5,567.5c-4.3,0-8.7,0.1-13,0c-12.3-0.4-24.6-1.7-36.8-3.8c-14.6-2.6-29-6.3-43-11.2
			c-17.1-6-33.5-13.7-49.1-23c-9-5.4-17.7-11.2-26-17.5c-7.7-5.9-15.1-12.2-22.2-18.8c-9.7-9.1-18.7-18.9-27-29.2
			c-9.1-11.2-17.1-23.3-24.2-35.8c-8.4-14.7-15.5-30.1-21-46.2c-4.5-13-8-26.3-10.5-39.8c-1.7-9.2-2.8-18.5-3.8-27.8
			c-0.4-3.2-0.5-6.5-0.6-9.7c-0.1-4-0.5-8-0.4-11.9c0.2-8.9,0.4-17.7,1.2-26.6c1.5-16.4,4.3-32.6,8.6-48.6
			c4-14.8,9.2-29.1,15.4-43.1c6.5-14.4,14.3-28.1,23.2-41.2c6.2-9.1,12.8-17.7,20.1-25.9c5.4-6.1,10.9-12.1,16.8-17.7
			c15.9-15.1,33.3-28.2,52.2-39.2c17.1-9.9,35.1-17.8,53.9-23.8c14.6-4.7,29.5-8.2,44.7-10.2c8.6-1.2,17.3-2,25.9-2.6
			c9.2-0.6,18.3-0.6,27.4-0.3c12.7,0.5,25.4,1.9,38,4.2c14.4,2.6,28.5,6.2,42.3,11c20.4,7.1,39.7,16.5,57.9,28.2
			c12.2,7.8,23.7,16.5,34.4,26.2c11.7,10.5,22.4,21.9,32.3,34.2c13.7,17.2,25.1,35.7,34.4,55.6c7,15,12.5,30.5,16.7,46.5
			c3,11.5,5.3,23.2,6.9,35c0.8,6.1,1.4,12.2,1.7,18.3c0.4,6.9,0.9,13.8,0.8,20.6c-0.3,13.2-1.1,26.4-3.2,39.6
			c-2.5,15.9-6.2,31.5-11.4,46.7c-6.3,18.4-14.4,35.9-24.4,52.5c-5.4,9-11.2,17.7-17.5,26c-5.7,7.6-12,14.8-18.5,21.8
			c-6.8,7.4-14,14.2-21.5,20.7c-11.7,10.1-24.1,19.2-37.4,27.2c-15,9.1-30.7,16.8-47.2,22.9c-13.5,5-27.2,8.9-41.4,11.6
			c-9.2,1.8-18.4,3-27.7,3.9C331.4,567.5,322.5,567.5,313.5,567.5z"/>
		<path d="M348.7,268.6c-0.9-2.1-2-4-2.3-6.3c-0.7-5.6,2.7-9.5,8.3-8.7c3.9,0.5,7.6,0.3,11.5-0.5c7.1-1.6,11.2,3.3,9.2,10.3
			c-0.4,1.3-0.8,2.7-1.6,3.9c-1.2,1.9-0.5,2.9,1.2,4c5.5,3.4,10.4,7.5,14.3,12.7c7.9,10.6,8.5,22.3,5.5,34.7
			c-0.8,3.5-2.2,6.8-3.9,9.9c-0.4,0.7-1.1,1.4-0.1,2.2c4.1,3.4,6.6,8.1,9.6,12.4c2.8,4,6.7,5.9,11.5,6.6c-1.9-5.5-0.9-9,3.4-11.7
			c-5.9-5.5-6.2-9.5-0.6-14.7c-1.1,0-1.8,0-2.6,0c-3.3-0.1-6-1.6-7.5-4.5c-4.1-8-4.7-23,4.5-31.5c9.4-8.7,24-7.7,32.9,2.1
			c2.4,2.6,4.3,5.5,5.6,8.8c2.1,5.6,0.4,10.4-4.9,13.3c-1.4,0.8-3,1.3-4.5,2c-0.8,0.3-1.5,0.6-1.2,1.8c0.3,0.9,0.5,1.6,1.8,1.6
			c2.5-0.1,5,0,7.5,0.5c4.2,0.7,6.7,3.8,6.8,8.3c0,4-2.3,6.9-6.4,7.7c-1.6,0.3-3.3,0.8-4.9,0.3c-1.2-0.3-1.7,0.1-1.8,1.2
			c-0.1,0.9-0.2,1.8-0.4,2.7c-0.8,3.4,0.1,5.8,3.3,7.7c5.4,3.2,6.7,7.3,4.5,11.9c-2.2,4.5-5.9,5.9-10.5,3.8
			c-0.6-0.3-1.4-1.5-2.2-0.1c-0.7,1.2,0.3,1.6,0.9,2.2c1.6,1.6,3.4,3.2,4.8,5c6.6,8.2,13.7,15.8,21.6,22.7c10.4,9.1,19,20,28,30.5
			c2.7,3.2,5.6,6.2,8.1,9.5c5.6,7.3,9.1,15.6,10.1,24.7c0.6,5.2-2.6,9.4-7.7,11.2c-4.6,1.6-9.4,1.9-14.3,2
			c-13.2,0.1-26.5,0.1-39.7,0.1c-103.4,0-206.8,0-310.3,0c-3.2,0-6.3-0.1-9.4-1c-5.8-1.6-8.1-6-6.4-11.7c0.6-1.9,1.3-3.8,2.4-5.4
			c5.8-8.5,8.5-18,9.8-28.1c1.9-14.2,9.2-25.1,21.7-32.3c7-4,11.8-10.1,16.6-16.3c1.7-2.1,4.5-4.3,4.6-6.5c0-2.1-2.9-4.2-4.5-6.3
			c-3.8-4.9-7.4-9.9-9-15.9c-2.9-10.8-0.2-19.9,8.4-27.1c4.7-3.9,10.1-6.5,16-7.6c7.7-1.5,14,1.1,19,7.2c4.9,5.9,9.9,11.6,13.9,18.2
			c4.8,7.9,14.3,7.7,21.2,5.5c1.6-0.5,2.5-1.9,3.2-3.3c4.7-8.5,11.5-14.1,21.1-16.4c9.8-2.4,18.9-6.6,28.4-9.9
			c5-1.8,10-3.5,15.3-4.5c2.5-0.5,4-1.7,4.8-4.3c2-5.8,4.7-11.3,8.3-16.4c6.2-8.8,14.6-14.4,24.9-17.2c0.6-0.1,1.1-0.3,1.7-0.4
			C348.2,268.9,348.4,268.7,348.7,268.6z"/>
		<path class="st1" d="M183.5,164.6c0.3-7.9,1.3-14.6,3.5-21.1c0.4-1.2,0.8-2.6,2.3-2.6c1.4,0,1.7,1.5,2.2,2.5
			c1.1,2.3,1.3,4.8,1.4,7.3c0.4,7.4,2.7,14.1,5.6,20.8c5.4,12.1,13.8,21.9,23.2,30.9c5.3,5.1,11,9.6,16.4,14.5
			c4.5,4.1,8.4,8.7,12.1,13.5c8.4,10.9,15.5,22.6,20,35.7c0.7,2.2,1.2,4.5,1.6,6.8c0.1,0.6,0.3,1.4-0.5,1.8c-0.8,0.4-1.5,0-2-0.6
			c-0.4-0.5-0.9-1-1.3-1.5c-6.9-11.6-15.8-21.6-25.5-30.8c-7.8-7.3-16.2-13.9-24.8-20.3c-5.4-4-11.2-7.5-15.9-12.4
			c-9.6-10-15.5-21.9-17.4-35.6C184.1,170.2,183.8,166.9,183.5,164.6z"/>
		<path class="st2" d="M321.3,117.7c3.1,10,7.6,18.5,12.1,27c4.8,9,9.8,17.9,13.3,27.6c3.9,10.8,5.4,21.8,3.4,33.2
			c-0.9,5-1.4,10-2.1,15c-0.2,1.3-0.7,2.7-2.3,2.9c-1.9,0.2-2.9-0.5-3.2-2.5c-0.6-3.6-0.4-7.3-0.8-10.9c-1.2-10.2-4.5-19.7-8.8-28.9
			c-3-6.3-6.7-12.2-10.4-18.2c-7.9-12.9-8.3-26.5-3.1-40.4C319.8,121,320.4,119.7,321.3,117.7z"/>
		<path class="st3" d="M253.1,302.7c-2.6-3.3-5.1-6.5-7.7-9.5c-7.3-8.5-14.7-16.8-25.1-21.7c-7.1-3.3-14.8-4.8-22.4-6.7
			c-3.8-1-7.7-1.8-11.9-2.8c1.3-1.6,2.8-2.1,4.3-2.7c7.5-2.7,15.2-2.9,23.1-2.1c5.8,0.6,11.5,1.8,16.8,4.2
			c12.6,5.6,20.2,15.4,23,28.7C254.2,294,254.6,298.3,253.1,302.7z"/>
		<path class="st4" d="M302.4,283.8c3.6-13.1,5.9-25.8,6.8-38.8c0.9-13.1-0.6-25.9-2.9-39.5c3.7,3.5,6.1,7,8.3,10.7
			c6.1,10.5,8.9,21.8,7.8,33.9c-1.2,13.4-6.4,24.8-18,32.6C303.9,283,303.3,283.3,302.4,283.8z"/>
		<path class="st5" d="M479,309.7c1.3,6.1,1.1,12-0.6,18c-2.2,7.7-5.8,14.8-9,22.2c-2.8,6.7-5.3,13.4-5.4,20.9
			c-1.9-3.1-2.9-6.5-3.2-10.1c-1-9.5,2.6-17.8,6.9-25.8c3.2-5.9,6.7-11.7,9-18C477.7,314.5,478.3,312.1,479,309.7z"/>
		<path class="st6" d="M149.5,299.4c0-4.6,1.7-6.7,5.5-6.6c3.8,0.1,7,3.3,6.8,6.8c-0.1,3.1-3.2,6.2-6.2,6.2
			C151.5,305.8,149.5,303.7,149.5,299.4z"/>
		<path class="st7" d="M474.6,285.8c-3.8,0-6.1-2.2-6.2-5.9c-0.1-3.8,2.3-6.1,6.2-6.1c3.8,0,6.1,2.3,6.2,6
			C480.8,283.6,478.5,285.9,474.6,285.8z"/>
		<path class="st8" d="M148,220.8c0-3.3,1.9-5,5.4-5c3.1,0,5.2,2,5.1,5.1c-0.1,3.1-2,5-5.3,5C149.6,225.9,148,224.4,148,220.8z"/>
		<path class="st8" d="M253,138c0,3.6-1.3,5-4.6,5c-3.5,0-5.4-1.8-5.4-5c0-3.2,2.1-5.1,5.7-5C251.7,133,253.1,134.6,253,138z"/>
		<path class="st9" d="M431.3,169.9c-2.9,0-4.5-1.5-4.4-4.4c0.1-3,2.3-5.5,5-5.5c2.5,0,5,2.4,5,4.9
			C436.9,168,434.8,169.9,431.3,169.9z"/>
		<path class="st10" d="M272,200c0-3.2,1.5-4.7,4.8-4.7c3.2,0,4.8,1.5,4.8,4.7c0,2.9-1.9,4.9-4.8,4.9
			C273.9,204.9,271.9,202.9,272,200z"/>
		<path class="st11" d="M419.3,453c-29.8,0-59.5,0-89.4,0c1.5-3.8,3.9-7,6.7-9.8c4.5-4.5,9.3-8.5,15-11.4c5.7-2.9,7-6.7,4.4-12.5
			c-3.9-8.9-12.4-12.6-23.1-9.9c-3.5,0.9-6.7,2.3-9.8,4.2c-1.8,1.1-3.6,2.1-5.8,1.3c-4.4-1.5-5.6-3.8-4.2-8.2
			c2.8-9.1-0.9-16.5-9.7-19.3c-3.8-1.2-7.1-0.4-10,2.1c-1.2,1-2.4,2.2-3.2,3.5c-3.2,4.9-7.8,6.7-13.5,6.4c-5.2-0.3-10.4-1-15.7-0.7
			c-14.5,0.8-27.6,4.7-38.2,15.3c-2.9,2.9-6.8,3.6-10.8,3.8c-6,0.3-11.7,1.3-17,4.2c-8.8,4.8-12.9,12.9-15,22.2
			c-0.3,1.2-0.5,2.5-1.4,3.4c-5.1,5.6-11.5,7.9-19,7.2c-1.5-0.1-2.2-0.8-2.2-2.6c0.3-15.2,8.4-26.6,22.8-31.4
			c6.7-2.3,11.2-6.3,13.8-13c2.4-6.4,6.7-11.8,10.9-17.2c1.9-2.4,3.2-2.4,5-0.1c2,2.7,4.4,5,6.6,7.5c1.7,2,2.5,4.2,2.2,6.9
			c-0.2,1.9,0.1,3.7,1.9,4.8c1.8,1.1,3.5,0.4,5.1-0.6c1.7-1.1,3.3-2.4,4.4-4.1c4.5-6.7,11.2-10.4,18.3-13.6c1.5-0.7,3-1.4,4.4-2.3
			c3.1-2,4-5.3,2.6-8.5c-1.5-3.4-4.1-4.6-7.9-3.8c-2.5,0.5-4.7,1.7-6.8,3.1c-2.5,1.7-3.2,1.5-4.9-0.8c-1.2-1.7-2.2-3.5-3.4-5.2
			c-1.3-1.8-0.6-2.6,1.3-3c1.8-0.4,3.5-1,5.3-1.3c6.7-1.2,10.7-5.2,12.4-11.7c0.4-1.4,0.8-2.9,1.3-4.3c3.4-9.2,10.4-13.9,19.7-15.5
			c3-0.5,6.1-0.9,9.2-1.1c4.5-0.2,8.6-1.9,12.4-4.2c3.3-2,6.6-3.8,10.2-5.1c9.5-3.3,18.3-2,26,4.4c4.2,3.5,8.7,4.4,13.9,3.8
			c18.8-2.4,33.7,4.3,44.1,20.1c4.5,6.9,10.2,11.1,18.2,12.6c2.8,0.5,5.4,1.6,8.1,2.4c10.5,3.3,16.4,10.5,17.9,21.4
			c0.6,3.9,0.7,7.9,1.7,11.8c2.5,10.4,8.6,18,17.8,23.2c7.4,4.1,14.1,8.8,18.7,16c1.7,2.7,3,5.5,4,8.6c0.5,1.5,0.2,2-1.4,1.9
			c-10.2-0.2-20.3-0.3-30.5-0.6c-3.4-0.1-5.9-2.5-8.1-5c-2.9-3.3-4.2-7.3-5.2-11.5c-3.7-16-14.3-24.7-29.8-28.2
			c-2.8-0.6-5.7-0.4-8.3,1c-1.7,0.9-2.9,2.3-2.9,4.3c0,2,1.2,3.4,3,4.3c1.3,0.6,2.8,1,4.2,1.5c11,3.6,17.2,11.6,20.7,22.2
			C417.6,445.3,418.5,449,419.3,453z"/>
		<path class="st12" d="M367.1,261.4c-0.7,1.5-1.2,2.6-1.6,3.6c-2.1,5.3-0.9,9.4,3.9,12.5c5,3.3,9.8,6.9,13.4,11.8
			c4.3,6,5.8,12.7,4.9,20.1c-0.6,5.6-2.1,10.8-4.7,15.9c-2.7,5-1.9,8,2.4,11.9c3.5,3.2,5.5,7.5,8.3,11.2c3.1,4,6.8,7,11.7,8.4
			c3.6,1,7.1,2.2,10.5,3.8c3.2,1.5,6.3,1.5,9.3-1.4c-1.2,4.1,0.3,6.9,3.1,9.3c3.7,3.2,6.9,7,9.9,10.9c4.8,6.4,10.8,11.5,16.7,16.8
			c11.9,10.7,21.4,23.4,32.1,35.2c5.9,6.6,9.8,13.9,11.8,22.4c0.8,3.4,0.1,4.6-3.3,5.4c-3.7,0.9-7.6,1.1-11.4,1.1
			c-55,0-109.9,0-164.9,0c-49.4,0-98.8,0-148.1,0c-1,0-2,0-3,0c3.5-1.4,6.9-2.7,10.1-4.8c3.9-2.5,6.3-5.9,7.4-10.5
			c1.8-7.9,5.2-14.7,13-18.5c4.6-2.3,9.5-2.9,14.5-3.1c5.8-0.3,10.8-2.2,15-6.4c6.8-6.7,15.3-10.1,24.6-11.7
			c7.9-1.4,15.7-0.9,23.6-0.2c7.7,0.7,14-2.2,18.5-8.6c1.6-2.3,3.4-4.4,6.7-3.6c4.6,1,7.8,5.8,6.7,10.4c-0.4,1.6-1,3.2-1.3,4.8
			c-1.8,8.8,8.8,14.6,15.2,12.5c2.1-0.7,3.8-2,5.7-3c4.7-2.4,9.5-3.8,14.9-2.8c4.2,0.8,8,4.7,8.8,8.9c0.4,1.9-0.9,2.6-2.1,3.2
			c-5.8,2.8-10.6,6.8-15.3,11.1c-5.5,5.1-9.4,11.4-11.6,18.6c-0.6,1.8-0.4,2.4,1.7,2.4c17.2-0.1,34.5,0,51.7,0c15.9,0,31.8,0,47.7,0
			c1.3,0,2.6,0.2,2.2-1.9c-1.6-7.9-3.1-15.8-6.6-23.2c-4.5-9.6-11.7-16.2-22-19.6c4.5-0.1,13,3.6,17.3,7.4c4.8,4.3,7.9,9.6,9.4,15.8
			c1,4.2,2.3,8.3,4.7,12c2.6,4.1,6.2,6.8,10.6,8.8c0.9,0.4,1.9,0.6,2.9,0.6c9.8,0.1,19.6,0.3,29.5,0.5c0.6,0,1.2,0,1.7,0
			c6-0.1,8.4-3.4,6.7-9.2c-2.6-8.7-8.1-15.6-15.1-21.3c-4.3-3.5-9.4-5.7-13.9-8.9c-7.5-5.4-11.3-12.8-12.2-21.9
			c-0.5-5.3-1.3-10.6-3.2-15.6c-3.8-9.8-11.7-14.7-21.2-17.7c-3.4-1.1-6.8-2-10.3-2.9c-4.5-1.1-7.6-3.7-10-7.6
			c-4.4-7.2-10.1-13.2-17.3-17.6c-7.3-4.5-15.3-6.9-23.9-6.9c-3.7,0-7.3-0.1-11,0.5c-2.9,0.5-5.4-0.5-7.6-2.3
			c-6.8-5.7-14.6-8.4-23.5-7.6c-5.5,0.5-10.7,2-15.3,5c-6.5,4.2-13.4,6-21.1,6.7c-8.2,0.7-15.7,3.5-21.4,10
			c-3.2,3.6-5.5,7.8-6.5,12.5c-1.3,5.8-4.5,9.2-10.5,9.9c-2,0.2-3.9,0.9-5.7,1.6c-4.1,1.6-5.4,4.9-3.5,8.9c1.4,3,3.2,5.8,5.4,8.4
			c3.3,3.8,6.5,4.3,10.8,1.8c1.4-0.8,2.7-1.9,4.4-2.4c1-0.3,2.3-1.1,2.9,0.2c0.6,1.3-0.9,1.7-1.8,2.2c-3.2,1.6-6.5,3-9.6,4.7
			c-4.9,2.6-9,6.3-12.4,10.7c-0.5,0.6-0.9,1.4-2,1.7c-0.9-7-6.7-10.8-10.7-15.8c-3.7-4.6-9.1-4.5-12.9,0.2
			c-4.8,5.9-9.5,12.1-12.2,19.3c-1.9,5-5.2,7.9-10.1,9.5c-10.5,3.4-18.2,10-23,20.1c-2.8,6-3.7,12.4-3.8,18.9
			c-0.1,3.4,2.8,4.5,5.8,5.9c-9.2,0-17.9,0.1-26.5-0.1c-3.5-0.1-3.7-0.7-1.9-3.9c2.7-4.9,5.7-9.6,7.7-14.8
			c2.2-5.9,2.9-12.1,3.9-18.2c1.7-10.5,6.8-19.1,16-24.5c8.6-5.1,15.1-12.1,21-19.9c1.3-1.7,2.6-3.4,4.1-5c2.3-2.6,3.2-5.6,2.1-9.1
			c2.2,2.3,4.3,4.6,6.7,6.6c4.7,3.9,10.2,6.3,15.8,8.4c6.7,2.5,12.1,6.3,15.6,12.8c1.9,3.5,5.2,4.1,8.2,2c3.1-2.1,3.5-5.5,1.1-8.7
			c-1-1.3-2.1-2.6-3.1-3.9c-4.1-5.6-6-11.9-5.5-18.7c0.3-4.7-1.1-8.7-3.9-12.3c-6.5-8.5-13-17.1-19.6-25.5c-4-5.2-9.3-6.4-15.5-3.6
			c-6.4,2.9-11.6,8.6-14.4,15.8c-0.4-2.6,0.2-4.9,1.5-7c4.2-7.1,10.7-10.7,18.7-11.7c3.3-0.4,6.1,0.8,8.2,3.3
			c4.7,5.6,9.8,10.9,13.5,17.2c5.2,8.8,13.2,12.5,23.3,11.6c1.9-0.2,3.8-0.2,5.7-0.6c4.6-1,8.1-3.4,10.3-7.6
			c3.7-6.9,9.1-11.2,16.9-13.1c10.8-2.7,21-7.5,31.5-11c3.8-1.2,7.6-2.4,11.5-3.3c5.5-1.2,8.8-4.3,10.7-9.6
			c3.3-9.8,8.5-18.4,17.6-24.1c3.8-2.4,8-3.7,12.3-4.7c6.2-1.5,8.1-5.6,5.6-11.5c-0.1-0.2-0.2-0.5-0.3-0.7c-0.2-0.7-1.2-1.5-0.5-2.2
			c0.5-0.6,1.4,0,2.1,0.1c1.5,0.3,3,0.3,4.5,0.1C363.7,262.4,365.1,261.9,367.1,261.4z"/>
		<path class="st13" d="M220.9,381.5c-4.8-4.2-10.5-6.6-16.4-8.7c-7.2-2.6-12.8-7.3-17.3-13.3c-4.5-6-7.9-12.7-11.8-19
			c-0.7-1.1-0.6-2.2,0-3.3c2.7-5.5,7-9.2,12.8-11.1c2.2-0.7,4.3,0,5.8,1.9c7,9.1,14,18.2,20.9,27.4c1.6,2.2,2.3,4.7,2.1,7.5
			C216.5,369.3,217.8,375.5,220.9,381.5z"/>
		<path class="st14" d="M427.8,315.2c-2.8-3.4-5.9-3-9.2-1.8c-6.9,2.5-7.2,2.3-8.4-5c-0.9-5.9,0.2-11.4,4.9-15.4
			c6.6-5.5,15.9-3.9,21.5,3.4c0.2,0.2,0.3,0.4,0.4,0.6c3.7,5.4,3.5,6.3-2.6,8.6C430.1,307.3,428.2,310.4,427.8,315.2z"/>
		<path class="st15" d="M423.9,345.9c2.8,0,4.6-1.3,6.5-3.3c0.6,3.1,2.1,5.4,4.1,7.5c-2.2,0.6-4.4,0.6-5.8,2.6
			C427.2,348.3,427.2,348.3,423.9,345.9z"/>
		<path class="st16" d="M178.6,356.8c-4-4.3-7.7-8.7-8.7-14.7C172.8,347,175.7,351.9,178.6,356.8z"/>
		<path class="st17" d="M426.7,326.6c1.4-1.7,2.3-3.5,2.8-5.8c1.1,1.2,1.9,2.5,3.5,3.3C430.9,325.5,428.8,325.9,426.7,326.6z"/>
		<path d="M294.6,455.2c-28.1,0-56.2,0-84.3,0c-2.5,0-5,0.3-7.4-0.1c-3.2-0.5-4.9-2.3-4.9-5.5c-0.2-10.5,6.4-19.4,15.9-21.3
			c1.6-0.3,3.3-0.3,5-0.4c4.9-0.5,9.3-2.2,13.7-4.4c4.3-2.2,8.7-4,13.6-4.5c6.6-0.7,12.1,1.4,17,5.5c2.6,2.2,4.8,4.8,6.9,7.6
			c3.6,4.9,8.5,7.4,14.7,7.6c4.8,0.1,9,1.9,13.2,4.2c0.3,0.2,0.5,0.4,0.8,0.6c2.8,2.3,4,5.3,3,7.8
			C300.7,454.9,299,455.8,294.6,455.2z"/>
		<path class="st18" d="M195.7,359.2c-2.1,0.1-3.4-1.3-4.7-2.4c-5-4.2-8.5-9.5-11.5-15.2c-1-1.8-0.5-3.4,1.3-4.5c1.7-1,3-0.3,4,1.2
			c4.2,5.7,8.3,11.3,12.6,17c0.7,0.9,0.8,1.7,0.3,2.7C197.2,359,196.5,359.4,195.7,359.2z"/>
		<path class="st19" d="M424.6,293.9c4,0,7.1,2,8.3,5.1c0.8,1.8,0.3,3-1.5,3.8c-4.1,1.9-8,3.9-11.9,6.1c-3.5,2-6.3,0.2-6.2-3.8
			C413.6,298.7,418.4,293.8,424.6,293.9z"/>
		<path class="st20" d="M246.6,423.5c9.6,0.1,14.5,4.6,18.8,10.2c2.5,3.3,5.2,6.2,8.9,8.1c2.8,1.4,5.7,2.2,8.8,2.3
			c3.9,0.1,7.5,1.4,11,3c0.7,0.3,1.4,0.9,2.1,1.4c0.7,0.5,1.3,1.3,0.9,2.1c-0.4,0.9-1.3,0.5-2,0.4c-18.2-1-36.4-0.2-54.6-0.4
			c-11.5-0.2-23,0-34.4,0.1c-3.6,0-3.9-0.3-3-3.9c0.4-1.7,0.9-3.4,1.5-5c2-5.8,6.3-8.9,12.4-9.1c6.6-0.3,12.6-2.4,18.4-5.4
			C239.4,425.2,243.7,423.4,246.6,423.5z"/>
	</g>
</g>
</svg>
