<?xml version="1.0" encoding="utf-8"?>
<!-- Generator: Adobe Illustrator 26.0.1, SVG Export Plug-In . SVG Version: 6.00 Build 0)  -->
<svg version="1.1" id="Layer_2" xmlns="http://www.w3.org/2000/svg" xmlns:xlink="http://www.w3.org/1999/xlink" x="0px" y="0px"
	 viewBox="0 0 615.7 593" style="enable-background:new 0 0 615.7 593;" xml:space="preserve">
<style type="text/css">
	.st0{fill:#FCFCFC;}
	.st1{fill:#E0A958;}
	.st2{fill:#B2908B;}
	.st3{fill:#8CD8E5;}
	.st4{fill:#42B771;}
</style>
<circle class="st0" cx="307.9" cy="296.5" r="294.5"/>
<g>
	<path d="M432.5,331.1c4.7,0.1,5.7,1,6.9,6.1c1,4.5,0.5,9.7,2.2,13.4c1.7,3.6,6.7,4.4,9.8,7.3c11.8,10.9,17.4,24.8,16.3,42.2
		c-0.1,2.2,0.4,2.9,2.1,3.8c12.9,6.7,19.4,18.2,19.7,34.4c0.1,5.8,0,11.6,0,17.4c0,6.4-2.3,9.6-7.7,11.2c-1.4,0.5-2.8,0.2-4.2,0.2
		c-85.4,0-170.8,0-256.1,0c-4.2-0.4-5.5-1.9-5.9-6.9c0.5-4.3,3-6.2,6.5-6.8c1.3-0.2,2.6-0.2,3.9-0.2c79.3,0,158.5,0,237.8,0
		c0.7,0,1.4,0,2.1,0c3.1,0.2,6.1,0.2,9.2,0.1c1.4,0,2.8-0.3,2.8-2.2c-0.1-6.9,1-13.8-0.9-20.5c-2-7.3-6.2-12.3-12.5-14.9
		c-7.4-3.2-9.3-6.6-8.3-15.8c2.2-20.8-11.7-37-27.5-38.3c-3.4-0.2-6.8,0-10.2,1c-5.1,1.5-9.2-0.3-12.7-4.8
		c-11-14.4-25.1-22.1-41.6-24.5c-0.5-0.1-0.9-0.1-1.4-0.1c-2.3-0.1-4,0.8-4.5,3.5c-0.6,2.7,0.5,4.6,2.6,5.5c5.6,2.3,8.6,7,10.4,13.4
		c1.6,5.8,3.6,11.4,5.4,17.2c0.9,2.9,2.4,5.1,4.8,6.8c6.2,4.6,10.9,10.8,13.9,18.5c1.2,2.9,2.6,4.2,5.5,4.6
		c12.3,1.5,21.2,11.5,22.9,25.2c0.3,2.6,0.4,5.1-0.3,7.6c-1,3.3-3.4,5.2-6.2,4.9c-3.1-0.3-5.2-2.6-5.7-6.2c-0.1-0.9-0.1-1.9-0.2-2.8
		c-0.5-9.2-6.5-15.2-14.4-14.5c-6.3,0.5-9.3-1.6-11.5-8.7c-3.4-10.8-9.5-18.5-19.5-20.8c-10.3-2.4-19.2,0.9-26,10.5
		c-5.5,7.7-7.9,8.7-16.2,5.4c-8.6-3.4-16.6,2.8-16.9,13.2c-0.1,3.9,0.1,7.8-0.1,11.8c-0.2,4.7-2.6,7.6-6.3,7.8
		c-3.4,0.1-6-3.1-6.2-7.8c-0.2-4.6-0.4-9.2,0-13.8c0.8-9.4,4.3-17.1,11.6-22c2.6-1.7,3.2-3.6,1.9-6.6c-0.8-1.8-1.1-3.8-1.8-5.7
		c-1.8-4.9-1.6-9.7,0.6-14.5c2-4.5,1.4-6.1-2.6-8.2c-0.8-0.4-1.6-0.6-2.2-1.2c-9.7-8.9-20.2-5.6-30.3-2.1
		c-8.5,2.9-13.7,9.9-21.4,16.7c-4.9,6.6-9.3,6.9-15.7,1.5c-9.9-8.4-21.1-8.4-30.4,0c-1.8,1.6-3.2,3.6-4.5,5.7
		c-2.4,3.8-5.6,5.6-9.7,5.5c-3.4,0-6.9-0.4-10.3,0.4c-10.9,2.6-18.1,10.3-21.8,22c-1.6,4.9-4.1,8.3-8.1,10.6
		c-7.9,4.5-11.9,12-11.8,22.2c0,3.4,0,6.8,0,10.1c0,4.2,0.3,4.6,4.1,4.6c14.5,0,29.1,0,43.6,0c3.3,0-7.8-0.2-4.5,0.1
		c4.5,0.3,6.4,2.4,7.4,7.6c-1.1,4.8-2,5.6-5.9,6c-20.6,0-26.9,0-47.5,0c-5.6-0.1-7.6-1.7-8.9-7.7c0-9.2,0-18.4,0-27.6
		c1.4-4.2,2.1-8.7,4.2-12.7c3-5.7,6.8-10.6,12-13.3c4.5-2.4,5.6-6.5,5.7-11.4c0.2-14.5,2.6-28.4,7.9-41.6c1.6-4,3.6-7.8,6.1-11.6
		c-3.6-2-7.2-3.8-10.2-6.6c-6.9-6.6-9.4-16.1-6.6-25c3.6-11.3,13.1-16.4,23.6-12.5c2.1,0.8,3.1,0.7,4.3-1.7
		c4.9-9.5,13.8-13.2,22.2-9.6c8.8,3.7,13.8,13.8,12.2,24.7c-0.6,4-1.7,7.9-3.5,11.4c-0.8,1.6-0.7,2.3,1,2.8
		c12-0.3,32.4,22.6,38.7,32.9c0.7,1.2,1.4,0.8,1.4-0.2c-0.2-10.8,20.6-24.2,48.1-19.8c-0.5-3.5-1.1-6.8-0.4-10.1
		c0.9-4.2,2.3-8.4,5.5-10.5c4-2.6,3.4-5.3,1.9-9c-1-2.5-1.8-5.3-2.4-8c-1.3-5.9,1.1-11.7,6-14c5-2.4,10.1-4.5,15.3-6.4
		c4.8-1.8,9.9,0.9,12.3,6.1c0.4,0.9,0.8,2,1.1,3c1.2,3.5,1.5,8.1,3.7,10.3c2.2,2.1,6.3-0.2,9.5,1.3c1.2,0.6,1.7-0.6,2.2-1.4
		c3.5-5.3,7.6-9.9,12.1-14.1c-2.3-2.8-4.8-5.4-6.8-8.3c-5.5-8.2-7.9-17.3-4.5-27.3c5.5-16.2,22.2-20.5,34.2-8.7c2.1,2,3,2.3,5.2,0.1
		c12.6-12.6,30.5-7,34.9,10.8c2.3,9.3-0.1,17.6-5.1,25c-2,3-4.5,5.5-6.8,8.4c6.6,6.1,12.1,13.3,16.6,21.4c2.4,4.3,2.2,6.2-0.8,10
		c-2.4,2.4-4.7,1.7-6.9-0.2c-1.4-1.2-2.3-3-3.3-4.6c-4.4-8.2-10.1-14.9-17.4-19.8c-9.1-6.1-18.2-6-27.2,0
		c-5.6,3.7-10.3,8.5-14.2,14.4c-1.3,2-1.8,3.7-0.7,5.9c0.6,1.2,0.9,2.5,1.2,3.8c0.6,2.3,1.9,3.1,4,3.2c19.6,1.5,36.3,10.2,50,26.2
		c2.2,2.6,4.4,3.8,7.5,2.6c1.2-0.5,2.6-0.5,3.9-0.5c0.5,0-0.1,0,0.4,0c5.3,0,5.3,0,4.3-6c-0.5-2.8-1.1-5.6,0.7-8.1
		C429.9,331.9,430.7,330.5,432.5,331.1z"/>
	<path d="M259.6,207c0,9.9-2.1,16.4-4.5,22.9c-2.7,7.3-6.4,14.2-7.2,22.2c-0.6,5.6,0.1,10.7,4,14.8c2.5,2.7,2.6,6,0.5,8.6
		c-2.1,2.6-5.3,2.7-7.9,0c-6.2-6.6-8-15-7.3-24.3c0.5-6.4,2.6-12.3,4.9-18.1c2.4-6.3,5.5-12.3,6.5-19.1c1-6.5,0.5-12.6-4.5-17.3
		c-2.4-2.3-2.5-5.8-0.8-8.3c1.8-2.6,5.1-3.1,7.6-0.8C257.2,193.2,259.5,200.9,259.6,207z"/>
	<path d="M378.7,136.7c-0.1,7.9-2.1,14.5-4.5,21c-2.5,6.5-5.7,12.7-6.9,19.8c-1.1,6.7-0.8,12.8,4,17.9c2.2,2.3,2,6.1,0,8.4
		c-1.9,2.2-5.1,2.5-7.4,0.2c-7-7.1-8.6-16.4-7.4-26.5c0.9-7.3,3.7-13.9,6.4-20.5c2.2-5.4,4.5-10.7,5-16.7c0.5-5.9-0.2-11.2-4.6-15.3
		c-2.5-2.3-2.7-5.6-0.9-8.3c1.8-2.7,5-3.3,7.6-1.1C376.2,121,378.3,128.8,378.7,136.7z"/>
	<path d="M296.5,212c0.1-7.7,2.1-14.2,4.5-20.5c2.7-7,6.2-13.7,7.2-21.4c0.8-6.3,0.2-12-4.6-16.5c-2.6-2.4-2.6-6-0.6-8.6
		c1.9-2.5,5.1-2.8,7.6-0.4c7.2,6.8,9.2,16,8.2,26.2c-0.8,7.6-3.7,14.4-6.4,21.3c-2,5-4.2,10-4.9,15.5c-0.8,6.2-0.3,11.8,4,16.3
		c2.3,2.5,2.2,5.9,0.3,8.3c-2,2.5-5.2,2.7-7.6,0.3C298.6,227,296.6,219.6,296.5,212z"/>
	<path class="st1" d="M432.5,331.1c-3.4,1.8-4.6,4.6-3.4,8.8c0.1,0.3,0.1,0.5,0.1,0.8c1.5,7.8,1.5,7.8-5.7,7.5c-0.9-1.1-1-2.4-1-3.8
		c0.4-10.1-1.9-19.5-5-28.8c-0.5-1.5-1.6-3.2-0.3-4.9c0.8,1.2,1.7,2.5,2.5,3.7c1.9,2.9,4.4,2.9,7.1,1.8
		C428.7,321.2,430.6,326.1,432.5,331.1z"/>
	<path class="st2" d="M215.5,460.8c-7.6,0.2-19.5,0.2-27,0.3c-1.3-5.2-3.3-6.4-8-6.4c-18.1,0-21.8-0.1-39.9,0.1c-3.2,0-4-1-3.8-4.5
		c0.3-4.3,0-8.6,0.1-13c0.2-9.9,4.2-17.4,12-21.7c4.2-2.3,6.6-5.5,8-10.5c4-14.4,15.6-23.6,29.1-22.7c6.2,0.4,10.4-1.4,14.2-7.2
		c7.8-11.8,22.9-13.8,33.4-5.2c0.7,0.6,1.3,1.2,2,1.7c5.2,4.7,9.1,4.4,13.4-1.4c7.8-17.7,16.4-22.6,30.1-22.3c0.4,0,0.9,0,1.3,0.1
		c4,0.4,9.6,1.4,14.4,1.9c1.8,0.2,3.4,0.8,4.6,2.7c1.3,2,3.4,2.8,5.4,3.6c4,1.6,5.2,4.9,3,8.8c-2.8,4.9-2.8,9.8-0.8,15
		c1.1,3.1,2.9,6.4,2.7,9.5c-0.3,3.1-4.2,3.5-6.3,5.7c-4.5,4.7-7.5,10.3-8.1,17.1c-0.5,5.6-0.4,11.3-0.2,17c0.1,3.4,2.2,5.3,5.2,5.5
		c2.8,0.2,5.1-2.4,5.3-5.9c0.2-4,0-8.1,0.1-12.2c0.1-12,9.5-19,19.2-14.4c6,2.8,9.3,1.8,13.2-4.2c6.7-10.1,15.6-14.5,26.4-12.5
		c10.8,2,18,9.5,21.4,21.5c2,6.9,4.6,8.9,11.1,8.3c8.3-0.7,14.8,5.9,15.1,15.3c0,0.7,0,1.4,0,2c0.2,3.9,2.1,6.3,5.1,6.4
		c3.1,0.1,5.3-2.5,5.5-6.5c0.8-15.5-9.8-29-23.2-29.4c-2.7-0.1-3.8-1-4.8-3.8c-3-8.8-8.3-15.6-15.5-20.4c-1.5-1-2.5-2.3-3.1-4.2
		c-2.3-7.5-4.8-14.9-7.1-22.5c-1.4-4.7-4.1-7.7-8.2-9.3c-4.4-1.7-5.3-5.3-2.8-9.8c1.1-1.9,2.5-1.8,4-1.7
		c17.3,1.5,31.9,9.5,43.5,24.1c3.9,5,8.1,7.1,13.8,5.1c3-1.1,6-1.1,9.1-0.7c6.8,3.6,10.8,10.2,14,17.5c3.1,7.3,4,15.2,3.1,23.3
		c-0.4,3.4,0.5,5.2,3.3,6.4c11,4.9,17.3,13.9,18.4,27.6c0.4,4.9,0.5,9.7,0.5,14.5c0,1.6,0.1,3.3-1,4.6c-1.5,0.1-3.1,0.2-4.6,0.2
		c-79.4,0-158.8,0-238.1,0C218.7,454.8,216.5,455.9,215.5,460.8z"/>
	<path class="st1" d="M417.2,310.7c1.4,4.8,2.7,9.6,4.1,14.4c2.2,7.5,2.3,15.3,2.1,23c-6,2.5-10,0-14.5-5.1
		c-13.1-14.7-29.3-22.2-47.7-23.2c-1.9-0.1-2.9-0.8-3.6-2.9c-3-9.1-3.1-9,2.8-16.2c3.8-4.7,8.1-8.6,13.1-11.5
		c8.1-4.5,16.2-4.5,24.1,0.2C406,294.4,412.4,301.7,417.2,310.7z"/>
	<path class="st3" d="M354.7,373.5c-9.9,2.3-18.4,7.4-24.6,16.8c-0.6,1-1.2,0.7-2.1,0.6c-5.3-0.8-8.4-3.7-9.6-10
		c-0.8-4.4-2.2-8-0.1-12.8c3.7-8.7-0.5-18.9-8.6-22.5c-2-0.9-3.2-2.1-4-4.5c-4.2-13.6-4.2-13.8,7.7-18.7c6.6-2.7,13.3-5.4,19.9-8.1
		c2-1.1,3.1,0.3,3.9,2.1c2.1,4.5,3.6,9.3,4.8,14.3c0.6,2.4-0.3,4.5-1.2,6.5c-3.2,7.4-1.5,13.3,5.3,16.7c3,1.5,5,3.9,6,7.5
		c0.7,2.6,1.5,5.1,2.4,7.6C355.1,370.4,355.7,371.9,354.7,373.5z"/>
	<path class="st4" d="M160.3,378.9c2.5-16.4,7.3-31.3,20.5-40.5c5.2-3.6,11-3.7,16.8-2.9c9,1.2,23.1,9.7,29.2,17.6
		c-3.8,0.6-7.3-0.6-10.9-0.1c-10.2,1.3-18.4,6.3-24.8,15.4c-0.8,1.2-1.6,2.2-3.2,2C178,369.4,168.9,372.4,160.3,378.9z"/>
	<path class="st1" d="M357.9,258.5c0-9.9,8.4-15.4,15.6-10.8c1.8,1.1,3.2,2.7,4.6,4.4c4.7,5.9,10.1,5.9,14.9-0.1
		c1.4-1.8,2.9-3.5,4.9-4.6c3.8-2.1,7.5-2.2,11,0.8c3.3,2.9,4.8,6.8,4.2,11.7c-1.1,7.9-6.2,12.4-10.9,17.3c-0.9,0.9-1.7,0.3-2.6-0.1
		c-9.3-4.3-18.6-4.4-27.9,0.1c-0.8,0.4-1.5,1-2.3,0.2C363.8,272.2,358.3,267,357.9,258.5z"/>
	<path class="st2" d="M466.8,454.6c-0.1-9.4,0.7-18.9-2.2-27.9c-2.7-8.4-7.9-14.2-15.2-17.4c-5.1-2.3-5.1-2.1-4.7-8.4
		c1.1-16.3-4-29.4-15.6-39.2c-0.3-0.2-0.4-0.6-0.7-0.9c16.6,0.5,30.9,19.6,28.7,38.2c-1.3,10.6-0.3,12.1,8.2,16.1
		c8.3,3.9,12.8,11.2,13.4,21.4c0.3,5.1,0,10.3,0.1,15.4c0.1,2.2-0.5,3.2-2.6,3.1C473.1,454.6,469.9,454.6,466.8,454.6z"/>
	<path class="st4" d="M197.1,308.3c-0.3,4.5-2.9,8.9-5.1,13.6c-0.5,1.1-1.5,1.1-2.5,1.2c-6.3,0.3-12,2.9-17.1,6.9
		c-1.5,1.2-2.8,1.5-4.5,0.6c-3.8-1.9-7.8-3.2-10.6-7c-2.9-3.9-3.3-8-1.1-11.9c2-3.5,5.6-4.6,9.8-3c10.6,4.1,10.6,4.1,16.1-6.6
		c2.2-4.4,5.5-6.2,9.1-5C195.1,298.5,197.3,302.2,197.1,308.3z"/>
	<path class="st3" d="M354.7,373.5c-0.8-5.1-2.8-9.7-4.3-14.5c-0.6-2.1-2.4-3.3-4.2-4.1c-7.6-3.4-9.8-10.4-5.9-18.4
		c1.1-2.3,1.6-4.6,0.7-7.3c-1.4-4.1-2.6-8.4-4.3-12.4c-0.7-1.6-1.5-2.7-3.2-2.6c1.4-0.7,2.8-1.4,4.2-2c4.3-1.6,6.9-0.2,8.7,4.7
		c0.4,1.1,0.7,2.3,1.2,3.4c1.5,3.7,1.6,6.9-0.1,10.9c-3.9,9,0.2,19.6,8.6,23.2c2.2,0.9,3.2,2.3,3.8,4.6c1.4,4.7,2.9,9.3,4.6,14.4
		C360.8,373.5,357.7,373.5,354.7,373.5z"/>
	<path class="st3" d="M321,291.8c0.7-0.3,1.1,0.1,1.4,0.8c0.1,0.4,0.2,0.8,0.4,1.1c3.8,10.2,3.8,10.2-5.3,14
		c-1.1,0.5-2.2,0.9-3.3,1.4c-1.5,0.8-2.2,0.2-2.9-1.5c-3.8-10.1-3.8-10.1,5.1-13.8C318,293.1,319.5,292.4,321,291.8z"/>
</g>
<path d="M438.7,335l-9.6,4.9c-2.4-9.4-5.7-18.5-10.3-27.2l9.5-5.2C432.9,315.2,436.3,324.5,438.7,335z"/>
<rect x="196.5" y="435.8" transform="matrix(-1.836970e-16 1 -1 -1.836970e-16 663.5516 258.3391)" width="12.3" height="50.4"/>
</svg>
