<?xml version="1.0" encoding="utf-8"?>
<!-- Generator: Adobe Illustrator 26.0.1, SVG Export Plug-In . SVG Version: 6.00 Build 0)  -->
<svg version="1.1" id="Layer_1" xmlns="http://www.w3.org/2000/svg" xmlns:xlink="http://www.w3.org/1999/xlink" x="0px" y="0px"
	 viewBox="0 0 615.7 593" style="enable-background:new 0 0 615.7 593;" xml:space="preserve">
<style type="text/css">
	.st0{fill:#FCFCFC;}
	.st1{fill:#F6E9CF;}
	.st2{fill:#D0D0D0;}
	.st3{fill:#FFF27B;}
	.st4{fill:#FC9D83;}
	.st5{fill:#E1E0E5;}
	.st6{fill:#EDD8B6;}
	.st7{fill:#F3E6CD;}
	.st8{fill:#63A1CC;}
	.st9{fill:#F9F9F9;}
	.st10{fill:#E2CDAD;}
	.st11{fill:#FDFFBB;}
	.st12{fill:#190D0E;}
</style>
<circle class="st0" cx="307.9" cy="296.5" r="294.5"/>
<path d="M166.7,425.2c-2.2-1.9-2.1-4.4-2-7.2c-0.5-15.6-0.6-31.8-0.6-47.7c0-24,0.1-47.9,0.2-71.9c0-2.1,0.2-4.2-0.3-6.2
	c-0.5-2.4-1.9-3.9-4.4-4c-2.8-0.1-5.7,0.2-8.5-0.1c-10.6-1.4-18-8.6-19.6-20.2c-1.6-11.1-1-22.1,3.6-32.5c1.4-3.2,3-6.4,5.4-8.9
	c6.8-7.4,11.7-16.1,17.1-24.4c2.7-4.2,5.7-7.5,10.9-8.7c5.6-1.3,8.6-5.5,9.3-11.3c0.6-4.8-0.1-9.6-0.1-14.5c0-4.7,0-9.3,0.4-14
	c0.8-9.8,4.6-13.6,14.5-14.1c10.4-0.5,20.8-0.1,31.2-0.1c25.1,0,50.1,0.1,75.2,0.1c36.8,0,73.6,0,110.4,0c2.5,0,5,0,7.5,0.4
	c7.1,1.1,10.7,4.8,11.6,11.9c0.9,7.1,0.4,14.3,0.4,21.4c0,1.7,0,3.5,0,5.2c0.2,7.1,3.5,12.4,9.9,15.2c7.1,3.2,11.8,8.4,15.5,14.9
	c3.9,6.9,7.9,13.6,12.9,19.8c5.9,7.2,8.2,15.9,8.6,25c0.3,5.9,0.3,11.8-1.3,17.6c-3.2,11.7-12.2,18-24.4,17.2c-0.5,0-1-0.1-1.5-0.1
	c-4.4-0.1-5.7,1.1-5.9,5.4c-0.1,2.7,0,5.5,0,8.2c0,22.5,0,44.9,0,67.4c0,2,0.1,4,0.1,6c0,2.9-1,5.3-3.5,7c-2.9,1.1-5.6-0.2-6.9-3.1
	c-0.8-1.9-0.8-3.9-0.8-5.9c0-27.9,0-55.7,0-83.6c0-1.3,0.1-2.7-0.3-4c-0.3-1.2-1-1.7-2.2-1c-1.3,0.7-2.6,1.4-4,2
	c-8.7,3.8-17,3.4-24.7-2.4c-0.5-0.4-0.9-0.7-1.4-1.1c-2.4-1.8-3-1.9-5.5,0c-4,3.1-8.3,5.2-13.3,5.9c-5.3,0.8-10.1-0.5-14.5-3.3
	c-6.2-4-6.6-4.8-13.5-0.1c-7,4.8-14.6,5-22.2,1c-1.5-0.8-2.9-1.6-4.3-2.6c-2.7-2-5.4-1.9-8.1,0c-0.8,0.6-1.7,1.1-2.5,1.7
	c-8,5.1-17.3,4.9-25.1-0.6c-5.5-3.9-5.5-3.9-10.9-0.2c-9.3,6.2-18.3,6-27.4-0.5c-3.9-2.8-5-3-8.7-0.2c-9.9,7.4-20.6,6.3-30-0.7
	c-3-2.2-3.3-2.3-6.1-0.1c-9.1,7.4-18.7,7.1-28.7,2c-3.3-1.7-3.7-1.5-3.8,2.2c-0.1,2.4,0.1,4.8,0.5,7.2c-0.8,15.4-0.3,30.8-0.4,46.1
	c-0.1,24.9,0,49.7,0,74.6c0,2.2,0,4.3-0.8,6.4C173,425.2,169.9,426.4,166.7,425.2z"/>
<path class="st1" d="M166.7,425.2c5.9-0.1,7.5-1.8,7.5-8c0-36.1,0-72.2,0-108.3c0-4.9-0.1-9.8,0.6-14.7c0.9-0.8,2-0.7,3.1-0.7
	c11,0,22-0.4,33,0.1c17.7,0.8,35.4,0.4,53.2,0.3c8.5,0,17-0.4,25.4-0.4c20.8,0,40.2,4.9,58.1,15.5c14.6,8.6,26.7,20,36.4,34
	c5.7,8.2,10.4,17,14.1,26.3c0.8,2.1,2.1,4,2.7,6.2c0.7,2.3,0.5,4.5-1.7,6c-0.9,0.4-1.8,0.3-2.6-0.2c-2.6-1.8-5.4-3.5-7.3-6.1
	c-0.3-1.9-0.6-3.7-3.3-3.7c-3.6-0.1-5.2,0.6-6.1,3.3c-0.5,0.5-1,0.7-1.7,0.7c-1.8-0.8-3.4-0.8-4.2,1.5c-0.2,0.5-0.7,0.9-1.2,0.8
	c-2.9-0.2-3.1,1.8-3.3,3.9c-2.4,2.9-3.7,6.4-5.1,9.8c-0.8,1.1-2.3,0.7-3.3,1.4c-1.7,1.2-3.3,2.4-3.8,4.5c-0.2,0.1-0.4,0.2-0.7,0.3
	c-0.2,0-0.6,0-0.7-0.1c-1.7-1.9-3.4-2-5,0.1c-0.2,0.3-0.7,0.3-1.1,0.4c-2.9,0.2-5.8,0.1-8.6,0.1c-1.7,0-3-0.5-4.5-1.5
	c-1.8-1.3-4,0-5.9,0.5c-2.5,0.6-2.9,2.6-2.9,4.8c-1.5,3.8-0.9,7.6,0.5,11.3c0.3,0.8,0.7,1.7,0.8,2.6c0,0.3,0-0.1,0,0.2
	c-0.4,3.9-0.4,3.9,3.6,4.4c2.8,1.5,5.6,2.8,8.8,3.1c2.2,0.4,4.3,0.2,6.5,0.1c7.9,0,15.7,0,23.6,0c1.1,0,2.2,0,3.2,0.4
	c0.3,0.1,0.7,0.3,0.7,0.6c0.2,2,1.6,3.1,3.1,4c0.4,0.8,0.4,1.6,0.4,2.4c0,12.1,0.1,24.2,0,36.3c0,2-0.3,4-2.5,5
	c-1.8-0.2-2.1-1.9-2.7-3.1c-1-2.1-2.3-3-4.5-3c-1-0.3-1.8-1-2.3-1.9c-0.3-1.6-1.3-2.2-2.9-1.8c-1.7,0.4-2.3,1.5-2.1,3.1
	c0.1,0.7,0.5,1.2,0.5,1.9c-1.2,5.2-3.8,6.8-8.6,5.4c-0.2-0.2-0.4-0.4-0.3-0.6c0.4-2.2-0.5-3.7-2.2-4.9c-0.4-4.7-0.9-9.4-0.5-14.1
	c0.3-3-0.2-6,0.4-8.9c2-2.3,2.2-3.8,0.9-6.1c-1.7-2.8-2.4-3.1-5.9-2.4c-1.2,0.2-2.4-0.2-3.5-0.5c-1.9-0.5-3.7-0.4-5.6,0
	c-1.1,0.2-2.3,0.2-3.4,0c-3.3-0.5-6.6-0.5-9.9,0c-1.5,0.2-2.9,0.4-4.3-0.1c-0.2-0.1-0.5-0.2-0.6-0.4c-0.6-2.1-2-3.3-4-4.2
	c-0.5-0.9-0.6-1.9-0.6-2.9c0.4-18.7,0.1-37.4,0.1-56.1c0-4.2-1.2-5.3-5.8-5.7c-0.5-0.1-0.9-0.2-1.3-0.6c-0.6-0.5-1.2-0.5-1.8,0
	c-0.6,0.6-1.2,1.2-0.7,2.1c0.3,0.7,0.5,1.4,0.6,2.1c0.1,1.3,0.1,2.6,0.1,3.8c0,31.5,0,63,0,94.5c-0.7,4.5-3.4,6.6-7.8,5.9
	c-3.1-0.5-6.2,0.2-9.2-0.6c-1.6-2.5-4-4.6-3.9-8c0.1-1.6-0.1-3.2,0.2-4.8c1.4-2.3,0.2-5.5-2.4-6.5c-1-0.4-1.5,0.3-2.2,0.7
	c-0.7,0.2-1.2-0.1-1.6-0.6c-0.2-2.2-2.6-1.9-3.6-3.2c-0.4-0.8-0.5-1.8-0.5-2.7c0-21.6-0.1-43.2,0-64.8c0.8-2.1,0.6-3.8-1.2-5.5
	c-1.4-1.3-1.2-3.9-3.3-5c-0.4-0.8-0.4-1.5,0-2.3c2.8-2.4,2.9-5.7,2.8-9c2.5-5.2,2.6-10.6,1.8-16.2c-0.2-1-0.1-2-0.1-3
	c0-3.3,0.3-6.6-0.2-9.9c-0.8-6-4.9-8-10.2-8.6c-5.7-0.4-11.3-0.2-17-0.1c-7.9,0-15.9,0.1-23.8,0c-6.2-0.2-12.3,0-18.5-0.1
	c-0.7,0-1.3,0.2-1.9,0.3c-1.1,0.3-2.3,0.4-3.4,0.7c-3.9,1.1-6.3,3.6-6.8,7.7c-0.3,2.8-0.7,5.6-0.7,8.5c0,32.5,0,64.9,0,97.4
	c0,3.2,0,6.3,0.4,9.5c0.4,3.5-0.4,5.1-3.6,6.2c-5,1.8-6.7,5.6-6.7,10.5c0,1.8,0.1,3.7-0.1,5.5c-0.3,2.4-1.6,3.5-4,3.5
	c-2.3,0-3.9-1.2-4.3-3.4c-0.2-0.9-0.1-1.8-0.1-2.7c0-5.7-0.1-11.3,0-17c0.1-4.7-0.1-9.1-5.3-11.2
	C169.1,434.3,169.4,429.5,166.7,425.2z"/>
<path d="M275.1,342.3c-0.2,2.5-0.2,4.9,0,7.3c0.2,4.2,0.1,8.2-1.9,12c-0.4,1.4-1,2.5-2.7,2.5c-4.2-1-5.9-3-6-7.4
	c-0.2-5.2,0-10.5-0.1-15.7c0-1.1,0-2.2-0.1-3.2c-0.4-2.4-1.6-3.5-4-3.7c-0.7-0.1-1.3-0.1-2-0.1c-16.7,0-33.5,0-50.2,0
	c-0.4,0-0.8,0-1.2,0c-3.1,0.1-4.1,1.2-4.3,4.3c-0.1,1.1,0,2.2,0,3.2c0,29.6,0,59.3,0,88.9c0,3.4,0.1,6.8-0.4,10.2
	c-0.2,1.4-0.1,2.8-0.1,4.2c0.2,6.5,2,8.1,8.5,7.5c1.2-0.1,2.5-0.1,3.7-0.1c11.7,0,23.3,0,35,0c2.5,0,5,0.5,7.5,0.5
	c5.8,0,7.6-1.8,7.6-7.6c0-19.5,0-38.9,0-58.4c0-1.4-0.1-2.8,0.2-4.2c0.7-2.9,2.1-5.2,5.3-5.9c3.5,0.6,4.7,1.9,5.2,5.6
	c0,21.6-0.1,43.2-0.1,64.8c0,1.4-0.3,2.8,0.7,4c1.1,0.6,2,1.5,2.9,2.4c0.4,0.4,0.9,0.7,1.5,0.5c3.2,0.3,5.1,2.3,5,5.5
	c0,1.8,0,3.5,0,5.3c-0.8,3.3,0.9,5.5,3,7.6c3.9,0.6,7.8,0.2,11.8,0.5c2.8,0.2,4.3-2.1,4.8-4.8c0.4-0.8,0.2-1.6,0.2-2.4
	c0-30.2,0-60.4,0-90.6c0-0.9,0.1-1.8-0.2-2.7c0-1.2,0-2.4,0-3.6c0.2-1.8,0.2-3.9,3-3.7c5.7-0.6,7.5,1.2,7.5,7
	c-0.1,17.5-0.1,35.1-0.2,52.6c0,2-0.3,4,0.3,5.9c1.1,1.4,2.2,3,3.9,3.9c1.5,0.3,3,0.2,4.5,0c3.3-0.2,6.6-0.2,10,0c1.2,0,2.3,0,3.5,0
	c1.8-0.2,3.6-0.2,5.5,0c1.1,0.2,2.2,0.8,3.4,0.7c3.7,0.8,6.3,4.6,5.7,8.4c-0.4,8-0.5,16,0,24c0.8,1.5,0.9,3.4,2,4.8
	c5,0.9,5.8,0.4,8.5-5.3c0.7-3.2,2.1-4.1,5-3.1c0.7,0.5,1.3,1.1,2,1.6c1.3,0.5,1.8,1.6,2.3,2.7c0.8,1.9,2.1,3.3,4.2,3.7
	c2.2-0.8,2.5-2.6,2.5-4.6c0-11.4,0-22.9,0-34.3c0-1.6,0.3-3.3-0.1-5c-0.8-1.5-1.7-2.8-3-3.9c-5.8-0.1-11.7-0.2-17.5-0.2
	c-3.2,0-6.4,0.1-9.7,0.1c-2.2-0.6-4.5,0.1-6.8-0.4c-3.1-0.4-5.9-1.1-8.4-3.2c-2.3-0.9-3.6-2.7-4.1-5c-1.9-4.4-3.7-8.9-1.5-13.7
	c1.6-3.2,6.1-5.4,9.9-4.7c1.2,0.3,2.4,0.4,3.7,0.1c3.1,0,6.2,0,9.3,0c2.3-0.3,4.5-0.2,6.8,0l0.2,0.1l0.1-0.1c2.8-1.5,5.3-3.2,6.9-6
	c1.4-3.4,2.1-7.1,5.1-9.6c2.3-3.1,5.4-5.1,9-6.3c0.5-0.2,1-0.5,1.5-0.7c3-3,7.5-2.7,10,0.5c2.1,1.7,4.2,3.5,6.4,5.2
	c0.7,0.5,1.5,1,2.4,1c0.8,0.3,1,1,1.3,1.7c4.5,12.4,13.5,15.5,25.8,14.2c3.1-0.3,6.3-0.6,9.4-0.2c1,0.1,2,0.4,2.7,1.1
	c3.4,4.9,2.8,10.2,1.4,15.5c-0.3,1-0.6,2-0.9,3.1c-0.3,1.2-1,2-1.9,2.8c-4.5,4.1-10,5.1-15.7,5.4c-5.1,0.2-10.3-0.2-15.4,0.5
	c-3.4-0.7-6.9-1.2-10.4-0.8c-3.4,0.3-4.1,0.9-4.7,4.3c-1.4,8.4-1.4,16.9-0.7,25.4c0.3,3.9,0.1,7.8,0.1,11.7c0,0.4,0,0.8,0,1.2
	c0,1.9,0.1,3.9,2.4,4.3c2.2,0.4,2.8-1.5,3.4-3c1.6-4.1,5.4-6,9.6-3.4c0.7,1.1,0.7,2.4,1.1,3.6c1.2,3.5,5.6,4.9,8.6,2.7
	c1.3-1,1.3-2.4,1.3-3.8c0-6.7,0-13.3,0-20c0-0.9,0-1.8,0-2.7c0.1-6.4,3.4-10.1,9.8-10.7c3.6-0.3,7.3-0.3,11,0.1
	c5.2,0.6,10.3,0.4,15.3-1c1.6-9.5,1.2-19.1,1.2-28.6c0-10.8,0-21.6,0-32.5c0-1.4,0.1-2.8,0.5-4.2c0.6-2.2,2.3-3.2,4.5-3.1
	c2.2,0,3.8,0.9,4.5,3.2c0.4,1.3,0.4,2.6,0.4,4c0,31.2,0,62.4,0,93.6c0,1,0,2,0.1,3c0.3,2.9,1.7,4.3,4.7,4.5c0.2,0,0.5,0,0.7,0
	c6.1,0.1,7.3,1.5,6.5,7.5c-3.1,2-6.6,1.2-9.9,1.8c-1.1,0.2-2.3,0-3.5,0c-103.6,0-207.3,0-310.9,0c-5,0-10-0.2-15-0.6
	c-1.4-0.1-2.8-0.3-4-1.3c-1.3-4.8,0.9-7.7,6.1-7.8c4.6-0.1,9.1-0.1,13.7,0.7c1.2,0.2,2.5,0.2,3.7,0.2c6.2,0,9.3-2.7,9.4-9
	c0.1-6.1-0.3-12.1-0.5-18.2c-0.1-3.3,0.6-6.1,4.1-7.5c4.1,0.5,5.8,2.5,5.9,7.2c0.1,5.9,0,11.8,0,17.7c0,1.8,0,3.7,0,5.5
	c0.1,2.4,1.2,3.3,3.7,3.3c2.2,0,3.4-1,3.4-3.3c0-2.2-0.1-4.5,0-6.7c0.2-4.7,2.4-8,7-9.5c3.1-1,3.8-1.9,3.3-5.2
	c-0.7-5.1-0.4-10.3-0.4-15.4c0-31.1,0-62.2,0.1-93.3c0-2.2,0.2-4.3,0.4-6.5c0.6-5.5,2.8-7.8,8.3-9c0.9-0.2,1.8-0.4,2.7-0.5
	c5.9-0.3,11.8,0,17.7-0.2c1,0,2,0.2,3-0.2c7.9,0,15.8,0,23.7,0c4.6,0.5,9.3,0.1,13.9,0.2c1.2,0,2.5-0.2,3.7,0.2
	c3.4,0.7,6.9,1.1,8.8,4.7c0.7,1.2,0.8,2.6,1.3,3.9C275.2,335.3,274.5,338.8,275.1,342.3z"/>
<path class="st1" d="M437.6,398.1c-4.4-0.7-8.9-0.6-13.4-0.1c-7.7,0.8-15-0.2-20.5-6.4c-2.7-3-4.2-6.5-5.3-10.3
	c2.3-1.4,2.6-3.5,1.7-5.8c-5.3-12.6-11.1-25-19.5-36c-9.1-11.9-19.9-21.8-32.7-29.5c-11.2-6.8-23.4-11.2-36.3-13.7
	c-13.2-2.6-26.6-2.3-40-1.9c-18.7,0.7-37.4,0.6-56.1,0.2c-13.6-0.3-27.1,0-40.7-0.3c-0.9-3.3-0.7-6.6-0.3-9.9
	c0.3-1.8,0.9-1.7,2.2-0.9c4.2,2.5,8.7,4.4,13.7,4.9c6.4,0.6,11.9-1.6,16.8-5.7c3.1-2.6,3.3-2.4,6.5,0.1c8.5,6.6,18.7,8.2,28.2,1.7
	c0.5-0.4,1.1-0.8,1.6-1.2c3.5-2.5,4.8-2.5,8.3-0.1c10.3,7.4,18.7,7.4,29,0c3.6-2.6,4.8-2.6,8.4,0.2c9.4,7.1,18.3,7.2,28,0.4
	c4-2.9,5.4-2.9,9.4-0.1c10.1,6.9,18.2,6.9,28.2-0.2c3.6-2.5,5.3-2.6,8.8,0c10.1,7.8,21.1,6.3,30.1-1.2c2.4-2,3.4-2,6.3,0.5
	c5.1,4.4,10.9,6.5,17.7,5.6c4.4-0.6,8.3-2.4,12-4.7c1.5-0.9,1.9-0.5,2.5,0.9c0.5,1.4,0.5,2.8,0.5,4.2c0,28.6-0.1,57.3-0.1,85.9
	c0,5.5,1.6,7.1,7,7.6c-1.7,3.7-2.4,7.5-1.6,11.5C438.3,395.2,437.7,396.6,437.6,398.1z"/>
<path class="st2" d="M131.8,480.6c18.7,1.8,37.4,0.9,56.1,0.9c91.2,0.1,182.5,0.1,273.7,0.1c4.5,0,9-0.4,13.4-1
	c-1,1.8-2.5,2.5-4.7,2.6c-9.8,0.2-19.6,0.5-29.4,1c-6.7,0.3-13.4,0.7-20.1,1c-7.9,0.4-15.8,0.6-23.6,1.1c-6.4,0.4-12.8,0-19.2,0.5
	c-5.5,0.4-11,0.6-16.4,0.3c-8.8-0.5-17.6-0.1-26.4-0.5c-24.3-1-48.6-0.5-72.9-0.3c-9.5,0.1-19-0.1-28.4,0.4
	c-9,0.4-17.9,0.4-26.9,0.4c-10.5,0-20.9-0.8-31.3-1.9c-5.3-0.5-10.6-0.7-15.9-1.1c-8.2-0.6-16.4-1-24.6-1
	C133.6,483.1,132.2,482.5,131.8,480.6z"/>
<path class="st1" d="M405.1,424.7c5.5-0.7,11.1-0.7,16.7-0.7c6.5-0.1,11.9-2.5,16.3-7.3c0,3.2,0,6.5,0.1,9.7
	c0.1,3.8,1.9,5.7,5.7,6.3c2.7,0.4,5.4,0.6,8.2,0.5c-3.2,2.1-6.9,2.1-10.5,2.1c-4.9,0-9.8-1-14.7-0.6c-6.8,0.5-10.4,3.9-10.2,10.7
	c0.2,7.5-0.1,15,0.1,22.4c0.1,3.2-0.6,4.3-3.3,5c-3.6,1-6.4,0.1-7.7-2.4c-0.8-1.6-1.2-3.3-1.2-5.1c-0.8-1.1-0.8-2.3-0.8-3.6
	c0-8.8,0-17.6,0-26.5c0-2.8,0.6-5.6,0.5-8.5C404.3,426,404.5,425.3,405.1,424.7z"/>
<path class="st3" d="M316.7,188.8c-10.4,0-20.8,0.1-31.2,0.1c-24.2,0.1-48.5,0.1-72.7,0.2c-6.1,0-12.2,0.1-18.2,0.2
	c-5.6,0-6.9-1.4-6.7-7c0-1.6-0.1-3.2-0.1-4.7c0-3.2,1.3-4.8,4.5-5.1c2.6-0.2,5.2-0.1,7.7-0.1c44.8,0,89.6,0,134.4,0
	c8.6,0,17.1,0.1,25.7,0.1c3.9,0,7.2-1.2,9.1-5c0.5-0.6,1.3-0.8,2-0.7c3.5,0.4,7.1,0.4,10.6,0.5c0.7,0,1.3,0.2,1.8,0.7
	c1.5,4,5.1,4.4,8.6,5c0.7,0.8,0.8,1.8,0.8,2.8c0,3.3,0.1,6.7,0,10c-0.1,2.7-0.4,2.9-3.1,2.9c-23.5,0-46.9,0-70.4,0
	C318.5,188.7,317.6,188.5,316.7,188.8z"/>
<path class="st4" d="M383.5,167.9c-4.8,0-9.6,0-14.4-0.5c-1.4-4.5-4.8-5.4-9-5.4c-21.6,0.1-43.1,0.1-64.7,0.1
	c-31.9,0-63.8-0.1-95.7-0.1c-2.5,0-5,0.2-7.5,0.4c-2.2,0.1-3.5-0.8-4.2-3c-2-6.8,1.5-11.6,8.7-11.6c70.7,0.1,141.4,0.1,212.1,0.2
	c0.7,0,1.3,0,2,0.1c6.4,0.6,9.3,4.4,8,10.8c-0.5,2.4-1.7,3.3-4.8,3.3c-6.9-0.1-13.8-0.2-20.7-0.3c-1.4,0-2.8,0.1-4.2,0.4
	C386,162.8,384,164.6,383.5,167.9z"/>
<path class="st5" d="M325.7,224.2c0.1-6.6-1.2-13.1-1.9-19.6c-0.4-4.2,0.1-5.2,4.3-5.1c2.6,0.1,5.1-0.6,7.7-0.9
	c4.9-0.7,7.4,0.7,9,5.3c3.5,9.6,6.3,19.4,6.9,29.7c0.2,4.5-1.1,5.6-5.3,4.1c-2.3-0.8-4.4-1-6.8-0.2c-1.2,0.4-2.6,0.6-3.9,0.7
	c-5.9,0.7-9.4-2.1-10-8C325.5,228.2,325.7,226.2,325.7,224.2z"/>
<path class="st4" d="M303.5,238.5c-3.4,0-6.8-0.4-10.1-1c-1.7-0.3-2.6-1.3-2.5-2.8c0.7-10.7,0.2-21.4,2.8-31.9
	c0.7-2.8,1.8-3.8,4.7-3.8c4.1,0,8.1,0.8,12.2,0.5c2.3-0.1,3,1.8,3.2,3.8c0.5,4.9,0.8,9.8,1.5,14.6c0.7,4.9,0.3,9.9,1,14.9
	c0.5,3.3-0.3,4.1-3.5,4.9C309.7,238.4,306.6,238.5,303.5,238.5z"/>
<path class="st5" d="M281.1,224.6c0,2.7,0.1,5.3-0.4,8c-1,4.7-3.9,7.1-8.6,6.1c-3.6-0.7-7.3-0.7-10.9-0.9c-5.2-0.2-6.5-1.6-5.6-6.6
	c1.4-7.3,3.1-14.6,4.7-21.9c0-0.2,0.1-0.3,0.1-0.5c0.5-3.4,0.8-7.1,4.5-8.5c4.7-1.8,9.8-2.4,14.6-0.2c3.3,1.5,3.6,4.8,3.3,7.9
	c-0.3,3-0.9,5.9-1.4,8.9C281.1,219.5,281.1,222,281.1,224.6z"/>
<path class="st4" d="M367.5,198.4c3.5-0.1,6.4,1.6,8,5.1c4.8,10,8.2,20.5,12,30.8c0.8,2.3-0.1,3.5-2.6,3.6c-5,0.3-10.1-0.1-15.2,0.7
	c-2.9,0.5-5.2-1.2-6.8-3.8c-1.3-2.2-2.1-4.6-2.2-7.1c-0.4-6.4-3.1-12.4-3.8-18.8c-0.2-1.8-1.3-3.5-2-5.3c-0.7-1.9,0.2-3.2,2-3.6
	C360.4,199.4,363.6,198.4,367.5,198.4z"/>
<path class="st4" d="M242.3,199c1.7,0,3.2-0.1,4.7,0c3.5,0.3,4.6,1.7,4,5.1c-0.6,3.2-1.2,6.4-2,9.5c-1.2,4.8-2.2,9.5-2.8,14.4
	c-0.3,1.9-0.8,3.7-1.6,5.5c-1.7,3.9-4.8,6-8.9,5.2c-3.7-0.7-7.4-0.7-11.1-0.9c-4.6-0.3-5.8-1.7-4.3-6c3.2-9.1,6.7-18.2,10.2-27.3
	c1.3-3.3,4-5,7.5-5.3C239.5,199.2,241,199.1,242.3,199z"/>
<path class="st5" d="M211.7,199.3c2.7,0.2,5.5,0.5,8.2,0.7c1.4,0.1,1.2,0.6,0.9,1.5c-4.1,11-7.8,22.2-12.6,33
	c-1.3,2.9-3.5,4.5-6.7,4.1c-4.4-0.5-8.7-0.7-13.1-0.3c-4.4,0.4-6.2-2.3-3.9-5.9c5.2-8.5,9.1-17.7,14.2-26.2
	C201.6,201,205.8,198.6,211.7,199.3z"/>
<path class="st5" d="M416.9,238.9c-5.9-0.4-11.5-1.5-16.7-4.5c-1.6-0.9-2.6-2.1-3.3-3.9c-3.5-9.4-7-18.8-10.6-28.1
	c-0.7-1.7-0.4-2.2,1.4-2.6c11.2-2.5,19.3,1.2,23.8,11.6c3.1,7.1,6.8,13.8,10.4,20.6c2.6,4.8,1.4,6.8-4.1,6.9
	C417.6,238.9,417.3,238.9,416.9,238.9z"/>
<path class="st4" d="M145.3,238.1c8.3-11.9,15.6-23.4,24.2-34.2c2.3-2.9,5.4-4.3,9-4.6c3.7-0.3,7.5-0.1,11.5,0.7
	c-1.5,2.9-3,5.8-4.5,8.6c-4.5,8.6-9,17.2-13.5,25.8c-1.2,2.3-2.9,3.7-5.5,3.7C159.7,238.2,152.8,238.1,145.3,238.1z"/>
<path class="st4" d="M460.9,236c-4.8,1.4-9.3,2.4-13.8,2.7c-5.6,0.4-9.7-2.1-12.9-6.6c-3.5-5-6-10.5-8.9-15.8
	c-2.2-4-4.2-8.1-6.3-12.1c-0.2-0.4-0.5-0.9-0.7-1.3c-1.2-2.8-0.8-3.4,2.2-3.5c10.3-0.5,17.9,4.1,23.5,12.4c1.7,2.5,3.3,5.2,4.9,7.8
	C452.2,225.3,455.5,231.2,460.9,236z"/>
<path class="st5" d="M377.4,247.3c3.7,0,7.3,0.6,10.9,1.1c1.8,0.3,3.6,1,3.4,3.2c-0.5,5.1,0.4,10.3-0.6,15.4c-1.1,6-6.4,11-12,11.2
	c-6.7,0.3-12.9-3.5-14-9.5c-0.9-5-1.5-10.2-1.4-15.3c0-2.4,1.3-4,3.7-4.8C370.6,247.7,373.9,247.3,377.4,247.3z"/>
<path class="st4" d="M192.2,248c2.3,0.3,5.2,0.2,7.9,0.8c4.6,1,6.4,3.1,6.4,7.8c-0.1,4.2-0.7,8.3-1.9,12.3
	c-2.1,6.7-7.4,10.1-14.1,9.2c-7.3-0.9-11.4-5.2-11.8-12.5c-0.2-3.6-0.1-7.1-0.6-10.7c-0.5-3.7,1.2-5.8,4.9-6.5
	C185.9,247.8,188.8,247.8,192.2,248z"/>
<path class="st5" d="M228.1,247.8c2.7,0,5.3-0.1,8,0c4.8,0.1,7,2.3,7.1,7.1c0.1,4.6-0.6,9.1-2,13.5c-2.3,7.2-6.5,10.3-13.3,9.9
	c-6.3-0.4-10.3-4.2-11.6-11.3c-1-5.3-0.6-10.8-0.6-16.1c0-1.5,0.8-2.4,2.4-2.6C221.5,247.7,224.8,248.2,228.1,247.8z"/>
<path class="st4" d="M400.9,257c0.1-1.2,0-2.3,0.2-3.5c0.5-3.5,2.7-5.5,6.2-5.6c4.9-0.1,9.8-0.1,14.7,0.1c4.8,0.2,6.9,2.4,6.9,7.3
	c0,5.2-0.6,10.3-2.5,15.1c-2.1,5.3-6.1,7.9-11.8,7.9c-5.3,0-9.1-2.8-11.2-7.9c-0.8-1.9-1.3-3.9-1.7-6
	C401.4,261.9,401,259.5,400.9,257z"/>
<path class="st5" d="M466.1,257.2c-0.3,4-0.7,8.8-2.5,13.2c-2,5.2-5.6,7.7-10.9,7.9c-5.6,0.1-9.4-2.2-11.6-7.3
	c-2.3-5.3-3.1-10.8-2.9-16.5c0.1-4.7,2.4-6.8,7.1-6.6c4.1,0.3,8.1-0.1,12.2-0.1C464,247.9,466.2,250.1,466.1,257.2z"/>
<path class="st5" d="M299,247.8c3.3,0.8,7.3-0.1,11.4,0.1c4.5,0.2,6.9,2.2,7.1,6.6c0.2,6.1-0.6,12.1-3.5,17.6
	c-2.4,4.7-6.5,6.4-11.5,6.2c-4.9-0.3-8.3-2.6-10.1-7.2c-1.9-4.8-2.6-9.8-2.7-14.9C289.6,250,292,247.6,299,247.8z"/>
<path class="st4" d="M354.7,258.2c-0.3,3.9-0.9,8.8-3.1,13.3c-2.4,4.9-6.4,7-11.7,6.8c-5.2-0.2-8.7-2.8-10.7-7.6
	c-0.9-2.2-1.3-4.4-1.6-6.8c-0.4-2.9-0.4-5.8-0.8-8.7c-0.7-3.9,1.2-6.3,5-6.9c5.4-0.9,11-0.3,16.4-0.2
	C353.3,248.3,355,251.1,354.7,258.2z"/>
<path class="st5" d="M141.3,258.7c0.1-1.5,0.1-3.6,0.3-5.7c0.3-3.1,1.5-4.4,4.6-4.6c5.4-0.4,10.8-0.6,16.2-0.6
	c3.5,0,5.8,1.9,6.1,5.3c0.7,6.9-0.2,13.6-3.7,19.8c-2.5,4.4-6.7,5.7-11.5,5.4c-4.5-0.3-7.8-2.4-9.7-6.6
	C141.8,267.7,141.7,263.4,141.3,258.7z"/>
<path class="st4" d="M253.2,262c0.3-1.9-0.4-4.5-0.5-7c-0.1-4.6,2.2-7.2,6.7-7.1c4,0.1,8.1,0,12.1,0.9c7.6,1.7,10.8,6.7,9.3,14.3
	c-0.7,3.5-1.9,6.9-4,9.8c-3.4,4.8-8.6,6.4-14.6,4.7c-5.4-1.6-8.7-5.7-9-11.5C253.1,265,253.2,263.8,253.2,262z"/>
<path class="st3" d="M316.7,188.8c0.9-0.7,1.9-0.4,2.9-0.4c23.2,0,46.4-0.1,69.6,0c2.4,0,3.1-0.7,3-3.1c-0.2-4.1-0.1-8.3-0.1-12.5
	c6.6-0.3,13.3-0.6,19.9-0.8c4.7-0.1,6.8,2,7.1,6.7c0.6,9-1.8,11.2-10.7,10.4c-8.8-0.7-17.6-0.4-26.4-0.4
	C360.2,188.8,338.4,188.8,316.7,188.8z"/>
<path class="st4" d="M270.6,377.1c-3.6,0.8-5.4,3-5.4,7.2c-0.1,5.3,0,10.7,0,16c0,14.8,0.1,29.6,0.1,44.4c0,1.1,0,2.2-0.1,3.2
	c-0.3,3-1.8,4.6-4.7,5.3c-1.6,0.3-3.1,0.3-4.7,0.2c-15.6-0.5-31.1-0.4-46.7,0c-5.8,0.2-7.6-1.6-7.6-7.5c0-19.3,0.2-38.6,0.2-57.9
	c0-15.7,0-31.5-0.1-47.2c0-0.8,0-1.7,0-2.5c0.3-3.8,1.7-5.2,5.5-5.2c7.7,0,15.5,0.1,23.2,0.1c9.2,0,18.3,0,27.5-0.1
	c5.9-0.1,7.6,1.6,7.5,7.5c-0.1,5.1,0,10.2-0.1,15.2c0,5.1,1.1,6.6,6,7.9c0.6,2.3-0.2,4.4-1,6.5c0,0.8,0,1.7,0,2.5
	C271.1,374.1,271,375.6,270.6,377.1z"/>
<path class="st1" d="M304.7,372.4c0.8,4.8,0.4,9.6,0.3,14.4c-0.2,25.1-0.1,50.1,0.1,75.2c0,2.1,0.3,4.1-0.4,6.1
	C304.7,436.2,304.7,404.3,304.7,372.4z"/>
<path class="st1" d="M340.7,397.2c-1.5,0.1-2.9,0.3-4.4,0.4c-3.6,0.2-6.8,1.4-9.1,4.2c0.2-1.5-0.9-3.4,0.7-4.4
	c2.7-1.7,5.8-2.8,8.9-2C338,395.8,338.9,397.6,340.7,397.2z"/>
<path class="st1" d="M351.6,443.6c-0.6-3.7-2.1-6.7-5.7-8.4c1.6-0.7,3.5-1.2,4.7,0c1.9,2,3.5,4.4,3,7.5
	C353.4,443.9,352.4,443.5,351.6,443.6z"/>
<path class="st1" d="M389.6,374.7c-3.2-2.3-6.5-2.3-10-0.5c-0.3-2.1,0.2-3.4,3-3.1c1,0.1,2.1-0.4,3.2-0.4
	C389.1,370.7,389.6,371.3,389.6,374.7z"/>
<path class="st1" d="M378.1,375.3c-3.1,1.9-6.2,3.8-9,6.3c0-0.7,0-1.3,0-2c-0.1-1.7,0.5-2.5,2.3-2.4c1.3,0.1,2.1-0.1,2.3-1.7
	C374,373.7,376.8,373.6,378.1,375.3z"/>
<path class="st1" d="M375.6,472.1c-1.9,0.9-2.9-0.2-3.7-1.7c-0.9-1.6-1.6-3.4-2.9-4.8C372.6,465.6,375.3,468.2,375.6,472.1z"/>
<path class="st1" d="M364,391.2c-1.2,3.3-3.3,5.6-6.9,6c0-2.2,2.6-5.2,4.8-5.5C362.7,391.6,363.4,391.6,364,391.2z"/>
<path class="st1" d="M367.1,464c-2.7-0.7-3.9,1.2-5,3.1c-1.9-1-1.2-2.7-0.6-3.8c0.9-1.8,2.8-1.8,4.6-1.6
	C367.6,461.8,366.9,463.2,367.1,464z"/>
<path class="st1" d="M270.6,377.1c-0.8-1.4-0.4-2.9-0.4-4.4c1.5,0,2.2,0.7,2.5,2.2c0.2,1.5,0.8,2.8,2.4,3.6c2.2,1.1,0.1,2.5,0,3.8
	C274.4,379.9,273.1,378,270.6,377.1z"/>
<path class="st1" d="M270.2,370.2c-0.4-2.3,0.5-4.3,1-6.5c0.7-0.7,1.3-1.4,2-2.1c1.2,2.9-0.6,5.3-1.2,7.9
	C271.8,370.2,270.9,370.2,270.2,370.2z"/>
<path class="st1" d="M285.1,459.6c-0.8-2.6-2.2-4.7-5-5.5c0.3-1.8,1.3-1.6,2.5-0.9c1.9,1.1,2.9,2.8,3.8,4.7
	C287,459,286.2,459.5,285.1,459.6z"/>
<path class="st1" d="M328.7,415.6c1.2,1.8,2.5,3.5,4.1,5c-0.2,0-0.5,0-0.7,0C327.9,420.7,327.2,419.7,328.7,415.6z"/>
<path class="st1" d="M356.8,397.2c-2.3,0.8-4.5,0.5-6.8,0c1.2-0.9,1.9-2.5,4.1-2.1C355.6,395.3,355.3,397.3,356.8,397.2z"/>
<path class="st6" d="M223.4,322.8c-6,0.6-11.9,0-17.9,0.3c-0.9,0-1.8,0-2.7,0c0.5-0.5,1-0.4,1.6-0.4
	C210.7,322.8,217,322.8,223.4,322.8z"/>
<path class="st1" d="M353.6,472.4c-2.3-1-2.2-2.9-2-4.8C354.3,467.8,354.8,469,353.6,472.4z"/>
<path class="st1" d="M319.1,434.5c-2.2-0.3-3.6-1.6-3.9-3.9C318.7,429.8,318.6,432.5,319.1,434.5z"/>
<path class="st1" d="M288.1,472.5c-3.1-1.2-4-3.4-3-7.6c0,1.5-0.1,3,1.6,4C287.8,469.7,287.5,471.4,288.1,472.5z"/>
<path class="st1" d="M375.1,424.2c2.2,0.4,3,1.8,3,3.9C375.1,428.1,375.1,428.1,375.1,424.2z"/>
<path class="st1" d="M307.6,365.1c-1.9,0.5-2.4,2.1-3,3.7c-0.8-1.6-1.5-3.1,0.5-4.4C306.5,363.5,307.2,363.5,307.6,365.1z"/>
<path class="st6" d="M264.7,323.2c-5.9-0.1-11.7-0.2-17.6-0.4c5.4,0,10.8,0,16.2-0.1C263.8,322.7,264.3,322.8,264.7,323.2z"/>
<path d="M275.1,342.3c-0.9-3.5-0.1-7.1-0.4-10.6C275.7,335.3,275,338.8,275.1,342.3z"/>
<path class="st1" d="M278.7,453.5c-1.4-0.3-2.3-1.2-2.9-2.4C278.2,450.2,278.7,451.5,278.7,453.5z"/>
<path class="st1" d="M333.6,434.5c-3.3,0-6.6,0-10,0C327,433.9,330.3,433.9,333.6,434.5z"/>
<path class="st1" d="M341.1,423.7c2.3,0.1,4.5,0.2,6.8,0.4C345.6,423.9,343.3,424.6,341.1,423.7z"/>
<path class="st1" d="M342.6,434.5c-1.8,0-3.6,0-5.5,0C339,433.9,340.8,433.9,342.6,434.5z"/>
<path class="st5" d="M232.7,472.8c-12.3,0-24.6,0-36.9,0c-3,0-4-0.8-4.4-3.6c-0.4-3.3,0.8-5.4,3.4-6c1-0.2,2-0.2,3-0.2
	c22.9,0,45.8,0,68.7,0c0.5,0,1,0,1.5,0c5.6,0,6.9,0.9,6.9,4.8c0,4.1-1.1,4.9-7,4.9C256.1,472.8,244.4,472.8,232.7,472.8L232.7,472.8
	z"/>
<path class="st7" d="M328.2,472.6c-2.4,0-4.8,0.1-7.2,0c-3-0.2-4.4-1.3-5-4.3c-1.1-5.6-1.7-11.2-1.3-16.9c0.3-3.9,2.3-6,6.6-6.6
	c4.4-0.6,8.8-1,13.2-0.7c5.2,0.3,8.1,3.2,7.6,8.4c-0.5,4.9-0.1,9.8-0.9,14.7c-0.6,3.6-2,5-5.7,5.4c-0.3,0-0.7,0-1,0
	C332.4,472.6,330.3,472.6,328.2,472.6L328.2,472.6z"/>
<path class="st7" d="M405.1,424.7c-0.8,13.5-0.4,27.1-0.5,40.6c-5-1.9-7-1-8.9,4.1c-0.7,1.8-1.7,3.3-3.9,3.1c-2-0.2-3.2-1.8-3.1-4.3
	c0.3-9.2-0.6-18.4-0.4-27.6c0.1-4.7,0.6-9.3,1.4-13.8c0.3-1.7,1.1-2.2,2.5-2.5C396.4,423.2,400.8,423.4,405.1,424.7z"/>
<path class="st8" d="M383.5,407c13.8,0,27.6,0,41.5,0c1.8,0,3.9-0.4,4.2,2.3c0.3,2.5-1.4,3.6-3.4,4.2c-2.2,0.7-4.4,0.6-6.7,0.6
	c-23.5,0-47,0-70.4,0c-2.3,0-4.7-0.1-7-0.5c-1.5-0.2-2.7-0.9-3.6-2.1c-1.5-2-0.5-4.3,2-4.5c2.9-0.2,5.8-0.1,8.7-0.1
	C360.4,407,372,407,383.5,407z"/>
<path class="st9" d="M451.7,445.5c1.6,3.4,1.4,7.1,1.5,10.7c0,4.2-0.1,8.3-0.1,12.5c0,3-1,4-4.1,4c-2,0-4-0.1-6-0.2
	c-1.1-0.4-2.3-0.2-3.5-0.1c-1.7,0.1-2.6-0.8-2.6-2.3c-0.2-6.5-0.6-13.1,0.6-19.6c0.4-2,1.5-3.6,3.5-4.3
	C444.5,445.1,448.1,444.2,451.7,445.5z"/>
<path class="st10" d="M451.7,445.5c-3.3,0.1-6.6,0.2-9.8,1.1c-2.2,0.6-3.4,2.2-3.7,4.2c-1,6.4-0.5,12.9-0.5,19.3c0,1.2,0.6,2,2,2
	c1.1,0,2.3-0.3,3.4,0.4c-3.1,0.1-6.3,0.2-9.4,0.5c-4.3,0.5-6.7-1.4-7.3-5.7c-0.7-6.1-0.3-12.3,0.9-18.3c0.5-2.4,2.2-3.9,4.6-4.3
	c5.9-1.1,11.8-0.4,17.7-0.6C450.5,444.1,451.3,444.6,451.7,445.5z"/>
<path class="st11" d="M383.6,397.7c-2.1-0.4-4.4-0.1-6.6,0c-2,0.1-2.8-1-3-2.9c-0.3-3,1-5.4,3.4-7c4.1-2.7,9.6-2.6,13.5,0.3
	c1.6,1.1,2.5,2.6,3,4.5c0.8,3.4-0.8,5.3-4.3,5.1C387.7,397.7,385.7,397.4,383.6,397.7z"/>
<path class="st12" d="M246.7,394.4c0-2.9,1.8-4.7,4.9-4.7c2.7,0,4.5,1.9,4.5,4.8c0,2.6-2.3,5-4.9,5
	C248.5,399.4,246.7,397.4,246.7,394.4z"/>
<polygon points="174.2,475.9 163.9,475.9 164.2,397.6 174.2,400.5 "/>
<polygon points="275.1,422.8 265,422.8 265.3,344.5 275.1,347.4 "/>
<polygon points="442.8,476.9 432.6,476.9 432.8,368.8 442.8,372.8 "/>
</svg>
