<?xml version="1.0" encoding="utf-8"?>
<!-- Generator: Adobe Illustrator 26.0.1, SVG Export Plug-In . SVG Version: 6.00 Build 0)  -->
<svg version="1.1" id="Layer_1" xmlns="http://www.w3.org/2000/svg" xmlns:xlink="http://www.w3.org/1999/xlink" x="0px" y="0px"
	 viewBox="0 0 615.7 593" style="enable-background:new 0 0 615.7 593;" xml:space="preserve">
<style type="text/css">
	.st0{fill:#FCFCFC;}
	.st1{fill:#010101;}
	.st2{fill:#FF6666;}
	.st3{fill:#020101;}
	.st4{fill:#ECD0AB;}
	.st5{fill:#DDE9F8;}
	.st6{fill:#86E877;}
	.st7{fill:#477555;}
	.st8{fill:#EBCEAA;}
	.st9{fill:#EBCFAB;}
	.st10{fill:#FBFBFB;}
	.st11{fill:#F9F9F9;}
	.st12{fill:#467454;}
	.st13{fill:#F2DD8D;}
	.st14{fill:#0F0606;}
	.st15{fill:#0B0404;}
	.st16{fill:#0E0606;}
	.st17{fill:#FFB361;}
	.st18{fill:#0D0404;}
	.st19{fill:#080203;}
</style>
<circle class="st0" cx="307.9" cy="296.5" r="294.5"/>
<path d="M446.3,194.9c5.3,0.4,8.6,3.5,10.4,8.3c1.6,4.1,1.9,8.6,3.1,12.8c1.4,5,3.8,9.4,7.9,12.7c11.2,8.8,14.2,20.6,12.3,34.1
	c-1,7-3.6,13.4-7.4,19.4c-0.3,0.4-0.5,0.8-0.8,1.3c-4.3,6.9-4,9.5,2.1,15c8,7.2,10.1,16.9,5.8,26.5c-2.3,5.1-6.1,9.1-10.7,12.2
	c-4.9,3.4-10.4,5.5-15.9,7.6c-0.8,0.3-2.2,0.1-1.9,1.7c0.3,1.4,1.4,1.5,2.5,1.5c3.7,0.1,7.5,0.4,11.2,1.1
	c7.5,1.6,10.8,5.5,10.9,13.2c0.1,6.9-1.2,13.6-2.4,20.3c-4.8,25.1-14,48.4-29.4,69c-17,22.7-38.9,39.1-64.3,51.1
	c-5.4,2.6-11.2,3.5-17.2,3.5c-30.8,0-61.6-0.3-92.4,0c-10.6,0.1-20.5-1.5-29.6-6.9c-1.9-1.1-3.9-2.1-5.9-3.2
	c-22-12.4-40.8-28.3-55.2-49.2c-12.2-17.6-20-37-24.7-57.7c-1.7-7.7-2.9-15.5-3.8-23.4c-0.3-2.5-0.2-5,0.3-7.5
	c1.1-5.3,5.1-8.7,11.2-9.8c4.8-0.8,9.6-0.4,14.6-0.6c-0.1-1.9-1-3.4-1.6-5.1c-2-6.3-2.8-12.5,0-18.7c1.1-2.6-0.1-4.4-2.1-6
	c-6.3-5.1-11.3-11.2-15.2-18.3c-11.2-20.3-8.4-45.1,7.1-62.4c18-20.1,45.3-24.6,69.9-11.3c3.7,2,7.3,2.4,11.4,1.3
	c13.7-3.7,26.1-0.5,37.6,7.4c6.9,4.8,6.8,4.8,13.6-0.2c6.4-4.7,9.7-11,9.9-18.9c0.1-3.8-0.2-7.6-0.4-11.5
	c-0.5-11.3,2.6-21.7,8.2-31.3c2.3-4,4.9-7.7,7.9-11.2c5.1-6,10-6.4,15.8-1.1c7,6.3,13.8,12.8,20,19.8c4.5,5,7.2,5.3,12.6,1.2
	c17.2-13.3,35.8-14.9,55.7-7.1c3.1,1.2,5.9,2.7,6.7,6.4c0.3,1.5-0.3,2.8-0.3,4.2c-0.6,1.6-1.9,2-3.4,2.1c-2.5,0.2-4.9-0.1-7.3-1.2
	c-6.1-2.7-12.5-3.9-19.2-3.8c-8.1,0.1-15.1,2.9-21.8,6.9c-1.4,0.8-2.9,1.7-4.3,2.6c-2.2,1.4-2.5,2.9-1.2,5c1.4,2.3,3,2.8,5.2,1.2
	c4.3-3.1,8.8-5.7,13.9-7.2c10.6-3.1,20.6-1.7,29.7,4.8c7.4,5.2,12.5,12.1,15,20.9c0.9,3.2,2.5,4.4,5.1,4c2.1-0.3,2.9-1.4,2.4-3.5
	c-1-3.9-2.1-7.8-4.2-11.4c-2.3-3.8-1.7-7.3,1.2-9.9C445.2,195.3,445.7,194.9,446.3,194.9z"/>
<path class="st1" d="M262.1,135.5c-2.3-4.9-1.9-7,2-10.8c4.7-4.7,9.4-9.5,14.2-14.1c6.1-5.9,11.7-5.5,17.2,1
	c9.5,11.3,14.3,24.4,14,39c-0.6,26.1-11.9,46.5-35.6,57.9s-47.1,9.5-68.4-7.1c-0.7-0.5-1.3-1.1-1.8-1.7c-4.6-4.8-4.9-9.1-0.4-14.1
	c5.3-5.8,11-11.4,16.6-17c7-7.1,14.1-14.1,21.2-21.2c2.7-2.7,5.7-4,9.4-2.1c2.2,1.8,2.8,4.8,1.6,7.6c-0.8,1.8-2,3.4-3.4,4.8
	c-7.3,7.1-14.3,14.6-21.4,21.9c-2.6,2.6-5.5,4.8-8.2,7.3c-4.2,3.9-4,6.3,0.9,9.2c17.2,10.1,39.7,8.8,55.5-3.4c2-1.5,3.7-3.3,5.5-5
	c4-4.1,7.7-8.3,10.3-13.4c3.3-6.6,5.2-13.4,5.6-20.8c0.5-9.8-1.8-18.8-6.2-27.4c-2.8-5.5-3.9-5.7-8.7-1.9c-3.4,2.7-5.9,6.3-9.1,9.3
	c-1.8,1.7-3.9,2.9-6.3,3.2C264.9,137,263.2,137.1,262.1,135.5z"/>
<path class="st2" d="M262.1,135.5c4,1.6,7.5,0.7,10.5-2.3c3.3-3.3,6.1-7.2,9.9-10.2c4.1-3.2,5.3-3.1,7.9,1.4
	c11.4,20,9.4,43.3-5.2,60.1c-1.2,1.4-2.6,2.6-3.9,3.9c-2,1.4-4.3,1.7-6.6,2.2c-5.4,1.2-10.9,2.2-16.5,2.5c-3.5,0.2-5.9-1.2-7.2-4.6
	c-0.5-1.9-0.3-3.8-0.3-5.7c0-1.7-0.1-3.3-0.7-4.9c-0.9-2.7-2.7-4-5.1-3.8c-2.7,0.3-4.3,1.8-4.7,4.6c-0.3,2.4,0,4.8-1.1,7
	c-3.7,1.3-6.8,0-9.5-2.3c-1.2-1.1-3.2-2-2.7-4.3c6.6-7.3,13.6-14.2,20.5-21.3c0.8-0.8,1.7-1.6,2.4-2.5c2.7-3.4,2.9-5.9,0.6-10
	C254.3,142.1,258.5,139.1,262.1,135.5z"/>
<path class="st3" d="M420.3,142.7c0,6-2.4,9.5-7.7,11c-11.8,3.2-23.5,6.7-35.4,9.3c-1.2,0.3-2.4,0.5-3.7,0.7
	c-7,0.8-11.4-3.6-10.4-10.6c0.7-5.2,2.2-10.2,3.5-15.3c2-7.6,4.2-15.2,6.2-22.8c1.8-6.6,5.8-9.2,12.6-8.4c7.6,0.9,14.1,4.3,19.8,9.2
	c6.8,5.8,12,12.7,14.2,21.5C420,139.2,420.2,141.2,420.3,142.7z"/>
<path class="st4" d="M446.3,194.9c-4.4,4.6-4.6,5.8-1.5,11.5c1.9,3.5,2.8,7.3,3.8,11c0.4,1.5,0,2.8-1.7,3.4
	c-2.6,0.9-5.2,0.4-6.3-1.4c-0.4-0.7-0.7-1.5-0.9-2.3c-4.5-14.1-13.5-23.6-28.2-26.5c-10.2-2-19.4,0.9-27.7,6.9
	c-0.4,0.3-0.8,0.6-1.2,0.9c-3,2.2-4.7,2-6.5-0.8c-2-2.9-1.5-5,1.7-6.8c6.1-3.5,12.1-7.2,19.2-8.6c8.4-1.6,16.5-0.6,24.4,2.5
	c2.2,0.9,4.3,1.9,6.6,2c2,0.1,4-0.1,5.6-1.6c2.8,3,6.6,4.7,9.8,7.3C444.5,193.4,445.7,193.8,446.3,194.9z"/>
<path class="st5" d="M168.7,397.1c14.2,0,28.5,0,42.7,0c30.5,0,61-0.1,91.4-0.1c23.6-0.1,47.3-0.1,70.9-0.2c1.8,0,3.7,0,5.4-0.6
	c2.2-0.8,4.9-3.6,5-5.2c0-1.6-2.5-4.5-4.8-5.3c-2-0.7-4.1-0.8-6.1-0.8c-12.6,0-25.1,0.1-37.7,0.1c-44.9,0-89.8,0-134.6,0
	c-7.9,0-15.8-0.6-23.7-0.2c-2.1,0.1-4.1,0.4-6.2,0.4c-4,0-6.4-1.9-6.9-5.8c-0.7-5-1.1-10.1-1.4-15.1c-0.2-3,0.9-4.1,3.9-4.3
	c1.9-0.2,3.8-0.1,5.7-0.1c31,0.9,61.9,0.2,92.9,0.2c17.1,0,34.3-0.1,51.4-0.1c22.4,0,44.8-0.1,67.2,0c23,0.1,46,0,68.9-0.3
	c2,0,4,0,5.9,0.5c3.9,1,5.6,3,5.3,7c-0.3,3.9-0.8,7.8-1.4,11.6c-0.8,4.5-3.2,6.5-7.8,6.5c-5.2,0-10.3-0.4-15.5-0.4
	c-10.1,0-20.1,0.1-30.2,0.1c-1.1,0-2.2,0.2-3.2,0.3c-3.9,0.6-4.9,1.4-5,4.5c-0.2,3.8,1,5.7,4.5,6.7c1.6,0.5,3.3,0.4,5,0.4
	c15.4,0,30.8,0,46.2-0.1c1.2,0,2.3-0.4,1.6,1.7c-11.2,31-28.1,57.9-55.3,77.4c-8.9,6.4-18.4,11.6-28.5,15.8c-2.7,1.1-5,3.4-8.3,2.8
	c-3.1-0.5-6.1-0.3-9.2-0.3c-22.9,0-45.8,0-68.7,0c-6.2,0-12.3-0.2-18.5,0.2c-9.6,0.6-18.1-2.1-26.4-6.5
	c-36.8-19.7-60.9-49.8-74.1-89.1c-0.1-0.3-0.2-0.6-0.3-0.9C168.6,397.6,168.6,397.4,168.7,397.1z"/>
<path class="st6" d="M434.9,347.7c-2.2-2.4-4-4.2-5.8-6c-8.8-8.8-17.5-17.6-26.3-26.3c-3.3-3.3-3.3-4.7,0-8.1c9-9,18-18,27-27.1
	c0.8-0.8,1.5-1.5,2.2-2.4c2.3-2.8,2.3-5,0.1-7.3c-2.4-2.5-4.9-2.8-7.8-0.9c-1.2,0.8-2.2,1.8-3.2,2.8c-8.6,8.6-17.1,17.3-25.6,25.9
	c-4,4.1-6.1,4.1-9.9-0.1c-6.3-6.8-12.9-13.5-19.7-19.9c-7.7-7.3-13.4-6.9-19.6,1.6c-2.8,3.9-5.3,8-7.9,12.1c-0.9,1.4-1.4,1.4-2-0.1
	c-0.5-1.1-1.2-2.3-1.4-3.4c-1.2-6-1.2-12.1,0.6-18c2.1-6.9,7.7-9.6,14.8-7.5c2.2,0.7,4.3,1.6,6.6,2.4c5.4,1.8,8.4,0.2,9.9-5.3
	c0.6-2.2,0.9-4.6,1.4-6.8c1.3-5.9,3.9-11.1,7.7-15.7c6-7.3,13.6-7.6,20.1-0.7c2.1,2.3,3.7,4.9,5.2,7.6c0.5,1,1,2.1,1.5,3.1
	c2.8,5.5,6.4,6.1,10.8,1.7c5.6-5.6,11.3-10.9,18.8-13.7c7.1-2.7,14.4-3.4,21.8-0.9c11.2,3.7,17,15.1,14.4,27.3
	c-2,9.7-6.8,17.8-13.8,24.6c-1.2,1.2-2.4,2.3-3.3,3.7c-2,3-1.6,5.6,1.3,7.9c2,1.6,4.5,2.5,6.8,3.7c2.8,1.4,5.4,3,7.4,5.5
	c4.5,5.6,3.5,14.4-2.5,18.9c-5.9,4.6-12.6,7.7-20.2,8.5c-1.1,0.1-2.1,0.3-3.2,0.6c-5.1,1.3-7.3,4.6-6.4,9.8
	C434.6,345.7,434.7,346.3,434.9,347.7z"/>
<path class="st7" d="M326.3,302.1c-8.7-1.4-17-2.7-24.7-6.2c-6.3-2.8-11.5-6.9-15.4-12.6c-2.5-3.6-5.9-6.3-9.2-9.1
	c-2-1.7-4.6-1.4-6.6,0.4c-2.1,1.9-2.6,4.7-1.3,7c1.1,2.1,2.9,3.6,4.5,5.3c2.7,2.9,5.7,5.6,8.5,8.5c2.9,2.9,2.6,4.9-1.1,6.4
	c-11.4,4.5-19.9,12.4-27,22.1c-1.4,1.9-1.9,4.1-2.5,6.2c-1.5,5.4-4.8,6.6-10.2,3.7c-4.9-2.7-7.4-7.2-9.1-12.3
	c-0.4-1.2-0.2-2.4,0.3-3.4c2.6-5.2,5.9-9.8,11.7-11.9c1.3-0.5,2.6-1.1,3.8-1.8c3.2-1.9,4.1-4.6,2.7-8.1c-1.2-3.1-3.5-5.4-5.7-7.8
	c-5.4-5.9-9.4-12.7-11.2-20.6c-2.4-10.9,1.5-22.6,11-27.3c5.7-2.9,11.6-2.4,17.7-1.6c10.7,1.4,18.3,7.7,25.6,14.8
	c0.6,0.6,1.3,1.1,1.9,1.6c3.2,2.2,5.3,2,7.7-1.3c2.5-3.3,4.5-7,6.9-10.4c6.5-8.9,17.2-8.5,22.9,1c1.4,2.3,2.6,4.6,3.8,7
	c1,1.9,0.8,3.5-0.8,5.2c-7.4,8-9.2,17.7-8,28.3C323.2,290.8,324.9,296.3,326.3,302.1z"/>
<path class="st2" d="M332.1,171.9c1.8,0.2,3.2,1,4.2,2.2c13.9,15.8,30.2,29,45.2,43.7c1.2,1.2,1.7,1.8-0.3,2.6
	c-12.7,5.3-20.1,15-23.6,28.1c-0.8,3.1-1.2,3.4-4.5,3c-1.8-0.3-3.6-0.4-5.5-0.5c-2.6-0.2-4.3-1.4-5.4-3.8c-1.3-2.7-2.8-5.3-4-8
	c-1.5-3.5-4.1-6-7.3-8c-2.6-1.7-5.3-3.4-7.7-5.6c-3-2.7-4.5-6.1-4.8-10.1c-0.9-13.9,1.6-27.1,8.4-39.4
	C328.1,174,329.6,172.1,332.1,171.9z"/>
<path class="st6" d="M240.6,348.1c-14.8-0.1-28.8,0.4-42.8-0.2c-7.1-0.3-11.7-4.7-12.3-11.9c-0.8-8.5,3.6-15.7,11.8-19.1
	c2-0.8,4.1-1.4,6.1-2c6.1-1.9,7.6-4.9,5.1-10.7c-1.5-3.5-2.9-7.1-3.3-10.9c-0.6-5.8,0.6-11.2,4.1-16c2.4-3.3,5.8-4.9,9.8-5.4
	c2.4-0.3,4.2,0.7,4.6,3.1c0.6,3.5,2.6,6.2,4.5,9.1c2.7,4.2,4.9,8.5,3.8,13.8c-0.8,4.2-3.3,7.5-6.5,10.1c-6.1,4.8-6.6,11-4.7,17.8
	c2,7.2,6.9,12.2,12.6,16.6C235.6,344,237.8,345.8,240.6,348.1z"/>
<path class="st8" d="M162.9,274c-0.6-29.3,31.7-53.3,60.7-40.6c0.8,0.3,1.5,0.6,2.3,0.9c1.8,0.6,3.3,1.3,3,3.6
	c-0.4,2.3-2.4,4.4-4.3,4.6c-1.4,0.1-2.6-0.3-3.9-0.8c-21.2-9.3-45.6,4.5-49,27.7c-1.6,11,2.3,20.4,9.6,28.5c2.2,2.4,4.6,4.6,7.1,6.6
	c2.3,2,2.2,2.7-0.3,4.4c-2.9,2-5.4,2-8.5-0.3c-6.8-5-11.2-11.8-14.1-19.5C163.7,284.1,162.8,279,162.9,274z"/>
<path class="st9" d="M301.3,318.2c-16.3,0-29,9.6-34,25.7c-1.3,4.3-3.6,5.4-7.5,3.8c-1.3-0.5-2-1.3-1.5-2.9
	c5-18.3,16.2-30.4,35.2-34.2c21.3-4.2,41.9,7.7,49,28.2c0.5,1.3,1.1,2.6,1.6,3.9c0.7,1.6,1.4,3.1-0.4,4.4c-2,1.5-4.6,1.5-6.2,0.1
	c-1.4-1.3-2-3.1-2.6-4.8c-2.8-7.7-7-14.3-14-18.8C315,319.7,308.3,318.2,301.3,318.2z"/>
<path class="st10" d="M345.9,310.3c0.3-6.8,1.9-14,7-20c3-3.6,4.6-3.8,8.3-0.9c5,3.8,7.6,10.4,5,15.9c-6.3,13.2-4,25.8,1.5,38.4
	c1.8,4.1,1.7,4.2-2.9,4.4c-5.7,0.3-8.6-1.8-9.5-7.5c-0.8-5.2-2.7-9.9-5.4-14.3C347,321.7,345.9,316.6,345.9,310.3z"/>
<path class="st10" d="M405,202.3c10.5-0.3,17.5,5.2,22.5,13.9c2.1,3.8,1.5,6.4-1.8,9.3c-3.7,3.2-8.2,4.9-12.5,7.1
	c-1.5,0.8-2.5-0.6-3.4-1.5c-4.3-4.1-8.5-8.2-12.6-12.4c-1.7-1.8-3.5-3.5-5.5-5c-3.6-2.6-3.5-5.8,0.3-8.1
	C396,203.3,400.3,202.1,405,202.3z"/>
<path class="st11" d="M193.2,292.3c-7.9-5.4-13.8-17.3-7.5-29.1c6.3-12,20.4-16.3,32.5-10.2c0.4,0.2,0.9,0.5,1.3,0.7
	c1.4,0.9,2,2.2,1.8,3.8c-0.2,1.6-1.4,2.1-2.7,2.5c-2.6,0.9-5.2,1.7-7.7,2.6c-9.5,3.5-14.6,10.5-16.2,20.3
	C194,286,193.6,289.1,193.2,292.3z"/>
<path class="st12" d="M301.6,347.8c-5.9,0-11.8,0-17.7,0c-4.3,0-5.4-1.9-3.4-5.7c4.5-8.5,13.8-13.1,23.5-12.1
	c8.5,0.9,14.7,4.8,18.5,12.4c1.9,3.7,0.9,5.3-3.2,5.3C313.4,347.7,307.5,347.7,301.6,347.8C301.6,347.7,301.6,347.7,301.6,347.8z"/>
<path class="st13" d="M379.7,315.8c9.4,8.2,18.8,16.5,28.3,24.7c2.6,2.2,5.1,4.5,8,7.1c-7.8,0.8-15.1,0.9-22.6,0.5
	c-2.4-0.1-5,0.2-7.4-0.7c-7.2-7.2-12.4-14.9-11.2-24.7c0.2-2.1,1.2-4.1,2.6-5.8C378,316.1,378.5,315.2,379.7,315.8z"/>
<path class="st2" d="M251.2,188.3c0.1,0.1,0.4,0.1,0.4,0.3c1.8,4.4,5.6,4.1,9.3,3.7c6.9-0.8,13.6-2.4,20.4-3.9
	c-7.9,8.5-17.7,13.3-29,14.9c-11.1,1.6-21.6-0.6-31.5-5.8c-7-3.7-7.3-7-1.1-11.9c2.5-2,4.9-4.2,7.3-6.3c2.5,4.9,6.7,6.7,12,6.6
	c1.2,0.9,1.5,2.3,2.3,3.5c2.1,3.2,4.2,3.5,7.1,1C249.2,189.6,249.8,188.3,251.2,188.3z"/>
<path class="st14" d="M275.9,177.8c0.1,3.2-2.7,5.6-5.7,4.8c-5.7-1.3-9.5-4.8-10.9-10.6c-0.8-3.4,2.8-7,6.3-6.2
	c4.3,1,9.7,6.8,10.3,11.2C275.9,177.3,275.9,177.6,275.9,177.8z"/>
<path class="st15" d="M277.1,146.8c1.2,0,2.3-0.1,3.5,0c3.8,0.3,5.7,2.2,5.8,5.5c0.2,4-1.2,5.8-5.3,6.4c-3.1,0.4-6.3,0.6-9.4-0.2
	s-4.1-2.6-4-6.2c0.1-2.8,1.6-4.7,4.4-5.2C273.7,146.8,275.4,146.8,277.1,146.8C277.1,146.7,277.1,146.7,277.1,146.8z"/>
<path class="st16" d="M251.2,188.3c-1.3,1.2-2.5,2.5-3.9,3.5c-2.4,1.7-4.3,1.2-6-1.1c-1.1-1.5-1.8-3.2-2.4-4.9
	c0.2-2.1,0.3-4.3,0.5-6.4c0.3-3.8,2.1-5.7,5.4-5.9c3.3-0.2,5.4,1.4,6.1,5.2C251.6,181.8,251.7,185.1,251.2,188.3z"/>
<path class="st17" d="M407.4,139c0.2,2.6-1.3,4.5-4.1,5.7c-2.2,0.9-4.7,1.4-7,1.5c-5.2,0.1-9.9,1.8-14.5,3.8c-1.6,0.7-3.2,1.5-4.8,0
	c-1.7-1.6-1-3.3-0.3-5.1c2.3-6.1,3.3-12.5,5.3-18.7c0.6-1.8,1.2-3.6,1.9-5.4c0.8-1.9,2.3-2.5,4.1-1.6c5.7,3,11.7,5.8,16,10.8
	C405.9,132.5,407.4,135.2,407.4,139z"/>
<path class="st18" d="M341.6,200.9c2.2,0,4.5-0.3,6.7,0.4c2.6,0.8,3.6,2.4,3.6,5.8c0,3.3-1.1,5.1-3.7,5.7c-1.5,0.4-3.1,0.5-4.7,0.3
	c-1.9-0.2-3.8-0.4-5.7-0.3c-2.3,0.2-4-0.3-4.9-2.7c-1-2.5-0.8-4.7,0.8-7C335.8,200.1,338.8,201.1,341.6,200.9z"/>
<path class="st19" d="M355.7,223.2c2.9,0,5.9,3.5,4.7,6.2c-2.3,5.2-5.3,9.8-11.5,11.1c-3.8,0.7-6.7-2.4-5.7-6.1
	C344.7,228.3,350.3,223.3,355.7,223.2z"/>
<polygon points="242.4,162.8 233.3,155.3 269.7,118.8 279.4,126.1 "/>
<path d="M456.7,203.2l-13.1,0.8c-4.1-7.6-11.5-14.6-20.6-18.7l5.7-10.2C438.7,179.2,452,189.2,456.7,203.2z"/>
</svg>
