<svg id="Layer_1" data-name="Layer 1" xmlns="http://www.w3.org/2000/svg" viewBox="0 0 165.14 163.6"><defs><style>.cls-1{fill:#fdfdfd;}</style></defs><path class="cls-1" d="M180.46,133.56c0,32.53.43,65.06-.33,97.56-.18,7.3,2.15,19.37-9.91,19.86-14.2.57-11.3-12.86-11.51-20.56-.92-32.36-.39-64.76-.39-97.14l-6.51-2.23Q131.88,150.51,112,170c-6.08,5.92-13.29,13.47-21.34,6-8.2-7.62-1.24-15.22,4.81-21.31,19.84-20,39.9-39.72,59.62-59.79,10.18-10.36,19.36-9.69,29.28.46,19.68,20.12,39.78,39.83,59.59,59.82,6.11,6.16,12.52,13.81,3.94,21.3-7,6.12-14.32.49-19.74-5.34-12.83-13.82-25.46-27.81-38.18-41.73Z" transform="translate(-86.87 -87.39)"/></svg>