<?xml version="1.0" encoding="utf-8"?>
<!-- Generator: Adobe Illustrator 26.0.1, SVG Export Plug-In . SVG Version: 6.00 Build 0)  -->
<svg version="1.1" id="Layer_1" xmlns="http://www.w3.org/2000/svg" xmlns:xlink="http://www.w3.org/1999/xlink" x="0px" y="0px"
	 viewBox="0 0 615.7 593" style="enable-background:new 0 0 615.7 593;" xml:space="preserve">
<style type="text/css">
	.st0{fill:#FCFCFC;}
	.st1{fill:#ECC8B7;}
	.st2{fill:#010101;}
	.st3{fill:#040404;}
	.st4{fill:#050505;}
	.st5{fill:#2D2D2D;}
	.st6{fill:#141414;}
	.st7{fill:#DAA08D;}
	.st8{fill:#D2D9E2;}
	.st9{fill:#E1E7EE;}
	.st10{fill:#BCC0C6;}
	.st11{fill:#F0F4F9;}
	.st12{fill:#D9DCE0;}
	.st13{fill:#EFF2F7;}
	.st14{fill:#DCDFE3;}
</style>
<path class="st0" d="M315,581C161.1,580.3,36.7,458.5,37.7,301.2c0.5-75.7,28.1-141.2,82.1-194.7C173.9,53,239.7,26.4,315.6,26.4
	c76.1,0,141.8,27.5,195.5,81.3c53.6,53.7,81.1,119.5,81.1,195.3c0,75.3-26.8,140.8-79.4,194.9C459.2,553.2,389.3,580.6,315,581z"/>
<path d="M420.2,309.4c4.6,1.3,5.2,2.2,4.5,7.1c-3.7,27.9-7.3,55.9-11.1,83.8c-3.3,24.5-6.5,49.1-10,73.6
	c-1.6,11.4-8.1,16.7-19.6,16.7c-46,0-91.9,0-137.9,0c-12.1,0-18.7-6-20.3-18.4c-4.1-30.9-8.1-61.8-12.1-92.7
	c-3.9-29.7-7.9-59.3-11.8-89c-0.4-3.1-0.8-6.3-1.2-9.4c-0.2-1.8-0.8-3.4-1.9-5.1c-1.5,1.4-3,2.9-4.5,4.3c-8.2,8-16.5,16-24.3,24.5
	c-0.9,1-1.9,1.8-3,2.6c-3.4,2.4-6.8,2.3-10.2-0.1c-0.8-0.6-1.6-1.2-2.2-2c-3.9-5-8.8-9.1-13.2-13.6c-3.1-3.2-5.7-6.8-6.7-11.2
	c-1.4-6.3,0.8-11.5,5-16c6.1-6.5,12.4-12.7,18.7-19c4.1-4.1,8.2-8,12.3-12c3.8-3.7,3.8-5.8,0.1-9.7c-2.9-3.1-5.8-6.2-8-9.9
	c-3.3-5.4-3-10.7,0.4-15.9c1.9-3,4.3-5.7,6.8-8.2c12.6-12.6,25.1-25.3,37.7-37.9c0.9-0.9,1.9-1.8,3-2.7c9.1-7.6,17.8-7.4,26.6,0.5
	c1.6,1.4,3.1,3,4.7,4.4c3.5,3.1,5.8,2.8,8.6-0.7c2.7-3.4,3.4-3.5,6.9-1.2c0.3,0.2,0.6,0.3,0.9,0.5c4.2,2.2,5,5.8,1.7,9.6
	c-3.9,4.5-8.1,8.6-12.5,12.5c-1,0.9-2.1,1.9-3.1,2.9c-30.6,30.6-61.2,61.2-91.8,91.7c-1.3,1.3-2.5,2.7-3.6,4.1
	c-2,2.7-1.9,5.1,0.4,7.6c1.8,2,3.8,3.8,5.8,5.4c1,1.5,2,3.1,3.4,4.3c1.3,1.1,2.5,1.4,4.1,0.8c1.8-0.6,3.1-1.8,4.4-3.1
	c27.9-27.9,55.8-55.8,83.6-83.6c18.2-18.2,36.5-36.5,54.7-54.7c0.7-0.7,1.4-1.4,2.1-2.1c2.4-2.8,2.3-5.1-0.4-7.6
	c-2.4-2.2-4.7-4.5-6.9-6.9c-4.2-4.5-6.9-4.5-11.3-0.1c-0.5,0.5-0.9,1-1.4,1.4c-2.8,2.7-5.8,5.1-8.3,8.1c-2.3,2.7-6.4,2-8.4-1.1
	c-3.5-6.1-3.5-6.1,1.7-11c2.7-2.6,5.3-5.3,8-7.9c7.2-7.1,15.1-8,23.7-2.7c7.7,4.7,13.4,11.4,19,18.2c0.4,0.5,0.8,1,1.3,1.6
	c3.6,4.3,3.5,6.2-0.5,10.2c-27,27-54.1,54-81.1,81.1c-3.1,3.1-6.1,6.3-9.2,9.6c1.1,0.6,2,0.4,2.9,0.4c60.6,0,121.2,0,181.9,0
	c2.9,0,5.8,0,8.7,0.3c4.1,0.4,5.4,2,5.4,6.2c-0.1,6.4-1.3,12.7-2.2,19.1c-0.6,4.3-1.2,8.6-1.7,12.9c-0.5,4.6-1.4,5.4-6.1,5.6
	c-0.3,0-0.7,0.1-1,0.1c-2.9,0.7-5.5-0.9-6.1-3.8c-0.3-1.3-0.3-2.7,0-4c1.2-5.7,1.4-11.6,2.5-17.3c0.2-0.8,0.2-1.6,0.2-2.5
	c0-1.9-0.9-2.9-2.8-3.1c-0.8-0.1-1.7-0.1-2.5-0.1c-32.9,0-65.7-0.3-98.6,0.1c-14.2,0.2-28.4,0.2-42.7,0.4c-0.9,0-1.8,0.1-2.7-0.1
	c-14.4-0.8-28.8-0.4-43.2-0.4c-6.6,0-11.6,3.8-13.3,10c-0.8,2.9-0.5,5.9-0.1,8.9c4.2,31.2,8.4,62.3,12.6,93.5
	c4.4,33.2,8.8,66.5,13.1,99.8c0.1,1.1,0.3,2.1,0.6,3.2c1.3,4.8,3.9,7,8.9,7.2c0.9,0,1.8,0,2.7,0c41.6,0,83.3,0,124.9,0
	c2.8,0,5.5-0.3,8.2-0.6c4.6-0.6,7.1-3,8-7.6c0.5-2.8,0.7-5.6,0.6-8.4c-0.1-2.8,0.1-5.7,0.6-8.5c2.8-12,3.6-24.3,5.3-36.5
	c2.6-18.6,4.9-37.3,7.3-55.9c1.8-14,3.5-28.1,5.3-42.1c0.2-2,0.6-4,1.5-5.8C413.9,309,417.2,307.9,420.2,309.4z"/>
<path class="st1" d="M269.3,254.4c7.9-0.1,15.8-0.2,23.7-0.2c38.8-0.1,77.5-0.2,116.3-0.3c2.1,0,4.2-0.1,6.2,0
	c3.6,0.2,4.7,1.3,4.2,4.8c-0.8,6.2-1.6,12.3-2.7,18.5c-1,5.6-0.3,7,5.2,8.3c-0.3,6.7-1.2,13.3-1.9,20c-0.1,1.3-0.1,2.7-0.1,4
	c-6,0-7.5,1.1-8.3,7.1c-1.8,13.7-3.4,27.5-5.2,41.3c-2.1,16.1-4.2,32.3-6.3,48.4c-1.7,13.2-3.5,26.3-5.2,39.5
	c-0.3,2.2-0.9,4.4-1.6,6.5c-0.5,0.4-1.1,0.5-1.6,0.3c-2.4-0.8-5-1.2-7.3-2.4c-2.4-1.2-4-3.1-4-6c2.3-7.6,2.7-15.4,1.8-23.2
	c-0.1-1.2-0.1-2.5-0.1-3.7c0-17.4-0.4-34.8,0.1-52.2c0.5-16.1,0.3-32.3,0.4-48.4c0-6.8-0.4-13.6-0.6-20.4
	c-0.2-9.3-7.4-16.1-16.4-16.5c-11.2-0.5-18,8.4-18.8,16.3c-0.4,3.7-0.6,7.5-0.6,11.2c0,24.1,0,48.3,0,72.4c0,1.6,0.1,3.2-0.2,4.7
	c-0.4,1.2-0.4,2.5-0.4,3.7c0,11.1,0,22.1,0,33.2c0,0.8,0,1.7,0,2.5c-0.2,2.3-0.9,2.7-2.8,1.3c-3.7-2.6-6.1-6.1-7.4-10.4
	c-0.8-2.8-1.3-5.7-1.2-8.6c0.7-30.2,0.4-60.4,0.5-90.6c0-5.1-0.8-10.3-0.1-15.4c0.3-2-0.1-4-1.4-5.7c-2.2-3.7-4.4-7.4-7.5-10.5
	c-7.4-7.7-21.9-4.9-26.5,4.9c-1.6,3.3-2.5,6.9-2.5,10.6c0.2,17-0.9,34.1-0.5,51.1c0.1,4.4,0,8.8,0,13.2c0,1.1,0.1,2.2-0.3,3.2
	c-1.1,1.2-1.5,0-2-0.6c-1-1.3-1.7-2.9-2.4-4.3c-2.6-4.9-5.9-9.4-8-14.5c-0.3-1.3-0.2-2.6-0.2-3.8c-0.1-5.3,0.3-10.6-0.3-16
	c-0.5-3.7-0.2-7.5-0.2-11.2c-0.1-5.7,0-11.5,0-17.2c-0.1-8.3-3.6-14.5-11-18.4c-1-0.5-2.1-1-2.8-2c-0.6-0.9-0.7-1.9-0.7-2.8
	c0-6.3,0-12.5,0-18.8C268.5,256.2,268.6,255.2,269.3,254.4z"/>
<path class="st1" d="M271.4,142c0.8,0.5,1.7,1.1,2.5,1.5c2.2,1.2,4.2,0.9,5.7-1.1c2.4-3,5.3-5.4,8.2-7.9c0.5-0.4,1-0.3,1.4,0
	c2.8,2.1,5.8,4,7.7,7c1,1.6,1.1,3,0.3,4.7c-0.7,1.4-1.6,2.7-2.7,3.8c-41.9,41.8-83.7,83.7-125.6,125.4c-3.6,3.6-7.2,7.4-11.3,10.5
	c-0.6,0.5-1.1,1.3-2.1,1c-2.3-1.6-4.3-3.6-6.2-5.7c-2.4-2.7-2.5-5-0.4-7.8c1-1.4,2.2-2.7,3.4-3.9c29.3-29.3,58.6-58.6,87.9-87.8
	c5.8-5.8,11.7-11.6,17.6-17.3c0.4-0.4,0.7-0.7,1.1-1.1c4.2-4.4,4.3-6.3,0.1-10.6c0.6,0,1.2-0.1,1.6-0.5
	C264,148.7,267.7,145.4,271.4,142z"/>
<path class="st2" d="M405.5,161.4c12.6-0.3,20.1,6.4,24.6,16.9c2.4,5.6,5.6,10.5,9.6,14.9c2.1,2.3,4,4.7,5.3,7.5
	c2.1,4.5,0.9,7.4-3.9,8.8c-5.2,1.5-10.7,1.7-16,2.4c-10.5,1.4-21.1,2.5-31.7,3.9c-6.2,0.8-8.8-1-10.3-7.1c-1.6-7-3.9-13.9-5.2-21
	c-0.7-4.2-0.9-8.4-1.2-12.6c-0.3-4,2.3-6.4,5.7-8c5.3-2.4,10.9-4,16.6-5C401.4,161.6,403.6,161.4,405.5,161.4z"/>
<path class="st2" d="M348.6,228.8c-3.7,0.1-7.3,0.1-10.9,0.6c-8.5,1.2-15.7-2.5-22.9-6.2c-4.8-2.5-9.4-5.3-14.3-7.5
	c-4.8-2.2-5.5-6.1-2.2-10.6c4.6-6.2,9.3-12.3,14-18.5c6.6-8.8,6.6-8.8,17.2-6c5.5,1.5,11.1,3,16.6,4.3c3.4,0.7,5.5,2.6,6.7,5.6
	c3.6,9.1,7.3,18.2,10.7,27.4c2.8,7.5,0.8,10.4-7.1,11C353.8,229,351.2,228.8,348.6,228.8z"/>
<path class="st3" d="M497.7,153c-8-0.9-15.9-0.5-23.6,1.5c-6.1,1.6-11.8,4-17,7.5c-4.4,2.9-5.3,2.6-8.1-1.7c-0.6-0.9-1.3-1.7-2-2.5
	c-1.6-1.9-1.5-3.2,0.5-4.6c9.2-6,19.1-10.3,30-12.1c7.2-1.1,14.4-1.1,21.6-0.5c3.3,0.3,4.3,1.6,3.6,4.9c-0.2,1.2-0.4,2.5-0.6,3.7
	C501.7,152,500.4,153,497.7,153z"/>
<path class="st4" d="M421.3,147.6c-5.5,0.9-6.9-1.3-5.6-6.9c2.9-11.9,10.3-19.8,22.2-23.1c1.5-0.4,3-0.8,4.6-1.2
	c1.7-0.4,2.9,0.1,3.3,2c0.2,1.1,0.5,2.3,0.7,3.4c0.8,4.3-0.1,5.9-4.3,7.2c-7,2.2-12,6.5-14.2,13.7
	C426.6,147.5,426.5,147.5,421.3,147.6z"/>
<path class="st5" d="M477.6,178.2c5.2-0.1,6.7,1.3,6.7,5.9c0.1,5.8-1.6,7.7-6.8,7.8c-5,0-6.8-1.8-6.8-7
	C470.6,179.4,471.7,178.3,477.6,178.2z"/>
<path class="st6" d="M395.8,128.5c-2,0.1-4.5,0.7-5.5-1.7c-1.2-2.9-1.6-6.1-0.1-9.1c0.4-0.8,1.2-1.1,2-1.3
	c7.7-2.3,11.9,1.6,10.2,9.5c-0.4,1.8-1.6,2.5-3.2,2.7C398.2,128.6,397,128.5,395.8,128.5z"/>
<path class="st7" d="M269.3,254.4c0,7.2,0,14.4,0,21.5c0,1-0.1,2,0.5,2.9c-0.8,1-1.9,0.8-3,0.9c-3.2,0.1-6.3,0.7-9.3,1.8
	c-4.3,1.6-7.3,4.5-8.8,8.9c-1.1,3.3-1.6,6.6-1.6,10.1c0,44,0,88.1,0,132.1c0,3.1,0.5,6.1,1.6,9c2.9,7.4,9.3,11.3,17.9,10.9
	c7.3-0.4,13.6-5.5,15.5-12.7c0.6-2.3,0.9-4.6,0.9-6.9c0-7.3,0.1-14.6,0-22c-0.3-19.9,0.8-39.8,0.5-59.6c0-1.1-0.2-2.4,0.7-3.3
	c3.1,5.4,6.2,10.7,9.3,16.1c0.7,1.2,1.2,2.4,2.1,3.3c1,0.9,0.8,2.1,0.8,3.3c0,4.2,0.1,8.3,0,12.5c-0.3,17.2,0.7,34.4,0.6,51.6
	c-0.1,9.5,7.4,17.3,16.5,17.8c10,0.6,17.5-5.6,19-15.6c0.3-2.1,0.4-4.3,0.4-6.5c0-44,0-88,0-132c0-1.5-0.4-3.2,0.8-4.5
	c2.2,1.9,2.2,4.6,1.9,7.1c-0.3,3.3-0.1,6.6-0.1,9.9c0.2,26.5,0.2,52.9,0,79.4c-0.1,5.7-0.5,11.5-0.3,17.2c0.2,7.5,2.8,13.9,9.9,18.1
	c0-2.6,0-5,0-7.4c0-10.4,0-20.8,0-31.2c0-0.9-0.3-1.8,0.4-2.6c1.1,1.1,0.8,2.5,0.8,3.8c0,13.8,0,27.6,0,41.4c0,3.3,0.4,6.5,1.1,9.6
	c1.8,7.2,6.6,11.3,13.5,13.2c6.7,1.8,12.2-0.8,17-5.2c0.9-0.9,1.4-2.3,3-2.3c0.6,3,2.5,4.7,5.3,5.5c2.4,0.7,4.7,1.3,7.1,2
	c-0.4,5.4-0.1,10.8-0.8,16.2c-0.8,6-3.5,8.7-9.5,9.3c-3.3,0.4-6.6,0.5-10,0.5c-40.7,0-81.4,0.1-122.1,0.1c-0.6,0-1.2,0-1.7,0
	c-7.3-0.1-10.6-2.8-11.5-10c-2.3-17.1-4.4-34.3-6.7-51.4c-2.2-16.9-4.5-33.8-6.8-50.7c-2.2-16.7-4.4-33.4-6.7-50.2
	c-1.9-14.3-3.8-28.5-5.8-42.7c-0.7-4.8-0.5-9.5,2.5-13.6c2.6-3.5,6-5.7,10.3-5.7c14.6-0.3,29.3-0.1,43.9,0.3
	C269,254.2,269.2,254.3,269.3,254.4z"/>
<path class="st7" d="M155.3,287c5.1-3.7,9.5-8.3,13.9-12.8c41.6-41.4,83.1-82.9,124.6-124.4c0.2-0.2,0.4-0.4,0.5-0.5
	c3.8-3.9,3.8-6.4-0.2-10c-1.9-1.7-3.8-3.7-6.3-4.7c0-0.1,0-0.2,0.1-0.2c5.6-6.2,8.7-6.2,14.2,0c1.8,2.1,3.8,3.9,5.9,5.7
	c3.2,2.6,3.6,5.3,0.7,8.3c-5.4,5.8-11,11.3-16.6,16.9c-31,30.9-62,61.8-93,92.7C189,268,179,278.2,168.9,288.4
	c-1.1,1.1-2.2,2-3.4,2.9c-3.4,2.4-5.9,1.9-8.4-1.3C156.4,289,155.9,288,155.3,287z"/>
<path class="st0" d="M223.7,156.2c1.8,0.1,3.3,0.7,4.6,1.7c2.7,2.2,5.4,4.4,8.2,6.5c1.3,1,1.1,1.5,0.1,2.6
	c-12.5,13.5-25.9,26.1-38.8,39.2c-3.4,3.4-6.8,6.8-10.2,10.3c-2.5,2.6-4.1,2.6-6.4,0c-1.6-1.7-3.2-3.3-4.9-5
	c-3.4-3.5-3.6-6.2-0.2-9.7c9.3-9.6,18.7-19,28-28.4c4.9-5,9.9-9.8,14.9-14.8C220.4,157.3,221.9,156.3,223.7,156.2z"/>
<path d="M333.8,293.9c0,1-0.1,2-0.1,3c0,45.3,0,90.5-0.1,135.8c0,5.7-1,11.2-5.4,15.3c-5.7,5.3-12.4,7.1-19.8,4.2
	c-7.4-2.9-11.8-8.6-12.1-16.7c-0.3-9.3-0.2-18.6-0.3-27.9c-0.1-13.4-0.2-26.8-0.3-40.2c0.1-11.5,0.2-22.9,0.3-34.4
	c0.1-11.1,0.1-22.3,0.3-33.4c0.1-4.9,1.2-9.5,4.1-13.6c5.6-8,17.9-9.6,25.4-3.2C329.4,285.7,331.9,289.6,333.8,293.9z"/>
<path class="st2" d="M381.2,444.7c-3.3,4-7.1,7.4-12.5,8.5c-11.2,2.2-21.4-5.8-22.5-17.4c-1-11.2-0.4-22.4-0.5-33.6
	c-0.1-6-0.1-12-0.1-17.9c0.1-12.9,0.1-25.8,0.2-38.7c0-14.7,0-29.5,0.1-44.2c0-4.9,0.7-9.6,3.3-13.9c4.3-7,12.3-10.2,20.8-8.1
	c7.3,1.8,12.8,8.5,13.2,16.6c0.3,5.6,0.3,11.3,0.3,17c0,35-0.1,69.9-0.1,104.9c0,4.4,0.1,8.8,0.1,13.2
	C383.5,435.7,383,440.3,381.2,444.7z"/>
<path d="M284.3,347.8c-0.1,3.7-0.2,7.5-0.2,11.2c-0.1,25-0.2,49.9-0.4,74.9c-0.1,11.9-8,19.7-19.7,19.3
	c-10.3-0.3-17.6-8.4-17.7-19.6c-0.1-12.7,0-25.5,0-38.2c0-30.9,0-61.9,0-92.8c0-4.1,0.3-8.1,1.5-12.1c1.5-5,4.8-8.2,9.7-9.9
	c4-1.3,8.1-1.9,12.3-1.8c8.7,3.8,13.7,10.2,14,19.9c0.1,3.7-0.1,7.5-0.1,11.2c0,5.8,0.1,11.6,0.1,17.4c0.3,4.5,0.1,9.1,0.2,13.6
	c0,1-0.2,2,0.2,2.9C284.2,345.2,284.3,346.5,284.3,347.8z"/>
<path class="st7" d="M284.2,343.9c-0.5-5.5-0.4-11-0.3-16.6c0.8,2.4,0.3,4.9,0.4,7.4C284.4,337.8,284.3,340.9,284.2,343.9z"/>
<path class="st7" d="M426.8,196.6c0.8,1.8,0.7,2.8-1.7,3c-8.6,0.8-17.2,1.8-25.8,2.7c-3.2,0.3-4.3-0.2-5.3-3.2
	c-1.4-3.9-2.9-7.8-3.9-11.8c-1.3-5.4-0.1-7.8,5-9.8c4.1-1.6,8.4-2.7,12.7-3.5c0.3,0.2,0.5,0.4,0.6,0.8c1.9,6.6,6.3,11.6,10.5,16.7
	c1.2,1.4,2.3,2.8,3.4,4.3C424,197.9,424.2,197.9,426.8,196.6z"/>
<path class="st8" d="M426.8,196.6c-1.4,2.3-2.6,2.6-4.1,0.5c-3.8-5.1-8.4-9.6-11.8-15.1c-1.5-2.5-2.7-5.1-3.2-8c2-1.1,4-0.8,4.9,1.2
	C416.1,183.2,422,189.5,426.8,196.6z"/>
<path class="st7" d="M341.7,215.9c-9.2,1.9-17.3-1.1-25.1-5.4c-1.7-0.9-3-2.5-2.1-4.6c1.9-4.7,5.2-8.5,9.2-11.6
	c1.8,0.8,3.7,1.3,5.7,1.6c1.6,0.2,3.3,0.3,4.6,1.7c3,5.5,5.2,11.4,7.8,17.1C341.9,215.1,342,215.5,341.7,215.9z"/>
<path class="st9" d="M341.7,215.9c-2.7-6-5.3-12-8-17.9c0.8-1.8,2.4-1.9,4-2c3.9,1.2,6.3,4,7.5,7.7c1.1,3.5,1.9,7,2.8,10.6
	c0.4,1.4-0.5,1.9-1.6,1.9C344.9,216.2,343.3,216,341.7,215.9z"/>
<path class="st10" d="M337.7,196c-1.3,0.7-2.7,1.3-4,2c-1.8-1.2-3.8-1.3-5.8-1.5c-1.7-0.2-3.3-0.4-4.2-2
	C328.5,193.4,333.3,192.8,337.7,196z"/>
<path class="st11" d="M310.8,293.9c0-0.1,0.1-0.2,0.1-0.2c2.2-1.5,4.6-3.2,7.3-2.1c2.8,1.2,2.7,4.2,2.8,6.8
	c0.2,5.1,0.2,10.1,0.2,15.2c0,22.4,0,44.8-0.1,67.1c0,7.3-0.3,14.6-0.4,21.9c-1.3,0.2-2-0.7-2.7-1.5c-5.2-4.9-7.1-11.2-8-18.1
	c-0.7-5.4,0-10.8,0-16.2c0.1-22.9,0-45.9,0-68.8C310,296.8,309.8,295.2,310.8,293.9z"/>
<path class="st12" d="M310.8,293.9c0,24.1,0,48.2,0,72.4c0,5.4-0.8,10.7-0.1,16.1c0.9,8.1,3.4,15.2,10,20.3
	c0.2,10.3,0.4,20.6,0.5,30.9c0,5.3-3.2,7.8-8.1,6.6c-2-0.5-3.1-1.8-3.8-3.6c-0.5-1.4-0.5-2.8-0.5-4.2c0-38.6,0.1-77.2,0.1-115.8
	c0-6.2,0.1-12.5,0-18.7C308.9,296.2,309.2,294.8,310.8,293.9z"/>
<path class="st13" d="M371,366c0,21.1,0,42.3,0,63.4c0,2.2,0.3,4.3-0.1,6.5c-0.6,2.8-1.9,4.1-4.6,4.3c-3.7,0.3-6-0.8-7-3.5
	c-0.7-1.8-0.6-3.8-0.6-5.7c0-20.7,0-41.4,0-62.2c0-23.4,0-46.8,0-70.1c0-5.8,3.2-8.3,8.1-7.2c2.3,0.5,3.6,1.9,3.9,4.2
	c0.6,3.7,0.2,7.5,0.3,11.2C371.1,326.8,371.1,346.4,371,366C371.1,366,371,366,371,366z"/>
<path class="st14" d="M271.3,366.3c0,21.7,0,43.5,0,65.2c0,0.9,0,1.8,0,2.7c-0.2,4.2-2,6.1-5.9,6.1c-4.2,0.1-6.1-1.7-6.4-5.9
	c-0.1-0.7,0-1.5,0-2.2c0-44,0-88.1,0-132.1c0-1,0-2,0.1-3c0.6-4.1,2.6-5.8,6.5-5.7c3.6,0.2,5.5,2.1,5.8,6.2c0.1,1.2,0.1,2.3,0.1,3.5
	C271.3,322.8,271.3,344.6,271.3,366.3z"/>
</svg>
