<?xml version="1.0" encoding="utf-8"?>
<!-- Generator: Adobe Illustrator 26.0.1, SVG Export Plug-In . SVG Version: 6.00 Build 0)  -->
<svg version="1.1" id="Layer_1" xmlns="http://www.w3.org/2000/svg" xmlns:xlink="http://www.w3.org/1999/xlink" x="0px" y="0px"
	 viewBox="0 0 197.9 162.9" style="enable-background:new 0 0 197.9 162.9;" xml:space="preserve">
<style type="text/css">
	.st0{fill:#95E078;}
	.st1{fill:#CA4D40;}
</style>
<path class="st0" d="M779.4,244.8c0.2,9.4-3.7,16.2-8.8,22.3c-15.2,18.2-30.5,36.3-45.8,54.4c-11.9,14.1-23.7,28.3-35.6,42.4
	c-13.7,16.3-27.4,32.5-41.1,48.8c-11.1,13.2-22,26.5-33.1,39.6c-5.2,6.1-12,9.2-19.9,10.1c-9.9,1.1-18.2-2.3-25.6-8.6
	c-19.8-16.8-39.7-33.4-59.6-50c-4.4-3.7-9.1-7-12.4-11.8c-7.6-10.7-7.9-24.8-0.5-35.5c4.8-6.9,9.8-13.7,17-18.4
	c11.9-7.9,26.5-7.2,37.5,1.9c11,9.1,21.8,18.3,32.7,27.4c2.7,2.3,3.7,2.2,6-0.5c19.3-23.1,38.6-46.2,58-69.2
	c17.3-20.6,34.6-41.1,51.9-61.6c5.6-6.7,11-13.6,17-19.9c11.5-12.1,28.5-13.2,41.8-3.1c4.8,3.6,9.5,7.2,13.4,11.9
	C777.3,231,779.4,238.1,779.4,244.8z"/>
<path class="st1" d="M70,101.3c0-2.8,1.3-5.1,3.2-7.1c3.9-3.9,7.8-7.8,11.7-11.6c1.1-1.1,1.1-1.2,0-2.3c-4-4-8-7.9-12-11.9
	c-2.8-2.8-3.8-6.1-2.4-9.9c2.3-6,9.7-8.3,15-3.2c3.9,3.8,7.7,7.7,11.6,11.6c1.7,1.7,1.7,1.8,3.4,0c3.7-3.7,7.4-7.4,11.1-11.1
	c2.1-2.1,4.5-3.3,7.5-3.2c3.9,0.2,6.6,2.2,8.1,5.7c1.4,3.2,0.6,7.2-1.9,9.6c-4.2,4.2-8.4,8.4-12.6,12.6c-0.9,0.9-0.9,1.1,0,1.9
	c4.1,4.1,8.2,8.2,12.3,12.2c3,2.9,3.6,6.4,2.1,10.1c-1.5,3.8-4.5,5.4-8.3,5.7c-2.4,0.1-4.4-0.8-6.1-2.4c-4.1-3.9-8-7.9-12-11.9
	C99,94.3,99,94.2,97.3,96c-3.9,3.9-7.8,7.8-11.7,11.7c-5.1,5-13.5,2.7-15.3-4.2C70.1,102.8,70,102.1,70,101.3z"/>
</svg>
